<svg width="13" height="16" viewBox="0 0 13 16" fill="none" xmlns="http://www.w3.org/2000/svg">
<g clip-path="url(#clip0_191_296)">
<path d="M4.86663 3.94999C4.86663 2.95718 5.67382 2.14999 6.66663 2.14999C7.65944 2.14999 8.46663 2.95718 8.46663 3.94999V5.29999H4.86663V3.94999ZM3.51664 5.29999H1.71664C0.971325 5.29999 0.366638 5.90468 0.366638 6.64999V12.5C0.366638 13.9906 1.57601 15.2 3.06664 15.2H10.2666C11.7573 15.2 12.9666 13.9906 12.9666 12.5V6.64999C12.9666 5.90468 12.3619 5.29999 11.6166 5.29999H9.81663V3.94999C9.81663 2.20905 8.40757 0.799988 6.66663 0.799988C4.9257 0.799988 3.51664 2.20905 3.51664 3.94999V5.29999ZM4.19164 6.64999C4.37066 6.64999 4.54235 6.7211 4.66893 6.84769C4.79552 6.97428 4.86663 7.14597 4.86663 7.32499C4.86663 7.50401 4.79552 7.6757 4.66893 7.80228C4.54235 7.92887 4.37066 7.99999 4.19164 7.99999C4.01261 7.99999 3.84093 7.92887 3.71434 7.80228C3.58775 7.6757 3.51664 7.50401 3.51664 7.32499C3.51664 7.14597 3.58775 6.97428 3.71434 6.84769C3.84093 6.7211 4.01261 6.64999 4.19164 6.64999ZM8.46663 7.32499C8.46663 7.14597 8.53775 6.97428 8.66433 6.84769C8.79092 6.7211 8.96261 6.64999 9.14163 6.64999C9.32065 6.64999 9.49234 6.7211 9.61893 6.84769C9.74551 6.97428 9.81663 7.14597 9.81663 7.32499C9.81663 7.50401 9.74551 7.6757 9.61893 7.80228C9.49234 7.92887 9.32065 7.99999 9.14163 7.99999C8.96261 7.99999 8.79092 7.92887 8.66433 7.80228C8.53775 7.6757 8.46663 7.50401 8.46663 7.32499Z" fill="#E8AD14"/>
</g>
<defs>
<clipPath id="clip0_191_296">
<rect width="12.6" height="14.4" fill="white" transform="translate(0.366638 0.799988)"/>
</clipPath>
</defs>
</svg>
