<svg width="98" height="38" viewBox="0 0 98 38" fill="none" xmlns="http://www.w3.org/2000/svg">
<g clip-path="url(#clip0_360_7507)">
<rect width="98" height="38" fill="#FF00FF"/>
<rect opacity="0.5" x="89.5078" y="-6.52539" width="36.0742" height="36.0742" transform="rotate(45 89.5078 -6.52539)" fill="#1B4341"/>
<rect x="95" y="-6.52539" width="36.0742" height="36.0742" transform="rotate(45 95 -6.52539)" fill="#1B4341"/>
<path d="M19.364 18.716C19.812 18.796 20.192 19.032 20.504 19.424C20.816 19.816 20.972 20.26 20.972 20.756C20.972 21.18 20.86 21.564 20.636 21.908C20.42 22.244 20.104 22.512 19.688 22.712C19.272 22.904 18.788 23 18.236 23H14.9V14.66H18.08C18.648 14.66 19.136 14.756 19.544 14.948C19.952 15.14 20.26 15.4 20.468 15.728C20.676 16.048 20.78 16.408 20.78 16.808C20.78 17.288 20.652 17.688 20.396 18.008C20.14 18.328 19.796 18.564 19.364 18.716ZM16.268 18.164H17.96C18.408 18.164 18.756 18.064 19.004 17.864C19.26 17.656 19.388 17.36 19.388 16.976C19.388 16.6 19.26 16.308 19.004 16.1C18.756 15.884 18.408 15.776 17.96 15.776H16.268V18.164ZM18.116 21.884C18.58 21.884 18.944 21.772 19.208 21.548C19.472 21.324 19.604 21.012 19.604 20.612C19.604 20.204 19.464 19.88 19.184 19.64C18.904 19.4 18.532 19.28 18.068 19.28H16.268V21.884H18.116ZM28.5186 19.532C28.5186 19.78 28.5026 20.004 28.4706 20.204H23.4186C23.4586 20.732 23.6546 21.156 24.0066 21.476C24.3586 21.796 24.7906 21.956 25.3026 21.956C26.0386 21.956 26.5586 21.648 26.8626 21.032H28.3386C28.1386 21.64 27.7746 22.14 27.2466 22.532C26.7266 22.916 26.0786 23.108 25.3026 23.108C24.6706 23.108 24.1026 22.968 23.5986 22.688C23.1026 22.4 22.7106 22 22.4226 21.488C22.1426 20.968 22.0026 20.368 22.0026 19.688C22.0026 19.008 22.1386 18.412 22.4106 17.9C22.6906 17.38 23.0786 16.98 23.5746 16.7C24.0786 16.42 24.6546 16.28 25.3026 16.28C25.9266 16.28 26.4826 16.416 26.9706 16.688C27.4586 16.96 27.8386 17.344 28.1106 17.84C28.3826 18.328 28.5186 18.892 28.5186 19.532ZM27.0906 19.1C27.0826 18.596 26.9026 18.192 26.5506 17.888C26.1986 17.584 25.7626 17.432 25.2426 17.432C24.7706 17.432 24.3666 17.584 24.0306 17.888C23.6946 18.184 23.4946 18.588 23.4306 19.1H27.0906ZM32.2648 23.108C31.7448 23.108 31.2768 23.016 30.8608 22.832C30.4528 22.64 30.1288 22.384 29.8888 22.064C29.6488 21.736 29.5208 21.372 29.5048 20.972H30.9208C30.9448 21.252 31.0768 21.488 31.3168 21.68C31.5648 21.864 31.8728 21.956 32.2408 21.956C32.6248 21.956 32.9208 21.884 33.1288 21.74C33.3448 21.588 33.4528 21.396 33.4528 21.164C33.4528 20.916 33.3328 20.732 33.0928 20.612C32.8608 20.492 32.4888 20.36 31.9768 20.216C31.4808 20.08 31.0768 19.948 30.7648 19.82C30.4528 19.692 30.1808 19.496 29.9488 19.232C29.7248 18.968 29.6128 18.62 29.6128 18.188C29.6128 17.836 29.7168 17.516 29.9248 17.228C30.1328 16.932 30.4288 16.7 30.8128 16.532C31.2048 16.364 31.6528 16.28 32.1568 16.28C32.9088 16.28 33.5128 16.472 33.9688 16.856C34.4328 17.232 34.6808 17.748 34.7128 18.404H33.3448C33.3208 18.108 33.2008 17.872 32.9848 17.696C32.7688 17.52 32.4768 17.432 32.1088 17.432C31.7488 17.432 31.4728 17.5 31.2808 17.636C31.0888 17.772 30.9928 17.952 30.9928 18.176C30.9928 18.352 31.0568 18.5 31.1848 18.62C31.3128 18.74 31.4688 18.836 31.6528 18.908C31.8368 18.972 32.1088 19.056 32.4688 19.16C32.9488 19.288 33.3408 19.42 33.6448 19.556C33.9568 19.684 34.2248 19.876 34.4488 20.132C34.6728 20.388 34.7888 20.728 34.7968 21.152C34.7968 21.528 34.6928 21.864 34.4848 22.16C34.2768 22.456 33.9808 22.688 33.5968 22.856C33.2208 23.024 32.7768 23.108 32.2648 23.108ZM37.871 17.504V21.164C37.871 21.412 37.927 21.592 38.039 21.704C38.159 21.808 38.359 21.86 38.639 21.86H39.479V23H38.399C37.783 23 37.311 22.856 36.983 22.568C36.655 22.28 36.491 21.812 36.491 21.164V17.504H35.711V16.388H36.491V14.744H37.871V16.388H39.479V17.504H37.871ZM46.605 23.084C46.045 23.084 45.541 22.988 45.093 22.796C44.645 22.596 44.293 22.316 44.037 21.956C43.781 21.596 43.653 21.176 43.653 20.696H45.117C45.149 21.056 45.289 21.352 45.537 21.584C45.793 21.816 46.149 21.932 46.605 21.932C47.077 21.932 47.445 21.82 47.709 21.596C47.973 21.364 48.105 21.068 48.105 20.708C48.105 20.428 48.021 20.2 47.853 20.024C47.693 19.848 47.489 19.712 47.241 19.616C47.001 19.52 46.665 19.416 46.233 19.304C45.689 19.16 45.245 19.016 44.901 18.872C44.565 18.72 44.277 18.488 44.037 18.176C43.797 17.864 43.677 17.448 43.677 16.928C43.677 16.448 43.797 16.028 44.037 15.668C44.277 15.308 44.613 15.032 45.045 14.84C45.477 14.648 45.977 14.552 46.545 14.552C47.353 14.552 48.013 14.756 48.525 15.164C49.045 15.564 49.333 16.116 49.389 16.82H47.877C47.853 16.516 47.709 16.256 47.445 16.04C47.181 15.824 46.833 15.716 46.401 15.716C46.009 15.716 45.689 15.816 45.441 16.016C45.193 16.216 45.069 16.504 45.069 16.88C45.069 17.136 45.145 17.348 45.297 17.516C45.457 17.676 45.657 17.804 45.897 17.9C46.137 17.996 46.465 18.1 46.881 18.212C47.433 18.364 47.881 18.516 48.225 18.668C48.577 18.82 48.873 19.056 49.113 19.376C49.361 19.688 49.485 20.108 49.485 20.636C49.485 21.06 49.369 21.46 49.137 21.836C48.913 22.212 48.581 22.516 48.141 22.748C47.709 22.972 47.197 23.084 46.605 23.084ZM57.1592 19.532C57.1592 19.78 57.1432 20.004 57.1112 20.204H52.0592C52.0992 20.732 52.2952 21.156 52.6472 21.476C52.9992 21.796 53.4312 21.956 53.9432 21.956C54.6792 21.956 55.1992 21.648 55.5032 21.032H56.9792C56.7792 21.64 56.4152 22.14 55.8872 22.532C55.3672 22.916 54.7192 23.108 53.9432 23.108C53.3112 23.108 52.7432 22.968 52.2392 22.688C51.7432 22.4 51.3512 22 51.0632 21.488C50.7832 20.968 50.6432 20.368 50.6432 19.688C50.6432 19.008 50.7792 18.412 51.0512 17.9C51.3312 17.38 51.7192 16.98 52.2152 16.7C52.7192 16.42 53.2952 16.28 53.9432 16.28C54.5672 16.28 55.1232 16.416 55.6112 16.688C56.0992 16.96 56.4792 17.344 56.7512 17.84C57.0232 18.328 57.1592 18.892 57.1592 19.532ZM55.7312 19.1C55.7232 18.596 55.5432 18.192 55.1912 17.888C54.8392 17.584 54.4032 17.432 53.8832 17.432C53.4112 17.432 53.0072 17.584 52.6712 17.888C52.3352 18.184 52.1352 18.588 52.0712 19.1H55.7312ZM59.8735 14.12V23H58.5055V14.12H59.8735ZM63.0375 14.12V23H61.6695V14.12H63.0375ZM70.8936 19.532C70.8936 19.78 70.8776 20.004 70.8456 20.204H65.7936C65.8336 20.732 66.0296 21.156 66.3816 21.476C66.7336 21.796 67.1656 21.956 67.6776 21.956C68.4136 21.956 68.9336 21.648 69.2376 21.032H70.7136C70.5136 21.64 70.1496 22.14 69.6216 22.532C69.1016 22.916 68.4536 23.108 67.6776 23.108C67.0456 23.108 66.4776 22.968 65.9736 22.688C65.4776 22.4 65.0856 22 64.7976 21.488C64.5176 20.968 64.3776 20.368 64.3776 19.688C64.3776 19.008 64.5136 18.412 64.7856 17.9C65.0656 17.38 65.4536 16.98 65.9496 16.7C66.4536 16.42 67.0296 16.28 67.6776 16.28C68.3016 16.28 68.8576 16.416 69.3456 16.688C69.8336 16.96 70.2136 17.344 70.4856 17.84C70.7576 18.328 70.8936 18.892 70.8936 19.532ZM69.4656 19.1C69.4576 18.596 69.2776 18.192 68.9256 17.888C68.5736 17.584 68.1376 17.432 67.6176 17.432C67.1456 17.432 66.7416 17.584 66.4056 17.888C66.0696 18.184 65.8696 18.588 65.8056 19.1H69.4656ZM73.6078 17.348C73.8078 17.012 74.0718 16.752 74.3998 16.568C74.7358 16.376 75.1318 16.28 75.5878 16.28V17.696H75.2398C74.7038 17.696 74.2958 17.832 74.0158 18.104C73.7438 18.376 73.6078 18.848 73.6078 19.52V23H72.2398V16.388H73.6078V17.348ZM79.2453 23.108C78.7253 23.108 78.2573 23.016 77.8413 22.832C77.4333 22.64 77.1093 22.384 76.8693 22.064C76.6293 21.736 76.5013 21.372 76.4853 20.972H77.9013C77.9253 21.252 78.0573 21.488 78.2973 21.68C78.5453 21.864 78.8533 21.956 79.2213 21.956C79.6053 21.956 79.9013 21.884 80.1093 21.74C80.3253 21.588 80.4333 21.396 80.4333 21.164C80.4333 20.916 80.3133 20.732 80.0733 20.612C79.8413 20.492 79.4693 20.36 78.9573 20.216C78.4613 20.08 78.0573 19.948 77.7453 19.82C77.4333 19.692 77.1613 19.496 76.9293 19.232C76.7053 18.968 76.5933 18.62 76.5933 18.188C76.5933 17.836 76.6973 17.516 76.9053 17.228C77.1133 16.932 77.4093 16.7 77.7933 16.532C78.1853 16.364 78.6333 16.28 79.1373 16.28C79.8893 16.28 80.4933 16.472 80.9493 16.856C81.4133 17.232 81.6613 17.748 81.6933 18.404H80.3253C80.3013 18.108 80.1813 17.872 79.9653 17.696C79.7493 17.52 79.4573 17.432 79.0893 17.432C78.7293 17.432 78.4533 17.5 78.2613 17.636C78.0693 17.772 77.9733 17.952 77.9733 18.176C77.9733 18.352 78.0373 18.5 78.1653 18.62C78.2933 18.74 78.4493 18.836 78.6333 18.908C78.8173 18.972 79.0893 19.056 79.4493 19.16C79.9293 19.288 80.3213 19.42 80.6253 19.556C80.9373 19.684 81.2053 19.876 81.4293 20.132C81.6533 20.388 81.7693 20.728 81.7773 21.152C81.7773 21.528 81.6733 21.864 81.4653 22.16C81.2573 22.456 80.9613 22.688 80.5773 22.856C80.2013 23.024 79.7573 23.108 79.2453 23.108Z" fill="white"/>
</g>
<defs>
<clipPath id="clip0_360_7507">
<rect width="98" height="38" fill="white"/>
</clipPath>
</defs>
</svg>
