<svg width="19" height="18" viewBox="0 0 19 18" fill="none" xmlns="http://www.w3.org/2000/svg">
<mask id="mask0_543_41" style="mask-type:alpha" maskUnits="userSpaceOnUse" x="0" y="0" width="19" height="18">
<rect x="0.5" width="18" height="18" fill="#D9D9D9"/>
</mask>
<g mask="url(#mask0_543_41)">
<path d="M4.25 16.5C3.8375 16.5 3.48438 16.3531 3.19063 16.0594C2.89688 15.7656 2.75 15.4125 2.75 15V6C2.75 5.5875 2.89688 5.23438 3.19063 4.94063C3.48438 4.64688 3.8375 4.5 4.25 4.5H5.75C5.75 3.4625 6.11563 2.57812 6.84688 1.84687C7.57812 1.11562 8.4625 0.75 9.5 0.75C10.5375 0.75 11.4219 1.11562 12.1531 1.84687C12.8844 2.57812 13.25 3.4625 13.25 4.5H14.75C15.1625 4.5 15.5156 4.64688 15.8094 4.94063C16.1031 5.23438 16.25 5.5875 16.25 6V15C16.25 15.4125 16.1031 15.7656 15.8094 16.0594C15.5156 16.3531 15.1625 16.5 14.75 16.5H4.25ZM4.25 15H14.75V6H4.25V15ZM9.5 10.5C10.5375 10.5 11.4219 10.1344 12.1531 9.40313C12.8844 8.67188 13.25 7.7875 13.25 6.75H11.75C11.75 7.375 11.5312 7.90625 11.0938 8.34375C10.6562 8.78125 10.125 9 9.5 9C8.875 9 8.34375 8.78125 7.90625 8.34375C7.46875 7.90625 7.25 7.375 7.25 6.75H5.75C5.75 7.7875 6.11563 8.67188 6.84688 9.40313C7.57812 10.1344 8.4625 10.5 9.5 10.5ZM7.25 4.5H11.75C11.75 3.875 11.5312 3.34375 11.0938 2.90625C10.6562 2.46875 10.125 2.25 9.5 2.25C8.875 2.25 8.34375 2.46875 7.90625 2.90625C7.46875 3.34375 7.25 3.875 7.25 4.5Z" fill="#1B4341"/>
</g>
</svg>
