<svg width="114" height="157" viewBox="0 0 114 157" fill="none" xmlns="http://www.w3.org/2000/svg">
<g clip-path="url(#clip0_365_716)">
<path opacity="0.3" d="M97.4486 129.788C97.4486 133.596 79.1836 136.68 56.6511 136.68C34.1185 136.68 15.8536 133.596 15.8536 129.788C15.8536 125.984 34.1185 122.896 56.6511 122.896C79.1836 122.896 97.4486 125.984 97.4486 129.788Z" fill="url(#paint0_linear_365_716)"/>
<path opacity="0.3" d="M76.5959 152.824C76.5959 155.129 67.6674 157 56.6511 157C45.6348 157 36.7063 155.129 36.7063 152.824C36.7063 150.52 45.6348 148.649 56.6511 148.649C67.6674 148.649 76.5959 150.52 76.5959 152.824Z" fill="url(#paint1_linear_365_716)"/>
<path d="M81.007 65.3212H37.6328V112.739H81.007V65.3212Z" fill="url(#paint2_linear_365_716)"/>
<path d="M54.5414 76.1648L56.9306 108.144L57.482 107.041L58.2172 74.6945L54.5414 76.1648Z" fill="#CDE5FF"/>
<path d="M66.5245 103.976C63.5875 104.38 60.6542 104.788 57.7136 104.825C53.6666 104.509 41.9041 104.663 39.6435 100.281L38.923 101.395C37.4784 103.251 39.048 110.952 39.445 113.15C41.746 120.472 49.5718 128.827 57.3166 130.566C63.9551 132.319 67.5463 125.655 70.0459 120.109C72.1778 114.565 75.7507 106.435 75.6735 100.553C72.3763 101.697 70.1929 103.56 66.5245 103.976Z" fill="url(#paint3_linear_365_716)"/>
<path d="M97.5335 82.2787C97.5188 82.2898 97.5004 82.2971 97.4857 82.3155C95.9161 84.0468 94.1554 85.4656 92.788 87.4322C91.1486 89.792 89.6489 92.196 88.2962 94.7691C85.5468 100.007 83.0509 105.381 80.0294 110.443C77.4417 114.776 74.8355 119.062 71.9206 123.135C70.6856 124.863 69.4689 126.616 68.4727 128.527C67.7155 129.983 67.0576 131.656 67.1605 133.368C67.1678 133.49 67.2414 133.567 67.3516 133.578C72.1596 133.968 77.2174 133.681 81.7717 131.81C85.8518 130.137 88.8623 126.803 90.7737 122.554C91.7257 120.433 92.4094 118.173 93.0601 115.923C93.9312 112.916 94.6664 109.88 95.2471 106.789C96.4234 100.533 97.0042 94.1552 97.482 87.7961C97.618 85.9986 97.743 84.1975 97.868 82.4C97.879 82.1832 97.6364 82.1464 97.5335 82.2787Z" fill="url(#paint4_linear_365_716)"/>
<mask id="mask0_365_716" style="mask-type:luminance" maskUnits="userSpaceOnUse" x="67" y="82" width="31" height="52">
<path d="M97.5556 82.2787C97.5372 82.2898 97.5225 82.2971 97.5078 82.3155C95.9382 84.0468 94.1775 85.4656 92.8101 87.4322C91.1707 89.792 89.671 92.196 88.3183 94.7691C85.5689 100.007 83.073 105.381 80.0515 110.443C77.4638 114.776 74.8576 119.062 71.9427 123.135C70.7077 124.863 69.491 126.616 68.4948 128.527C67.7376 129.983 67.0797 131.656 67.1826 133.368C67.1899 133.49 67.2635 133.567 67.3737 133.578C72.1817 133.968 77.2395 133.681 81.7901 131.81C85.8703 130.137 88.8807 126.803 90.7921 122.554C91.7442 120.433 92.4279 118.173 93.0785 115.923C93.9496 112.916 94.6848 109.88 95.2656 106.789C96.4418 100.533 97.0226 94.1552 97.5004 87.7961C97.6364 85.9986 97.7614 84.1975 97.8864 82.4C97.9048 82.1832 97.6622 82.1464 97.5556 82.2787Z" fill="white"/>
</mask>
<g mask="url(#mask0_365_716)">
<path d="M94.9938 86.2728C94.9938 89.4524 94.8872 92.6319 94.6776 95.8078C94.4681 98.9984 94.152 102.182 93.7293 105.35C93.3029 108.555 92.7662 111.746 92.1193 114.915C91.4797 118.043 90.7335 121.145 89.8734 124.222C89.0169 127.276 88.0465 130.301 86.9548 133.279C86.8188 133.646 86.6828 134.014 86.5468 134.381C86.4623 134.602 86.8188 134.698 86.8997 134.481C88.0171 131.518 89.0169 128.508 89.8991 125.468C90.796 122.376 91.5753 119.252 92.2443 116.105C92.9133 112.955 93.472 109.783 93.9241 106.596C94.3762 103.413 94.7217 100.215 94.957 97.0061C95.1922 93.8302 95.3246 90.647 95.354 87.4601C95.3577 87.0668 95.3577 86.6735 95.3577 86.2802C95.3613 86.0339 94.9938 86.0339 94.9938 86.2728Z" fill="#1B4341"/>
</g>
<path d="M69.4431 135.019C69.4358 135.048 69.4321 135.081 69.4248 135.111L67.903 135.416C67.8993 135.383 67.8883 135.35 67.8626 135.317C66.7267 133.861 65.8335 131.597 63.9589 130.924C62.1357 130.266 60.3529 130.81 58.8312 131.902C57.2101 133.063 55.9861 134.699 54.6297 136.14C53.6557 137.177 52.7036 138.239 51.7295 139.279C50.4393 140.658 49.1675 142.051 47.9729 143.51C47.0356 144.657 46.0505 145.885 45.4734 147.259C44.2824 150.097 47.337 151.097 49.5939 151.398C51.6082 151.667 53.6704 151.578 55.6994 151.556C58.2394 151.527 60.8528 151.336 63.2421 150.417C65.4292 149.575 66.9069 148.039 67.6273 145.822C68.7558 142.356 69.0351 138.673 69.807 135.126C69.8585 134.879 69.4946 134.78 69.4431 135.019Z" fill="url(#paint5_linear_365_716)"/>
<path d="M91.4905 65.7563C88.7631 64.6058 84.5065 63.4552 81.338 64.8925C73.5858 68.4139 70.5643 83.1905 67.6567 90.8766C62.6025 104.253 57.0558 117.493 53.5822 131.409C53.5675 131.468 53.6263 131.538 53.7439 131.626C54.7327 132.872 59.8273 139.691 70.2077 137.588C70.7922 137.452 71.1745 137.147 71.2737 137.195C76.7506 126.057 81.6652 114.001 88.0426 103.455C95.9456 90.3951 110.204 73.6555 91.4905 65.7563Z" fill="url(#paint6_linear_365_716)"/>
<mask id="mask1_365_716" style="mask-type:luminance" maskUnits="userSpaceOnUse" x="53" y="64" width="48" height="74">
<path d="M91.5156 65.7583C88.7882 64.6078 84.5317 63.4573 81.3631 64.8945C73.6109 68.4159 70.5894 83.1925 67.6856 90.8786C62.6314 104.255 57.0846 117.495 53.611 131.411C53.5963 131.47 53.6551 131.54 53.7727 131.628C54.7615 132.874 59.8561 139.693 70.2365 137.59C70.821 137.454 71.2033 137.149 71.3025 137.197C76.7794 126.059 81.694 114.003 88.0678 103.457C95.967 90.3971 110.229 73.6576 91.5156 65.7583Z" fill="white"/>
</mask>
<g mask="url(#mask1_365_716)">
<path opacity="0.3" d="M42.0839 85.0556C58.9006 82.8207 75.8128 81.1629 92.6332 78.3362C106.208 76.0499 121.573 64.8204 108.145 54.8553C100.275 49.0108 91.1923 49.5549 80.8413 51.8228C66.0536 55.0612 51.1263 62.1701 37.7317 70.2532C35.2506 74.8038 38.2684 83.9969 42.0839 85.0556Z" fill="#1B4341"/>
</g>
<mask id="mask2_365_716" style="mask-type:luminance" maskUnits="userSpaceOnUse" x="53" y="64" width="48" height="74">
<path d="M91.5156 65.7583C88.7882 64.6078 84.5317 63.4573 81.3631 64.8945C73.6109 68.4159 70.5894 83.1925 67.6856 90.8786C62.6314 104.255 57.0846 117.495 53.611 131.411C53.5963 131.47 53.6551 131.54 53.7727 131.628C54.7615 132.874 59.8561 139.693 70.2365 137.59C70.821 137.454 71.2033 137.149 71.3025 137.197C76.7794 126.059 81.694 114.003 88.0678 103.457C95.967 90.3971 110.229 73.6576 91.5156 65.7583Z" fill="white"/>
</mask>
<g mask="url(#mask2_365_716)">
<path d="M103.289 74.0503C100.308 79.0494 97.2318 83.9896 94.1698 88.9372C92.6517 91.3926 91.1373 93.8481 89.6413 96.3182C88.3253 98.4906 87.0057 100.663 85.8074 102.902C83.613 107 81.7016 111.242 79.7792 115.473C77.82 119.788 75.8534 124.111 73.6038 128.283C71.4351 132.304 68.9907 136.211 65.9986 139.678C65.6384 140.097 65.2672 140.508 64.8922 140.913C64.7305 141.086 64.9915 141.347 65.1532 141.174C68.2446 137.858 70.7808 134.068 73.0084 130.132C75.3351 126.011 77.3384 121.722 79.3013 117.417C81.2531 113.131 83.1609 108.823 85.3186 104.633C87.7372 99.9315 90.5823 95.4581 93.3575 90.9626C96.4121 86.015 99.496 81.0894 102.495 76.1087C102.87 75.4875 103.245 74.8627 103.617 74.2378C103.727 74.0319 103.411 73.8481 103.289 74.0503Z" fill="#1B4341"/>
</g>
<path d="M15.7693 82.2787C15.784 82.2898 15.8023 82.2971 15.817 82.3155C17.3866 84.0468 19.1473 85.4656 20.5147 87.4322C22.1541 89.792 23.6538 92.196 25.0065 94.7691C27.756 100.007 30.2518 105.381 33.2733 110.443C35.8611 114.776 38.4672 119.062 41.3821 123.135C42.6172 124.863 43.8339 126.616 44.83 128.527C45.5872 129.983 46.2452 131.656 46.1423 133.368C46.1349 133.49 46.0614 133.567 45.9511 133.578C41.1432 133.968 36.0853 133.681 31.5347 131.81C27.4546 130.137 24.4441 126.803 22.5327 122.554C21.5807 120.433 20.897 118.173 20.2464 115.923C19.3752 112.916 18.6401 109.88 18.0593 106.789C16.883 100.533 16.3023 94.1552 15.8244 87.7961C15.6884 85.9986 15.5634 84.1975 15.4384 82.4C15.4237 82.1832 15.6663 82.1464 15.7693 82.2787Z" fill="url(#paint7_linear_365_716)"/>
<mask id="mask3_365_716" style="mask-type:luminance" maskUnits="userSpaceOnUse" x="15" y="82" width="32" height="52">
<path d="M15.7693 82.2787C15.784 82.2898 15.8023 82.2971 15.817 82.3155C17.3866 84.0468 19.1473 85.4656 20.5147 87.4322C22.1541 89.792 23.6538 92.196 25.0065 94.7691C27.756 100.007 30.2518 105.381 33.2733 110.443C35.8611 114.776 38.4672 119.062 41.3821 123.135C42.6172 124.863 43.8339 126.616 44.83 128.527C45.5872 129.983 46.2452 131.656 46.1423 133.368C46.1349 133.49 46.0614 133.567 45.9511 133.578C41.1432 133.968 36.0853 133.681 31.5347 131.81C27.4546 130.137 24.4441 126.803 22.5327 122.554C21.5807 120.433 20.897 118.173 20.2464 115.923C19.3752 112.916 18.6401 109.88 18.0593 106.789C16.883 100.533 16.3023 94.1552 15.8244 87.7961C15.6884 85.9986 15.5634 84.1975 15.4384 82.4C15.4237 82.1832 15.6663 82.1464 15.7693 82.2787Z" fill="white"/>
</mask>
<g mask="url(#mask3_365_716)">
<path d="M17.9673 86.2733C17.9673 89.4528 18.0739 92.6324 18.2834 95.8083C18.4966 99.0282 18.8164 102.241 19.2428 105.439C19.6692 108.618 20.1948 111.783 20.8344 114.926C21.4777 118.083 22.2275 121.215 23.0987 124.318C23.9551 127.372 24.9255 130.397 26.0172 133.375C26.1533 133.742 26.2893 134.11 26.4253 134.477C26.5098 134.698 26.8627 134.602 26.7781 134.378C25.6607 131.416 24.6609 128.405 23.7787 125.365C22.8892 122.303 22.1172 119.208 21.4519 116.091C20.7793 112.941 20.2205 109.769 19.7684 106.582C19.3163 103.402 18.9744 100.204 18.7355 97.0029C18.5003 93.827 18.3679 90.6438 18.3385 87.4569C18.3349 87.0636 18.3349 86.6703 18.3349 86.277C18.3349 86.0344 17.9673 86.0344 17.9673 86.2733Z" fill="#1B4341"/>
</g>
<path d="M46.1129 135.857C46.9877 131.144 54.4054 131.203 58.0077 129.652C59.0406 129.207 62.6539 139.93 63.0104 140.896C63.8117 143.054 64.3741 144.568 65.8151 146.278C72.4792 154.206 63.9478 154.548 56.5558 154.842C52.8616 154.989 41.0807 155.75 40.2794 150.233C39.8824 147.465 44.0066 144.521 44.9954 142.275C45.9474 140.11 45.749 137.809 46.1129 135.857Z" fill="url(#paint8_linear_365_716)"/>
<path d="M21.8123 65.7563C24.5397 64.6058 28.7963 63.4552 31.9648 64.8925C39.717 68.4139 42.7385 83.1905 45.6424 90.8766C50.6966 104.253 56.2433 117.493 59.717 131.409C59.7317 131.468 59.6728 131.538 59.5552 131.626C58.5664 132.872 53.4718 139.691 43.0914 137.588C42.5069 137.452 42.1247 137.147 42.0254 137.195C36.5485 126.057 31.634 114.001 25.2602 103.455C17.3572 90.3951 3.09888 73.6555 21.8123 65.7563Z" fill="url(#paint9_linear_365_716)"/>
<mask id="mask4_365_716" style="mask-type:luminance" maskUnits="userSpaceOnUse" x="12" y="64" width="48" height="74">
<path d="M21.8123 65.7583C24.5398 64.6078 28.7963 63.4573 31.9649 64.8945C39.7171 68.4159 42.7386 83.1925 45.6424 90.8786C50.6966 104.255 56.2434 117.495 59.717 131.411C59.7317 131.47 59.6729 131.54 59.5553 131.628C58.5665 132.874 53.4719 139.693 43.0915 137.59C42.507 137.454 42.1247 137.149 42.0255 137.197C36.5486 126.059 31.634 114.003 25.2602 103.457C17.3573 90.3971 3.09894 73.6576 21.8123 65.7583Z" fill="white"/>
</mask>
<g mask="url(#mask4_365_716)">
<path opacity="0.3" d="M71.2442 85.0556C54.4275 82.8207 37.5152 81.1629 20.6948 78.3362C7.12017 76.0499 -8.2446 64.8204 5.18303 54.8553C13.0529 49.0108 22.1357 49.5549 32.4867 51.8228C47.2744 55.0612 62.2018 62.1701 75.5963 70.2532C78.0775 74.8038 75.0597 83.9969 71.2442 85.0556Z" fill="#1B4341"/>
</g>
<mask id="mask5_365_716" style="mask-type:luminance" maskUnits="userSpaceOnUse" x="12" y="64" width="48" height="74">
<path d="M21.8123 65.7583C24.5398 64.6078 28.7963 63.4573 31.9649 64.8945C39.7171 68.4159 42.7386 83.1925 45.6424 90.8786C50.6966 104.255 56.2434 117.495 59.717 131.411C59.7317 131.47 59.6729 131.54 59.5553 131.628C58.5665 132.874 53.4719 139.693 43.0915 137.59C42.507 137.454 42.1247 137.149 42.0255 137.197C36.5486 126.059 31.634 114.003 25.2602 103.457C17.3573 90.3971 3.09894 73.6576 21.8123 65.7583Z" fill="white"/>
</mask>
<g mask="url(#mask5_365_716)">
<path d="M9.72255 74.2366C12.5235 78.9379 15.4127 83.5841 18.2908 88.234C21.0954 92.7625 23.9625 97.2691 26.576 101.912C28.9175 106.069 30.9796 110.373 33.0013 114.689C35.034 119.026 37.0263 123.382 39.2207 127.638C41.3821 131.825 43.7456 135.924 46.5282 139.732C46.8737 140.206 47.2266 140.673 47.5831 141.136C47.7265 141.32 48.0462 141.136 47.8992 140.952C45.0101 137.206 42.551 133.148 40.3308 128.973C38.0922 124.764 36.0853 120.438 34.0709 116.122C32.0529 111.799 30.0239 107.473 27.7486 103.279C25.238 98.6512 22.4077 94.1961 19.6398 89.719C16.7764 85.0912 13.8946 80.4744 11.0899 75.8098C10.7371 75.2254 10.3879 74.6409 10.0387 74.0528C9.91736 73.847 9.60125 74.0308 9.72255 74.2366Z" fill="#193534"/>
</g>
<path d="M79.21 62.4992C85.3008 61.9773 91.3291 60.7201 96.9677 58.3235C102.077 56.1548 103.378 54.1478 97.5669 51.6851C91.7591 49.2223 85.6831 49.2407 79.5445 50.1376C75.6666 50.7036 67.6387 52.5342 65.3009 56.1769C63.7607 58.5735 64.5951 59.6836 66.7381 61.7824C69.4655 64.4511 70.2007 63.76 73.7956 63.1719C75.5931 63.0212 77.4199 62.6536 79.21 62.4992Z" fill="url(#paint10_linear_365_716)"/>
<path d="M34.0935 62.4992C28.0027 61.9773 21.9744 60.7201 16.3321 58.3235C11.2228 56.1548 9.92152 54.1478 15.7329 51.6851C21.5407 49.2223 27.6167 49.2407 33.7553 50.1376C37.6332 50.7036 45.6612 52.5342 47.9953 56.1769C49.5354 58.5735 48.701 59.6836 46.558 61.7824C43.8306 64.4511 43.0955 63.76 39.5005 63.1719C37.7104 63.0212 35.8836 62.6536 34.0935 62.4992Z" fill="url(#paint11_linear_365_716)"/>
<path d="M38.1843 45.887C36.8757 47.1956 34.4239 49.1548 33.7733 50.7905C35.2436 51.6065 36.3868 52.5879 37.8608 53.404C39.004 54.22 45.0506 57.6532 46.3592 56.6717C47.8295 55.5286 44.4 48.1733 43.0914 47.1919C42.2754 46.3759 41.1286 45.5562 39.9854 45.7216C39.3311 45.7216 37.8608 46.2105 38.0262 46.5376" fill="url(#paint12_linear_365_716)"/>
<path d="M75.1186 45.8869C76.4272 47.1955 78.879 49.1546 79.5296 50.7904C78.0593 51.6064 76.9161 52.5878 75.4421 53.4039C74.2989 54.2199 68.2523 57.6531 66.9437 56.6716C65.4734 55.5285 68.9066 48.1732 70.2115 47.1918C71.0275 46.3758 72.1707 45.5561 73.3175 45.7215C73.9718 45.7215 75.4421 46.2103 75.2804 46.5375" fill="url(#paint13_linear_365_716)"/>
<path d="M34.5388 43.3878C34.9799 41.4948 36.5678 40.0686 38.5233 39.9657C42.019 39.7856 42.971 43.6341 43.3496 46.3652C43.8606 50.0447 40.6589 51.9304 37.2625 49.8535C35.1673 48.5744 33.9911 45.7661 34.5388 43.3878Z" fill="url(#paint14_radial_365_716)"/>
<path d="M40.3977 43.7669C39.589 42.9141 38.0672 41.6166 36.7844 41.793C36.5418 41.8261 36.505 42.1018 36.6594 42.2525C37.3431 42.9288 38.3576 43.2891 39.1479 43.8662C38.7803 44.2925 38.5157 44.7777 38.3466 45.3328C38.1407 46.0091 38.0011 47.0494 38.5635 47.575C38.6627 47.6669 38.8208 47.6044 38.8686 47.4941C39.1295 46.906 38.898 46.1672 39.0376 45.5276C39.1369 45.0718 39.3648 44.6417 39.589 44.219C40.4896 45.0203 41.199 46.1121 41.0189 47.3545C40.9454 47.8544 41.7026 47.9573 41.7908 47.4647C42.0518 46.0238 41.3681 44.7888 40.3977 43.7669Z" fill="#FFA78D"/>
<g opacity="0.5">
<path d="M35.336 43.582C35.3985 43.2107 35.5418 42.8689 35.7808 42.5932C36.9423 41.2699 38.9971 42.8321 40.019 43.6922C40.7247 44.284 41.4856 45.192 41.4121 46.1771C41.3533 46.949 40.6549 47.3239 40.5409 48.1069C40.4821 48.5259 40.3976 49.0552 40.5703 49.4412C37.8943 48.8971 34.7993 46.7505 35.336 43.582Z" fill="#FF7133"/>
<path d="M35.336 43.582C35.3985 43.2107 35.5418 42.8689 35.7808 42.5932C36.9423 41.2699 38.9971 42.8321 40.019 43.6922C40.7247 44.284 41.4856 45.192 41.4121 46.1771C41.3533 46.949 40.6549 47.3239 40.5409 48.1069C40.4821 48.5259 40.3976 49.0552 40.5703 49.4412C37.8943 48.8971 34.7993 46.7505 35.336 43.582Z" fill="url(#paint15_radial_365_716)"/>
</g>
<path d="M79.2538 43.3878C78.8127 41.4948 77.2248 40.0686 75.2693 39.9657C71.7736 39.7856 70.8216 43.6341 70.443 46.3652C69.932 50.0447 73.1337 51.9304 76.5301 49.8535C78.6253 48.5744 79.8052 45.7661 79.2538 43.3878Z" fill="url(#paint16_radial_365_716)"/>
<path d="M73.3947 43.7669C74.2034 42.9141 75.7251 41.6166 77.008 41.793C77.2506 41.8261 77.2873 42.1018 77.133 42.2525C76.4493 42.9288 75.4347 43.2891 74.6408 43.8662C75.0084 44.2925 75.273 44.7777 75.4421 45.3328C75.6479 46.0091 75.7876 47.0494 75.2252 47.575C75.126 47.6669 74.9679 47.6044 74.9201 47.4941C74.6592 46.906 74.8907 46.1672 74.751 45.5276C74.6518 45.0718 74.4239 44.6417 74.1997 44.219C73.2991 45.0203 72.5897 46.1121 72.7735 47.3545C72.847 47.8544 72.0898 47.9573 72.0016 47.4647C71.7406 46.0238 72.4243 44.7888 73.3947 43.7669Z" fill="#FFA78D"/>
<g opacity="0.5">
<path d="M78.456 43.582C78.3935 43.2107 78.2501 42.8689 78.0112 42.5932C76.8533 41.2699 74.7949 42.8321 73.7767 43.6922C73.0673 44.284 72.31 45.192 72.3836 46.1771C72.4424 46.949 73.1408 47.3239 73.251 48.1069C73.3099 48.5259 73.3944 49.0552 73.2216 49.4412C75.8976 48.8971 78.9926 46.7505 78.456 43.582Z" fill="#FF7133"/>
<path d="M78.456 43.582C78.3935 43.2107 78.2501 42.8689 78.0112 42.5932C76.8533 41.2699 74.7949 42.8321 73.7767 43.6922C73.0673 44.284 72.31 45.192 72.3836 46.1771C72.4424 46.949 73.1408 47.3239 73.251 48.1069C73.3099 48.5259 73.3944 49.0552 73.2216 49.4412C75.8976 48.8971 78.9926 46.7505 78.456 43.582Z" fill="url(#paint17_radial_365_716)"/>
</g>
<path d="M70.8879 24.7857C69.6712 26.8331 63.8671 28.3806 56.8868 28.3806C49.9102 28.3806 44.1025 26.8294 42.8858 24.7857C38.0926 31.7256 39.7062 43.0066 41.6581 50.6853C43.382 57.4781 49.3846 64.1827 55.8172 65.2818C56.6075 65.4178 57.1699 65.4178 57.9602 65.2818C64.3891 64.1827 70.3917 57.4781 72.1156 50.6853C74.0674 43.0066 75.6811 31.7219 70.8879 24.7857Z" fill="url(#paint18_radial_365_716)"/>
<path opacity="0.5" d="M57.4529 35.7651C64.2049 35.7651 69.6785 32.3964 69.6785 28.2408C69.6785 24.0852 64.2049 20.7165 57.4529 20.7165C50.7008 20.7165 45.2272 24.0852 45.2272 28.2408C45.2272 32.3964 50.7008 35.7651 57.4529 35.7651Z" fill="url(#paint19_radial_365_716)"/>
<mask id="mask6_365_716" style="mask-type:luminance" maskUnits="userSpaceOnUse" x="39" y="24" width="36" height="42">
<path d="M70.8879 24.7857C69.6712 26.8331 63.8671 28.3806 56.8868 28.3806C49.9102 28.3806 44.1025 26.8294 42.8858 24.7857C38.0926 31.7256 39.7062 43.0066 41.6581 50.6853C43.382 57.4781 49.3846 64.1827 55.8172 65.2818C56.6075 65.4178 57.1699 65.4178 57.9602 65.2818C64.3891 64.1827 70.3917 57.4781 72.1156 50.6853C74.0674 43.0066 75.6811 31.7219 70.8879 24.7857Z" fill="white"/>
</mask>
<g mask="url(#mask6_365_716)">
<path opacity="0.5" d="M45.3268 61.5903C49.2819 61.5168 52.4321 58.249 52.3549 54.2939C52.2814 50.3387 49.0136 47.1923 45.0585 47.2658C41.1033 47.3393 37.9569 50.6071 38.0304 54.5622C38.1039 58.5137 41.3717 61.6602 45.3268 61.5903Z" fill="url(#paint20_radial_365_716)"/>
</g>
<mask id="mask7_365_716" style="mask-type:luminance" maskUnits="userSpaceOnUse" x="39" y="24" width="36" height="42">
<path d="M70.8879 24.7857C69.6712 26.8331 63.8671 28.3806 56.8868 28.3806C49.9102 28.3806 44.1025 26.8294 42.8858 24.7857C38.0926 31.7256 39.7062 43.0066 41.6581 50.6853C43.382 57.4781 49.3846 64.1827 55.8172 65.2818C56.6075 65.4178 57.1699 65.4178 57.9602 65.2818C64.3891 64.1827 70.3917 57.4781 72.1156 50.6853C74.0674 43.0066 75.6811 31.7219 70.8879 24.7857Z" fill="white"/>
</mask>
<g mask="url(#mask7_365_716)">
<path opacity="0.5" d="M69.465 61.5903C73.4201 61.5168 76.5703 58.249 76.4931 54.2939C76.4196 50.3387 73.1518 47.1923 69.1967 47.2658C65.2415 47.3393 62.095 50.6071 62.1686 54.5622C62.2421 58.5137 65.5098 61.6602 69.465 61.5903Z" fill="url(#paint21_radial_365_716)"/>
</g>
<path d="M43.713 40.4372C43.6652 40.4225 43.6211 40.4004 43.577 40.371C42.6029 39.6983 46.5654 37.4304 47.0543 37.1915C48.4768 36.4967 50.9212 35.5337 52.5055 36.3203C53.2627 36.6952 53.0679 37.9229 52.1122 37.8825C50.6712 37.8237 49.4913 38.0075 48.1239 38.4743C47.2711 38.7647 46.4147 39.0918 45.6465 39.5366C45.2421 39.7682 44.3158 40.632 43.713 40.4372Z" fill="#1B4341"/>
<path d="M53.1413 38.7906C52.193 37.1659 50.5095 36.2947 48.0504 37.3423C46.9697 37.8055 45.8559 38.4046 45.0215 39.2501C44.4738 39.8014 43.2535 40.985 43.2314 41.7864C43.1653 44.5947 46.3228 46.359 48.44 47.4066C51.1527 48.7483 52.8105 48.1749 53.7295 45.0137C54.3176 43.0104 54.1338 40.4888 53.1413 38.7906Z" fill="url(#paint22_linear_365_716)"/>
<path d="M70.061 40.4372C70.1088 40.4225 70.1529 40.4004 70.197 40.371C71.1711 39.6983 67.2086 37.4304 66.7197 37.1915C65.2972 36.4967 62.8528 35.5337 61.2685 36.3203C60.5113 36.6952 60.7061 37.9229 61.6618 37.8825C63.0991 37.8237 64.2827 38.0075 65.6501 38.4743C66.5028 38.7647 67.3593 39.0918 68.1275 39.5366C68.5319 39.7682 69.4582 40.632 70.061 40.4372Z" fill="#1B4341"/>
<path d="M60.9194 39.0331C62.25 37.4819 63.974 36.5961 65.7237 37.3423C66.8043 37.8054 67.9181 38.4046 68.7525 39.25C69.3002 39.8014 70.5205 40.985 70.5426 41.7863C70.5757 43.2419 68.7598 45.7267 67.4219 46.2597C66.819 46.4986 66.0434 46.2671 65.4884 46.6163C64.6797 47.1309 65.2017 47.9395 63.9078 48.3733C63.3822 48.5497 62.1067 48.3035 61.559 48.263C60.1622 48.1674 59.3793 48.4983 58.758 46.9728C57.9089 44.8887 59.0043 41.268 60.9194 39.0331Z" fill="url(#paint23_linear_365_716)"/>
<path d="M53.5714 58.8687C53.3803 59.0341 53.2039 59.2105 53.0385 59.3906C54.9462 57.2587 57.7545 55.8656 60.5223 57.3469C60.7245 57.4535 60.5554 57.7659 60.3533 57.6557C58.2764 56.5493 55.3689 57.3101 53.5714 58.8687Z" fill="#FFA78D"/>
<g opacity="0.5">
<path d="M60.4415 57.9894C60.368 58.6951 59.2873 59.3972 57.9457 59.3825C56.4312 59.3678 53.4833 58.4966 52.3879 59.9817C53.6229 58.3055 56.4643 56.3096 58.622 56.6882C59.9967 56.9308 60.5003 57.4601 60.4415 57.9894Z" fill="#FFA78D"/>
</g>
<g opacity="0.7">
<path d="M58.5372 61.4287C58.6034 61.5868 58.0778 61.9029 57.3536 61.7779C56.6295 61.6566 56.1921 61.1494 56.2987 61.017C56.3979 60.8774 56.8868 61.0685 57.4419 61.1641C58.0006 61.2707 58.4784 61.2633 58.5372 61.4287Z" fill="#FFE7E1"/>
</g>
<path opacity="0.5" d="M56.126 62.0469C56.9273 62.3777 58.2874 62.5762 58.4454 61.8411C58.3425 62.3189 58.008 62.7968 57.611 63.0798C57.3978 63.2305 57.1883 63.2673 56.9898 63.2305C56.4568 63.1276 56.0084 62.4182 55.7584 61.9808C55.7106 61.8999 55.6812 61.808 55.6261 61.7565C55.7253 61.8521 55.9055 61.955 56.126 62.0469Z" fill="url(#paint24_radial_365_716)"/>
<path d="M57.938 44.3309C57.2286 47.0143 58.7798 48.6647 60.1618 50.5651C60.489 51.0135 60.4853 51.6421 60.2685 52.1383C59.8715 53.0499 58.3681 53.9247 57.4712 54.2629C57.0191 53.0793 56.9749 51.9839 56.6993 50.7709C56.453 49.6829 56.1479 48.3963 56.7581 47.3708C57.0301 46.915 57.3977 46.7239 57.5888 46.2423C57.8057 45.691 57.7836 44.9227 57.938 44.3309Z" fill="#FFB498"/>
<path opacity="0.3" d="M59.3091 49.9477C59.8458 50.6057 60.6324 51.2232 59.7318 52.0025C57.5337 53.9029 57.78 48.3083 57.8755 47.2607C58.1512 44.2062 58.7982 40.9972 61.3455 38.9939C59.7575 40.24 58.6144 44.015 58.5188 45.9375C58.4673 46.9703 58.5592 48.5473 59.004 49.4919C59.0812 49.6463 59.1878 49.797 59.3091 49.9477Z" fill="#FFE7E1"/>
<path opacity="0.5" d="M60.037 51.0946C60.1215 51.0358 60.026 50.7859 59.8275 50.5396C59.629 50.2933 59.3974 50.1426 59.3129 50.2014C59.232 50.2602 59.3239 50.5102 59.5224 50.7565C59.7246 51.0064 59.9561 51.1571 60.037 51.0946Z" fill="white"/>
<path d="M55.9606 52.7876C56.1003 52.7619 56.1959 52.7472 56.3392 52.7435C56.3981 52.7398 56.4532 52.7435 56.512 52.7472C56.5267 52.7472 56.5414 52.7508 56.5561 52.7508C56.5929 52.7545 56.5451 52.7472 56.5671 52.7508C56.5965 52.7545 56.6223 52.7619 56.6517 52.7692C56.6774 52.7766 56.7031 52.7839 56.7252 52.7913C56.7399 52.7949 56.7509 52.8023 56.7656 52.806C56.7767 52.8096 56.8024 52.8207 56.7767 52.8096C56.8318 52.8354 56.8833 52.8648 56.9347 52.8979C56.9862 52.9309 57.0119 52.953 57.067 53.0045C57.1222 53.0559 57.17 53.1111 57.2178 53.1662C57.2802 53.2434 57.4126 53.2324 57.4787 53.1662C57.5522 53.0927 57.5412 52.9824 57.4787 52.9052C57.2876 52.6773 57.045 52.4862 56.7509 52.4163C56.4569 52.3465 56.1555 52.3833 55.8614 52.4347C55.7621 52.4531 55.707 52.5707 55.7327 52.6626C55.7621 52.7619 55.8614 52.8023 55.9606 52.7876Z" fill="#FFA78D"/>
<path d="M52.0199 45.0474C52.0273 46.4699 51.781 47.8116 51.3509 48.385C49.9762 50.2266 45.0396 49.1753 44.3964 47.0103C43.7825 44.9445 48.0464 39.9675 50.1894 40.4747C51.4686 40.7761 52.0089 42.9926 52.0199 45.0474Z" fill="url(#paint25_linear_365_716)"/>
<mask id="mask8_365_716" style="mask-type:luminance" maskUnits="userSpaceOnUse" x="44" y="40" width="9" height="10">
<path d="M52.02 45.0474C52.0273 46.4699 51.7811 47.8116 51.351 48.385C49.9763 50.2266 45.0397 49.1753 44.3964 47.0103C43.7826 44.9445 48.0465 39.9675 50.1895 40.4747C51.4686 40.7761 52.009 42.9926 52.02 45.0474Z" fill="white"/>
</mask>
<g mask="url(#mask8_365_716)">
<path opacity="0.3" d="M50.2299 41.7102C50.2776 40.5303 50.2593 39.3467 50.2409 38.2219C50.2409 38.1447 50.2372 38.1447 50.2372 38.2219C50.1857 40.2252 50.8327 42.3424 50.9135 44.3641C50.9577 45.5146 50.8915 46.6578 50.9356 47.801C50.9871 49.1647 50.3732 48.9515 49.0683 48.9184C48.9948 47.937 49.5168 46.6909 49.7447 45.7205C50.0424 44.445 50.1747 43.0813 50.2299 41.7102Z" fill="#FFE7E1"/>
</g>
<path d="M43.8964 46.7536C45.0248 48.4261 47.9875 50.0141 50.0313 49.9589C50.6782 49.9405 52.7954 49.0326 51.8949 48.0071C51.5567 47.6248 50.9061 48.3453 50.4687 48.5033C49.6012 48.8194 48.6087 48.7827 47.7082 48.6577C46.293 48.4666 45.1278 47.5366 44.1684 46.5405C44.0361 46.4044 43.7861 46.5882 43.8964 46.7536Z" fill="#1B4341"/>
<path d="M61.7571 45.0475C61.7498 46.47 61.996 47.8117 62.4261 48.3851C63.8009 50.2267 68.7374 49.1754 69.3807 47.0104C69.9945 44.9446 65.7306 39.9676 63.5877 40.4748C62.3048 40.7763 61.7681 42.9928 61.7571 45.0475Z" fill="url(#paint26_linear_365_716)"/>
<mask id="mask9_365_716" style="mask-type:luminance" maskUnits="userSpaceOnUse" x="61" y="40" width="9" height="10">
<path d="M61.7569 45.0475C61.7496 46.47 61.9959 47.8117 62.4259 48.3851C63.8007 50.2267 68.7372 49.1754 69.3805 47.0104C69.9944 44.9446 65.7305 39.9676 63.5875 40.4748C62.3046 40.7763 61.768 42.9928 61.7569 45.0475Z" fill="white"/>
</mask>
<g mask="url(#mask9_365_716)">
<path opacity="0.3" d="M63.5434 41.7103C63.4993 40.5304 63.514 39.3468 63.5324 38.222C63.5324 38.1448 63.5361 38.1448 63.5398 38.222C63.5912 40.2253 62.9443 42.3426 62.8634 44.3642C62.8193 45.5148 62.8855 46.6579 62.8414 47.8011C62.7899 49.1648 63.4038 48.9516 64.7087 48.9185C64.7822 47.9371 64.2602 46.691 64.0323 45.7206C63.7309 44.4451 63.5986 43.0814 63.5434 41.7103Z" fill="#FFE7E1"/>
</g>
<path d="M69.877 46.7529C68.7449 48.4253 65.7859 50.0133 63.7421 49.9581C63.0952 49.9398 60.9779 49.0318 61.8785 48.0063C62.2167 47.624 62.8673 48.3445 63.3047 48.5025C64.1722 48.8186 65.1647 48.7819 66.0652 48.6569C67.4804 48.4658 68.6456 47.5358 69.605 46.5397C69.741 46.4037 69.9873 46.5874 69.877 46.7529Z" fill="#1B4341"/>
<path d="M73.7074 42.225C73.6964 42.2691 73.6817 42.3095 73.6743 42.3426C73.6853 42.3022 73.6964 42.2617 73.7074 42.225Z" fill="url(#paint27_linear_365_716)"/>
<path d="M73.6743 42.3427C73.6596 42.3905 73.6449 42.4383 73.6265 42.4897C73.6412 42.453 73.6559 42.4015 73.6743 42.3427Z" fill="url(#paint28_linear_365_716)"/>
<path d="M75.7585 25.2942C74.6778 23.8606 73.5052 24.3311 72.2959 24.8567C71.7592 25.0883 71.2152 25.3309 70.6712 25.4228C69.3148 25.647 67.8813 24.6987 67.385 26.6248C66.8373 28.7494 69.4324 32.2928 70.5572 33.9543C71.1049 34.7666 71.7592 35.6488 72.3437 36.5788H72.34C72.4025 36.6781 72.4613 36.7663 72.5127 36.8508C72.5385 36.8913 72.5605 36.9317 72.5826 36.9721C72.6745 37.1302 72.737 37.2552 72.759 37.3434C73.3986 39.7584 72.3584 44.4597 71.4799 46.8269C71.9099 46.9519 72.7921 46.9813 73.2295 46.9114C73.4023 46.1726 74.369 40.9787 75.1409 36.4171C75.3027 35.6599 75.4607 34.9027 75.6114 34.1454C76.0819 31.8076 77.2913 27.3269 75.7585 25.2942Z" fill="url(#paint29_linear_365_716)"/>
<path d="M80.3568 29.0906C79.6988 27.1461 78.5777 25.345 77.3133 23.735C76.6516 22.8932 75.9128 22.1066 75.1041 21.4045C74.8431 21.1766 74.5674 20.9634 74.2807 20.7649C74.924 20.9487 75.5562 21.1766 76.1811 21.4045C76.3943 21.4817 76.5965 21.2171 76.4384 21.0406C73.1523 17.3722 68.3186 14.8837 63.3526 14.7514C64.2679 13.9464 65.2199 13.1818 66.1536 12.3952C66.308 12.2629 66.2234 12.0092 66.0249 11.9872C60.4708 11.377 55.2181 13.5714 50.0757 15.3726C50.5609 14.4977 51.0535 13.6303 51.5534 12.7664C51.6416 12.6157 51.5387 12.3364 51.3218 12.4062C46.5653 13.9096 42.3455 17.9419 41.603 22.9741C41.5405 23.0439 41.4744 23.1138 41.4119 23.1799C40.3827 23.6541 39.3865 24.1834 38.5154 24.9259C38.5117 24.9296 38.508 24.9333 38.5043 24.937C37.023 26.2014 35.4682 27.9989 35.0381 29.7228C35.1337 29.3479 37.4457 29.2891 37.7912 29.2817C37.3796 29.2928 40.3496 45.5691 40.6657 46.9181C41.1031 46.988 41.9853 46.9586 42.4154 46.8336C41.5405 44.4664 40.5003 39.7614 41.1362 37.3501C41.4045 36.3429 46.5984 30.3477 45.6537 29.4765C51.252 34.6557 57.7912 34.8726 64.2826 31.3034C66.047 30.333 67.6937 29.1494 69.2155 27.8335C71.8952 25.5104 74.4425 26.3815 77.6772 27.6423C78.4748 27.9511 79.6253 28.4106 79.9378 29.2964C80.037 29.5684 80.4487 29.3663 80.3568 29.0906Z" fill="url(#paint30_linear_365_716)"/>
<path opacity="0.7" d="M59.9489 40.6692C60.3091 40.0149 60.7172 39.3643 61.1509 38.7247C61.1656 38.71 61.1656 38.71 61.1509 38.7284C59.7982 40.3604 59.427 42.6578 59.1255 44.6832C58.7249 47.3555 60.2136 48.6714 61.6471 50.6453C62.919 52.3986 60.4121 53.9535 58.9491 54.2659C60.4966 53.0382 61.7537 51.9502 60.1658 49.9873C57.6589 46.8813 58.2838 43.7054 59.9489 40.6692Z" fill="#FFA78D"/>
<mask id="mask10_365_716" style="mask-type:luminance" maskUnits="userSpaceOnUse" x="35" y="11" width="46" height="36">
<path d="M80.3572 29.0891C79.6992 27.1446 78.5781 25.3435 77.3136 23.7335C76.652 22.8918 75.9132 22.1051 75.1045 21.4031C74.8435 21.1752 74.5678 20.962 74.2811 20.7635C74.9244 20.9473 75.5566 21.1752 76.1815 21.4031C76.3947 21.4803 76.5968 21.2156 76.4388 21.0392C73.1526 17.3707 68.319 14.8822 63.353 14.7499C64.2683 13.9449 65.2203 13.1803 66.1539 12.3937C66.3083 12.2614 66.2238 12.0078 66.0253 11.9857C60.4712 11.3755 55.2185 13.57 50.0761 15.3711C50.5613 14.4963 51.0538 13.6288 51.5537 12.765C51.642 12.6143 51.539 12.3349 51.3222 12.4047C46.5657 13.9081 42.3459 17.9405 41.6034 22.9726C41.5409 23.0425 41.4747 23.1123 41.4123 23.1785C40.383 23.6526 39.3869 24.182 38.5157 24.9245C38.5121 24.9281 38.5084 24.9318 38.5047 24.9355C37.0234 26.2 35.4685 27.9974 35.0385 29.7214C35.134 29.3464 37.4461 29.2876 37.7916 29.2803C37.3799 29.2913 40.35 45.5677 40.6661 46.9167C41.1035 46.9865 41.9857 46.9571 42.4157 46.8321C41.5409 44.4649 40.5007 39.7599 41.1366 37.3486C41.4049 36.3414 46.5988 30.3462 45.6541 29.4751C51.2523 34.6543 57.7915 34.8711 64.283 31.3019C66.0474 30.3315 67.6941 29.1479 69.2159 27.832C71.8955 25.5089 74.4428 26.3801 77.6775 27.6409C78.4752 27.9496 79.6257 28.4091 79.9381 29.295C80.0374 29.567 80.4491 29.3648 80.3572 29.0891Z" fill="white"/>
</mask>
<g mask="url(#mask10_365_716)">
<path opacity="0.5" d="M74.2552 25.778C73.8215 25.8184 73.3694 25.7927 72.8989 25.675C71.0353 25.2229 69.5061 22.3632 67.5837 22.6388C65.5473 22.9329 65.3599 26.583 62.8125 26.7888C60.5777 26.9689 60.6843 25.0759 59.4455 23.9952C57.3283 22.1426 56.7585 23.0248 54.2039 23.7342C50.4729 24.7708 48.8997 23.9732 48.5689 19.9592C48.5027 19.1542 48.7821 18.3345 48.5285 17.5332C48.2123 16.5334 46.7641 14.225 45.5474 14.1184C44.9041 14.0596 44.0513 14.5558 43.8712 15.1954C43.5478 16.3386 44.18 15.9379 44.6358 16.6216C45.6834 18.1838 45.7606 18.4852 45.9113 20.4885C46.1061 22.9991 47.7382 26.2632 50.3553 26.8733C52.8879 27.4615 55.0971 25.2928 57.5709 27.0461C59.6183 28.4944 60.5299 30.3286 63.3014 28.6157C65.3158 27.3696 65.4995 24.973 68.3887 26.583C71.0757 28.079 71.3146 31.3247 75.1521 28.9832C77.0672 27.8143 77.8465 25.4913 78.9198 23.6644C77.4127 24.4804 75.9498 25.6273 74.2552 25.778Z" fill="url(#paint31_linear_365_716)"/>
</g>
<path opacity="0.5" d="M46.87 50.9948C46.7451 51.3734 46.179 51.5241 45.6019 51.3366C45.0285 51.1455 44.6609 50.686 44.7859 50.3074C44.9109 49.9288 45.4806 49.7781 46.054 49.9655C46.6311 50.153 46.995 50.6161 46.87 50.9948Z" fill="url(#paint32_linear_365_716)"/>
<path opacity="0.5" d="M67.6639 50.9948C67.7888 51.3734 68.3549 51.5241 68.932 51.3366C69.5054 51.1455 69.873 50.686 69.748 50.3074C69.6231 49.9288 69.0533 49.7781 68.4799 49.9655C67.9028 50.153 67.5352 50.6161 67.6639 50.9948Z" fill="url(#paint33_linear_365_716)"/>
<path d="M36.1703 85.9369C37.24 86.6132 38.4603 87.1021 37.8097 88.6349C37.4973 89.3737 37.1481 90.1273 37.0157 90.9249C36.9569 91.2888 36.8724 92.4761 37.2914 92.6709C37.9788 92.987 38.8794 91.0205 39.133 90.572C39.5667 89.8038 39.949 88.9951 40.2504 88.1644C40.2835 88.1423 40.3166 88.1129 40.3386 88.0725C41.309 86.1243 42.9374 84.9407 44.2864 83.3013C45.3598 81.9964 46.2714 80.6364 47.0286 79.1293C47.0764 79.0301 47.0543 78.9418 47.0028 78.8794C46.9992 78.872 46.9955 78.8647 46.9881 78.861C46.9661 78.8352 46.944 78.8132 46.9109 78.7985C45.9405 78.2912 44.9738 77.784 44.0034 77.2767C43.0771 76.7915 40.9599 78.2802 40.1107 78.7654C38.5743 79.6402 35.5895 81.3385 35.0014 83.1212C34.4831 84.6687 35.2734 85.3671 36.1703 85.9369ZM29.3554 89.5943C29.3664 89.6016 29.3811 89.6016 29.3922 89.6053C29.3811 89.6053 29.3664 89.6016 29.3554 89.5943ZM37.126 91.7961C37.1407 91.785 37.1554 91.7703 37.1664 91.7556C37.1664 91.7593 37.1664 91.763 37.1664 91.7666C37.1554 91.7777 37.1407 91.7887 37.126 91.7961Z" fill="url(#paint34_radial_365_716)"/>
<path d="M52.4577 72.4576C52.4504 72.4502 52.4467 72.4392 52.4393 72.4282C52.4099 72.3951 52.3768 72.3657 52.3327 72.3436C50.9947 71.6416 49.6568 70.9432 48.3225 70.2448C47.0433 69.5758 44.1174 71.6342 42.9448 72.2995C40.074 73.9316 37.2289 75.8393 35.0823 78.3866C32.5791 81.3567 30.5059 84.6502 27.6315 87.293C27.4624 87.4474 27.558 87.7415 27.7454 87.8297C28.499 88.1863 29.2378 88.0319 29.9472 87.69C29.9288 87.7562 29.9105 87.8187 29.8884 87.8848C29.6385 88.7009 29.0614 89.7007 29.1753 90.5718C29.1974 90.7299 29.2525 90.8622 29.3481 90.9652C29.995 91.6452 31.9468 88.8663 32.2997 88.3664C32.4725 88.1238 32.6673 87.8922 32.8695 87.668C32.7812 87.9032 32.7004 88.1385 32.6416 88.3701C32.5239 88.8369 32.1711 89.9102 32.3438 90.5498C32.3843 90.7005 32.4578 90.8291 32.5681 90.9174C33.2959 91.5092 34.8801 88.5061 35.1705 87.9657C35.2771 87.7709 35.3947 87.5798 35.5197 87.3923C35.5013 87.4842 35.4756 87.5761 35.4609 87.668C35.38 88.1422 35.1117 89.2375 35.3359 89.8624C35.3874 90.0094 35.4682 90.1344 35.5859 90.2153C36.3578 90.752 37.7068 87.6349 37.9531 87.0762C38.4089 86.0359 39.2212 85.0839 39.6476 84.0767C39.677 84.0032 39.7064 83.9297 39.7358 83.8562C39.7358 83.8599 39.7395 83.8635 39.7395 83.8635C40.8459 81.3934 42.4486 80.0775 44.904 78.8498C45.1833 78.7101 45.4627 78.5667 45.7384 78.4234C47.3116 77.6 49.1973 76.7288 50.5095 75.5122C50.9433 75.1115 51.355 74.6851 51.7189 74.2403C51.9909 73.7698 52.2482 73.2883 52.4981 72.7994C52.5643 72.6671 52.5312 72.5458 52.4577 72.4576Z" fill="url(#paint35_radial_365_716)"/>
<mask id="mask11_365_716" style="mask-type:luminance" maskUnits="userSpaceOnUse" x="27" y="70" width="26" height="22">
<path d="M52.458 72.4595C52.4506 72.4521 52.4469 72.4411 52.4396 72.4301C52.4102 72.397 52.3771 72.3676 52.333 72.3455C50.995 71.6435 49.657 70.9451 48.3227 70.2467C47.0435 69.5777 44.1176 71.6361 42.945 72.3014C40.0742 73.9335 37.2292 75.8412 35.0825 78.3885C32.5793 81.3586 30.5062 84.652 27.6317 87.2949C27.4626 87.4493 27.5582 87.7434 27.7457 87.8316C28.4992 88.1882 29.238 88.0338 29.9475 87.6919C29.9291 87.7581 29.9107 87.8206 29.8887 87.8867C29.6387 88.7028 29.0616 89.7026 29.1756 90.5737C29.1976 90.7318 29.2527 90.8641 29.3483 90.967C29.9952 91.6471 31.9471 88.8682 32.3 88.3683C32.4727 88.1257 32.6675 87.8941 32.8697 87.6699C32.7815 87.9051 32.7006 88.1404 32.6418 88.3719C32.5242 88.8388 32.1713 89.9121 32.3441 90.5517C32.3882 90.7024 32.458 90.831 32.5683 90.9193C33.2961 91.5111 34.8804 88.5079 35.1708 87.9676C35.2774 87.7728 35.395 87.5816 35.52 87.3942C35.5016 87.4861 35.4758 87.578 35.4611 87.6699C35.3803 88.144 35.1119 89.2394 35.3362 89.8643C35.3876 90.0113 35.4685 90.1363 35.5861 90.2172C36.358 90.7538 37.707 87.6368 37.9533 87.0744C38.6701 85.435 39.7986 83.9353 40.633 82.3804C41.5188 80.73 43.2795 79.664 44.9079 78.8517C45.1873 78.712 45.4666 78.5686 45.7423 78.4253C47.3155 77.6019 49.2012 76.7307 50.5135 75.5141C50.9472 75.1134 51.3589 74.687 51.7228 74.2422C51.9948 73.7717 52.2521 73.2902 52.5021 72.8013C52.5646 72.669 52.5315 72.5477 52.458 72.4595Z" fill="white"/>
</mask>
<g mask="url(#mask11_365_716)">
<path opacity="0.5" d="M38.8757 80.9606C38.9051 80.99 38.85 81.1076 38.736 81.273C38.6221 81.4384 38.4456 81.6442 38.2692 81.8869C38.181 82.0045 37.6847 82.5926 37.1701 83.5262C36.6445 84.4525 36.1189 85.7244 35.6851 87.0035C35.2477 88.2827 34.8801 89.5729 34.5824 90.5249C34.292 91.4806 34.0715 92.1018 34.0715 92.1018C33.8693 92.6789 33.8583 92.6753 34.042 92.0908C34.042 92.0908 34.2442 91.4623 34.5125 90.5029C34.7846 89.5435 35.1154 88.2459 35.5234 86.9484C35.9277 85.6508 36.4276 84.357 36.9386 83.3976C37.4385 82.4309 37.9347 81.8133 38.0266 81.692C38.2104 81.4421 38.4199 81.2509 38.578 81.1186C38.7323 80.9936 38.8463 80.9311 38.8757 80.9606Z" fill="url(#paint36_linear_365_716)"/>
<path opacity="0.5" d="M37.2952 79.7512C37.3356 79.7879 37.2731 79.9349 37.1408 80.1481C37.0084 80.3613 36.8026 80.6297 36.5821 80.9384C36.4718 81.0891 35.88 81.8427 35.2073 82.9932C34.531 84.14 33.7921 85.6839 33.1599 87.2534C32.524 88.8193 31.991 90.3999 31.6014 91.5798C31.2154 92.7634 30.9581 93.5464 30.9581 93.5464C30.7229 94.2742 30.7082 94.2668 30.925 93.5353C30.925 93.5353 31.1603 92.7451 31.5131 91.5541C31.8771 90.3631 32.3659 88.7642 32.9651 87.1762C33.5569 85.5883 34.2626 84.0114 34.9206 82.8315C35.5749 81.6515 36.163 80.8649 36.277 80.7105C36.5012 80.3944 36.7475 80.1445 36.9349 79.9754C37.1224 79.8026 37.2547 79.7144 37.2952 79.7512Z" fill="url(#paint37_linear_365_716)"/>
<path opacity="0.5" d="M34.1413 80.6995C34.2222 80.762 33.9355 81.2913 33.5054 81.8794C33.3841 82.0191 32.8622 82.7837 32.1491 83.857C31.8182 84.4121 31.4249 85.0333 31.0427 85.7096C30.6824 86.397 30.256 87.1027 29.9179 87.8452C29.7414 88.2128 29.565 88.5767 29.3886 88.9369C29.2231 89.3008 29.0761 89.6611 28.9254 90.0103C28.7821 90.3595 28.624 90.6903 28.51 91.0138C28.3924 91.3372 28.2821 91.6423 28.1792 91.9254C28.08 92.2084 27.9771 92.462 27.9035 92.6973C27.8337 92.9288 27.7749 93.1347 27.7271 93.3001C27.6279 93.6346 27.5727 93.8257 27.5727 93.8257C27.3632 94.5315 27.3485 94.5315 27.5396 93.8184C27.5396 93.8184 27.5911 93.6272 27.6793 93.2891C27.7234 93.12 27.7786 92.9141 27.841 92.6789C27.9072 92.4436 28.0028 92.1863 28.0947 91.8996C28.1902 91.6129 28.2932 91.3041 28.4034 90.977C28.51 90.6462 28.6608 90.3117 28.7931 89.9588C28.9328 89.6059 29.0724 89.2384 29.2305 88.8708C29.3959 88.5069 29.565 88.1356 29.7341 87.7607C30.0539 87.0072 30.4619 86.2904 30.8111 85.5846C31.1823 84.8936 31.5609 84.2613 31.8807 83.6953C32.5755 82.5962 33.0827 81.8096 33.2077 81.6699C33.6414 81.0671 34.0605 80.637 34.1413 80.6995Z" fill="url(#paint38_linear_365_716)"/>
</g>
<path d="M48.3297 81.3596C62.8307 79.4335 77.4162 78.0036 91.9208 75.5665C103.624 73.5963 116.876 63.9106 105.297 55.3167C98.5078 50.2772 90.6784 50.7477 81.7536 52.7032C69.0023 55.4968 56.1297 61.628 44.5804 68.5973C42.4374 72.5193 45.0362 80.448 48.3297 81.3596Z" fill="url(#paint39_linear_365_716)"/>
<path d="M47.5617 76.214C62.0627 74.2879 76.6482 72.858 91.1528 70.421C98.8646 69.1234 107.245 64.4736 108.756 58.9966C113.134 66.4916 101.941 73.8725 91.888 75.5671C77.3833 78.0078 62.7978 79.434 48.2969 81.3601C45.676 80.6323 43.5 75.4678 43.794 71.4098C44.6137 73.799 46.0105 75.7839 47.5617 76.214Z" fill="#CDE5FF"/>
<mask id="mask12_365_716" style="mask-type:luminance" maskUnits="userSpaceOnUse" x="43" y="51" width="67" height="31">
<path d="M48.2974 81.3629C62.7984 79.4368 77.3839 78.0069 91.8885 75.5699C103.592 73.5997 116.843 63.914 105.265 55.32C98.4755 50.2805 90.6461 50.751 81.7213 52.7065C68.97 55.5001 56.0974 61.6313 44.5481 68.6006C42.4051 72.5227 45.0039 80.4513 48.2974 81.3629Z" fill="white"/>
</mask>
<g mask="url(#mask12_365_716)">
<path d="M36.8582 59.2596L49.3558 64.4057C49.3558 64.4057 47.8855 75.0655 54.8695 83.7036L46.0476 87.747L34.8365 79.844L36.8582 59.2596Z" fill="url(#paint40_linear_365_716)"/>
</g>
<path d="M77.5449 86.3816C78.541 86.1721 79.1107 88.0982 80.412 87.1204C83.1762 85.051 74.7108 79.6182 73.1964 78.758C72.3473 78.2765 70.2264 76.7841 69.3001 77.2693C68.3297 77.7766 67.3593 78.2839 66.3925 78.7911C66.3595 78.8058 66.3374 78.8279 66.3153 78.8536C66.3117 78.8609 66.3043 78.8683 66.3006 78.872C66.2455 78.9381 66.2235 79.0227 66.2749 79.1219C67.0321 80.629 67.9437 81.989 69.017 83.2939C70.3661 84.9333 71.9908 86.1169 72.9648 88.0651C72.9869 88.1092 73.0163 88.1349 73.0531 88.157C73.3545 88.9914 73.7367 89.7964 74.1705 90.5646C74.4241 91.0168 75.3284 92.9796 76.0121 92.6635C76.4311 92.4687 76.3466 91.2814 76.2877 90.9175C76.1591 90.1199 75.8099 89.3663 75.4938 88.6275C74.9681 87.3924 75.9827 85.7788 77.4162 86.3632C77.4603 86.3889 77.5044 86.3889 77.5449 86.3816ZM76.137 91.7703C76.137 91.7666 76.137 91.7629 76.137 91.7593C76.1517 91.774 76.1628 91.7887 76.1775 91.7997C76.1628 91.7887 76.1481 91.7776 76.137 91.7703Z" fill="url(#paint41_radial_365_716)"/>
<path d="M60.8458 72.4576C60.8531 72.4502 60.8568 72.4392 60.8641 72.4282C60.8935 72.3951 60.9266 72.3657 60.9707 72.3436C62.3087 71.6416 63.6467 70.9432 64.981 70.2448C66.2602 69.5758 69.1861 71.6342 70.3587 72.2995C73.2295 73.9316 76.0745 75.8393 78.2212 78.3866C80.7244 81.3567 82.7975 84.6502 85.672 87.293C85.8411 87.4474 85.7455 87.7415 85.558 87.8297C84.8045 88.1863 84.0657 88.0319 83.3562 87.69C83.3746 87.7562 83.393 87.8187 83.4151 87.8848C83.665 88.7009 84.2421 89.7007 84.1282 90.5718C84.1061 90.7299 84.051 90.8622 83.9554 90.9652C83.3085 91.6452 81.3566 88.8663 81.0037 88.3664C80.831 88.1238 80.6362 87.8922 80.434 87.668C80.5222 87.9032 80.6031 88.1385 80.6619 88.3701C80.7795 88.8369 81.1324 89.9102 80.9596 90.5498C80.9192 90.7005 80.8457 90.8291 80.7354 90.9174C80.0076 91.5092 78.4233 88.5061 78.133 87.9657C78.0264 87.7709 77.9087 87.5798 77.7838 87.3923C77.8021 87.4842 77.8279 87.5761 77.8426 87.668C77.9234 88.1422 78.1918 89.2375 77.9675 89.8624C77.9161 90.0094 77.8352 90.1344 77.7176 90.2153C76.9457 90.752 75.5967 87.6349 75.3504 87.0725C74.6336 85.4331 73.5051 83.9334 72.6707 82.3785C71.7849 80.7281 70.0242 79.6621 68.3958 78.8498C68.1165 78.7101 67.8371 78.5667 67.5614 78.4234C65.9882 77.6 64.1025 76.7288 62.7902 75.5122C62.3565 75.1115 61.9448 74.6851 61.5846 74.2403C61.3126 73.7698 61.0516 73.2883 60.8053 72.7994C60.7392 72.6671 60.7722 72.5458 60.8458 72.4576Z" fill="url(#paint42_radial_365_716)"/>
<mask id="mask13_365_716" style="mask-type:luminance" maskUnits="userSpaceOnUse" x="60" y="70" width="26" height="22">
<path d="M60.8458 72.4595C60.8531 72.4521 60.8568 72.4411 60.8641 72.4301C60.8935 72.397 60.9266 72.3676 60.9707 72.3455C62.3087 71.6435 63.6467 70.9451 64.981 70.2467C66.2602 69.5777 69.1861 71.6361 70.3587 72.3014C73.2295 73.9335 76.0745 75.8412 78.2212 78.3885C80.7244 81.3586 82.7975 84.652 85.672 87.2949C85.8411 87.4493 85.7455 87.7434 85.558 87.8316C84.8045 88.1882 84.0657 88.0338 83.3562 87.6919C83.3746 87.7581 83.393 87.8206 83.4151 87.8867C83.665 88.7028 84.2421 89.7026 84.1282 90.5737C84.1061 90.7318 84.051 90.8641 83.9554 90.967C83.3085 91.6471 81.3566 88.8682 81.0037 88.3683C80.831 88.1257 80.6362 87.8941 80.434 87.6699C80.5222 87.9051 80.6031 88.1404 80.6619 88.3719C80.7795 88.8388 81.1324 89.9121 80.9596 90.5517C80.9192 90.7024 80.8457 90.831 80.7354 90.9193C80.0076 91.5111 78.4233 88.5079 78.133 87.9676C78.0264 87.7728 77.9087 87.5816 77.7838 87.3942C77.8021 87.4861 77.8279 87.578 77.8426 87.6699C77.9234 88.144 78.1918 89.2394 77.9675 89.8643C77.9161 90.0113 77.8352 90.1363 77.7176 90.2172C76.9457 90.7538 75.5967 87.6368 75.3504 87.0744C74.6336 85.435 73.5051 83.9353 72.6707 82.3804C71.7849 80.73 70.0242 79.664 68.3958 78.8517C68.1165 78.712 67.8371 78.5686 67.5614 78.4253C65.9882 77.6019 64.1025 76.7307 62.7902 75.5141C62.3565 75.1134 61.9448 74.687 61.5846 74.2422C61.3126 73.7717 61.0516 73.2902 60.8053 72.8013C60.7392 72.669 60.7722 72.5477 60.8458 72.4595Z" fill="white"/>
</mask>
<g mask="url(#mask13_365_716)">
<path opacity="0.5" d="M74.4277 80.9606C74.3983 80.99 74.4534 81.1076 74.5674 81.273C74.6813 81.4384 74.8577 81.6442 75.0342 81.8869C75.1224 82.0045 75.6186 82.5926 76.1332 83.5262C76.6589 84.4525 77.1845 85.7244 77.6183 87.0035C78.0557 88.2827 78.4233 89.5729 78.721 90.5249C79.0114 91.4806 79.2319 92.1018 79.2319 92.1018C79.4341 92.6789 79.4451 92.6753 79.2613 92.0908C79.2613 92.0908 79.0592 91.4623 78.7908 90.5029C78.5188 89.5435 78.188 88.2459 77.78 86.9484C77.3757 85.6508 76.8794 84.357 76.3648 83.3976C75.8649 82.4309 75.3687 81.8133 75.2768 81.692C75.093 81.4421 74.8835 81.2509 74.7254 81.1186C74.5674 80.9936 74.4571 80.9311 74.4277 80.9606Z" fill="url(#paint43_linear_365_716)"/>
<path opacity="0.5" d="M76.0083 79.7512C75.9678 79.7879 76.0303 79.9349 76.1627 80.1481C76.295 80.3613 76.5008 80.6297 76.7214 80.9384C76.8316 81.0891 77.4234 81.8427 78.0961 82.9932C78.7725 84.14 79.515 85.6839 80.1435 87.2534C80.7794 88.8193 81.3124 90.3999 81.7057 91.5798C82.0917 92.7634 82.3453 93.5464 82.3453 93.5464C82.5806 94.2742 82.5953 94.2668 82.3784 93.5353C82.3784 93.5353 82.1431 92.7451 81.7903 91.5541C81.4264 90.3631 80.9375 88.7642 80.3383 87.1762C79.7465 85.5883 79.0408 84.0114 78.3828 82.8315C77.7285 81.6515 77.1404 80.8649 77.0265 80.7105C76.8022 80.3944 76.556 80.1445 76.3685 79.9754C76.181 79.8026 76.0487 79.7144 76.0083 79.7512Z" fill="url(#paint44_linear_365_716)"/>
<path opacity="0.5" d="M79.1622 80.6995C79.0813 80.762 79.368 81.2913 79.7981 81.8794C79.9194 82.0191 80.4413 82.7837 81.1544 83.857C81.4852 84.4121 81.8786 85.0333 82.2608 85.7096C82.6211 86.397 83.0475 87.1027 83.3856 87.8452C83.5621 88.2128 83.7385 88.5767 83.9149 88.9369C84.0803 89.3008 84.2274 89.6611 84.3781 90.0103C84.5214 90.3595 84.6795 90.6903 84.7935 91.0138C84.9111 91.3372 85.0214 91.6423 85.1243 91.9254C85.2235 92.2084 85.3264 92.462 85.4 92.6973C85.4698 92.9288 85.5286 93.1347 85.5764 93.3001C85.6756 93.6346 85.7308 93.8257 85.7308 93.8257C85.9403 94.5315 85.955 94.5315 85.7639 93.8184C85.7639 93.8184 85.7124 93.6272 85.6242 93.2891C85.5801 93.12 85.5249 92.9141 85.4624 92.6789C85.3963 92.4436 85.3007 92.1863 85.2088 91.8996C85.1132 91.6129 85.0103 91.3041 84.9001 90.977C84.7935 90.6462 84.6427 90.3117 84.5104 89.9588C84.3707 89.6059 84.2311 89.2384 84.073 88.8708C83.9076 88.5069 83.7385 88.1356 83.5694 87.7607C83.246 87.0072 82.8416 86.2904 82.4924 85.5846C82.1212 84.8936 81.7426 84.2613 81.4228 83.6953C80.728 82.5962 80.2208 81.8096 80.0958 81.6699C79.6621 81.0671 79.243 80.637 79.1622 80.6995Z" fill="url(#paint45_linear_365_716)"/>
</g>
<path d="M64.9737 81.3596C50.4727 79.4335 35.8872 78.0036 21.3826 75.5665C9.67889 73.5963 -3.57231 63.9106 8.00641 55.3167C14.7956 50.2772 22.625 50.7477 31.5498 52.7032C44.3011 55.4968 57.1737 61.628 68.723 68.5973C70.866 72.5193 68.2672 80.448 64.9737 81.3596Z" fill="url(#paint46_linear_365_716)"/>
<path d="M65.7085 76.2131C51.2075 74.287 36.622 72.8571 22.1174 70.4201C14.4056 69.1225 6.02482 64.4726 4.51408 58.9957C0.136221 66.4906 11.329 73.8716 21.3822 75.5662C35.8869 78.0069 50.4724 79.4331 64.9733 81.3592C67.5942 80.6314 69.7702 75.4669 69.4762 71.4088C68.6565 73.7981 67.2597 75.783 65.7085 76.2131Z" fill="#CDE5FF"/>
<mask id="mask14_365_716" style="mask-type:luminance" maskUnits="userSpaceOnUse" x="3" y="51" width="67" height="31">
<path d="M64.9739 81.362C50.4729 79.4359 35.8874 78.006 21.3828 75.569C9.67907 73.5988 -3.57212 63.9131 8.00659 55.3191C14.7958 50.2796 22.6252 50.7501 31.55 52.7056C44.3013 55.4992 57.1739 61.6304 68.7232 68.5997C70.8661 72.5218 68.2674 80.4504 64.9739 81.362Z" fill="white"/>
</mask>
<g mask="url(#mask14_365_716)">
<path d="M76.4128 59.2587L63.9151 64.4048C63.9151 64.4048 65.3854 75.0646 58.4014 83.7027L67.2233 87.746L78.4344 79.8431L76.4128 59.2587Z" fill="url(#paint47_linear_365_716)"/>
</g>
</g>
<defs>
<linearGradient id="paint0_linear_365_716" x1="55.7893" y1="133.236" x2="57.7787" y2="125.279" gradientUnits="userSpaceOnUse">
<stop stop-color="#083A82"/>
<stop offset="0.9839" stop-color="#002153"/>
</linearGradient>
<linearGradient id="paint1_linear_365_716" x1="56.1956" y1="154.646" x2="57.2466" y2="150.441" gradientUnits="userSpaceOnUse">
<stop stop-color="#083A82"/>
<stop offset="0.9839" stop-color="#002153"/>
</linearGradient>
<linearGradient id="paint2_linear_365_716" x1="63.7093" y1="70.6481" x2="55.7716" y2="103.888" gradientUnits="userSpaceOnUse">
<stop stop-color="white"/>
<stop offset="0.393" stop-color="#FDFDFF"/>
<stop offset="0.6174" stop-color="#F4F8FF"/>
<stop offset="0.7994" stop-color="#E6F0FF"/>
<stop offset="0.9577" stop-color="#D3E4FF"/>
<stop offset="0.9946" stop-color="#CDE0FF"/>
</linearGradient>
<linearGradient id="paint3_linear_365_716" x1="41.1333" y1="94.7189" x2="60.3155" y2="111.685" gradientUnits="userSpaceOnUse">
<stop stop-color="#264C4B"/>
<stop offset="0.1512" stop-color="#2A5655"/>
<stop offset="0.4493" stop-color="#2D5B5A"/>
<stop offset="0.8622" stop-color="#193433"/>
<stop offset="1" stop-color="#193735"/>
</linearGradient>
<linearGradient id="paint4_linear_365_716" x1="76.6946" y1="102.598" x2="88.439" y2="113.26" gradientUnits="userSpaceOnUse">
<stop stop-color="#2C5A58"/>
<stop offset="0.1512" stop-color="#84B2E4"/>
<stop offset="0.4493" stop-color="#1B4341"/>
<stop offset="0.8622" stop-color="#193736"/>
<stop offset="1" stop-color="#193634"/>
</linearGradient>
<linearGradient id="paint5_linear_365_716" x1="70.105" y1="118.733" x2="61.5282" y2="136.377" gradientUnits="userSpaceOnUse">
<stop stop-color="white"/>
<stop offset="0.393" stop-color="#FDFDFF"/>
<stop offset="0.6174" stop-color="#F4F8FF"/>
<stop offset="0.7994" stop-color="#E6F0FF"/>
<stop offset="0.9577" stop-color="#D3E4FF"/>
<stop offset="0.9946" stop-color="#CDE0FF"/>
</linearGradient>
<linearGradient id="paint6_linear_365_716" x1="60.1021" y1="83.4627" x2="81.1189" y2="101.898" gradientUnits="userSpaceOnUse">
<stop stop-color="#04572A"/>
<stop offset="0.1512" stop-color="#00662F"/>
<stop offset="0.4493" stop-color="#005330"/>
<stop offset="0.8622" stop-color="#18302F"/>
<stop offset="1" stop-color="#172A29"/>
</linearGradient>
<linearGradient id="paint7_linear_365_716" x1="36.6079" y1="102.598" x2="24.8636" y2="113.26" gradientUnits="userSpaceOnUse">
<stop stop-color="#193634"/>
<stop offset="0.1512" stop-color="#1A3D3B"/>
<stop offset="0.4493" stop-color="#1A3A38"/>
<stop offset="0.8622" stop-color="#193836"/>
<stop offset="1" stop-color="#193634"/>
</linearGradient>
<linearGradient id="paint8_linear_365_716" x1="60.5181" y1="130.356" x2="52.3031" y2="156.522" gradientUnits="userSpaceOnUse">
<stop stop-color="white"/>
<stop offset="0.393" stop-color="#FDFDFF"/>
<stop offset="0.6174" stop-color="#F4F8FF"/>
<stop offset="0.7994" stop-color="#E6F0FF"/>
<stop offset="0.9577" stop-color="#D3E4FF"/>
<stop offset="0.9946" stop-color="#CDE0FF"/>
</linearGradient>
<linearGradient id="paint9_linear_365_716" x1="53.2007" y1="83.4626" x2="32.1838" y2="101.898" gradientUnits="userSpaceOnUse">
<stop stop-color="#1B4341"/>
<stop offset="0.1512" stop-color="#1B4341"/>
<stop offset="0.4493" stop-color="#1B4341"/>
<stop offset="0.8622" stop-color="#172D2C"/>
<stop offset="1" stop-color="#18302E"/>
</linearGradient>
<linearGradient id="paint10_linear_365_716" x1="77.9616" y1="64.3712" x2="87.1138" y2="49.6624" gradientUnits="userSpaceOnUse">
<stop stop-color="white"/>
<stop offset="0.393" stop-color="#FDFDFF"/>
<stop offset="0.6174" stop-color="#F4F8FF"/>
<stop offset="0.7994" stop-color="#E6F0FF"/>
<stop offset="0.9577" stop-color="#D3E4FF"/>
<stop offset="0.9946" stop-color="#CDE0FF"/>
</linearGradient>
<linearGradient id="paint11_linear_365_716" x1="35.3417" y1="64.3712" x2="26.1896" y2="49.6625" gradientUnits="userSpaceOnUse">
<stop stop-color="white"/>
<stop offset="0.393" stop-color="#FDFDFF"/>
<stop offset="0.6174" stop-color="#F4F8FF"/>
<stop offset="0.7994" stop-color="#E6F0FF"/>
<stop offset="0.9577" stop-color="#D3E4FF"/>
<stop offset="0.9946" stop-color="#CDE0FF"/>
</linearGradient>
<linearGradient id="paint12_linear_365_716" x1="41.5244" y1="51.4764" x2="39.3179" y2="54.8268" gradientUnits="userSpaceOnUse">
<stop stop-color="white"/>
<stop offset="0.393" stop-color="#FDFDFF"/>
<stop offset="0.6174" stop-color="#F4F8FF"/>
<stop offset="0.7994" stop-color="#E6F0FF"/>
<stop offset="0.9577" stop-color="#D3E4FF"/>
<stop offset="0.9946" stop-color="#CDE0FF"/>
</linearGradient>
<linearGradient id="paint13_linear_365_716" x1="71.7782" y1="51.4762" x2="73.9846" y2="54.8267" gradientUnits="userSpaceOnUse">
<stop stop-color="white"/>
<stop offset="0.393" stop-color="#FDFDFF"/>
<stop offset="0.6174" stop-color="#F4F8FF"/>
<stop offset="0.7994" stop-color="#E6F0FF"/>
<stop offset="0.9577" stop-color="#D3E4FF"/>
<stop offset="0.9946" stop-color="#CDE0FF"/>
</linearGradient>
<radialGradient id="paint14_radial_365_716" cx="0" cy="0" r="1" gradientUnits="userSpaceOnUse" gradientTransform="translate(38.5331 43.2518) rotate(1.5415) scale(12.9255)">
<stop stop-color="#FFA78D"/>
<stop offset="1" stop-color="#FFE9CE"/>
</radialGradient>
<radialGradient id="paint15_radial_365_716" cx="0" cy="0" r="1" gradientUnits="userSpaceOnUse" gradientTransform="translate(38.0666 44.3482) rotate(1.5415) scale(8.77372 8.77372)">
<stop stop-color="#FFA78D"/>
<stop offset="1" stop-color="#FFE9CE"/>
</radialGradient>
<radialGradient id="paint16_radial_365_716" cx="0" cy="0" r="1" gradientUnits="userSpaceOnUse" gradientTransform="translate(75.2601 43.2518) rotate(178.458) scale(12.9254)">
<stop stop-color="#FFA78D"/>
<stop offset="1" stop-color="#FFE9CE"/>
</radialGradient>
<radialGradient id="paint17_radial_365_716" cx="0" cy="0" r="1" gradientUnits="userSpaceOnUse" gradientTransform="translate(75.7265 44.3481) rotate(178.458) scale(8.77369)">
<stop stop-color="#FFA78D"/>
<stop offset="1" stop-color="#FFE9CE"/>
</radialGradient>
<radialGradient id="paint18_radial_365_716" cx="0" cy="0" r="1" gradientUnits="userSpaceOnUse" gradientTransform="translate(58.8637 47.2462) scale(32.0237 33.7466)">
<stop stop-color="#FFA78D"/>
<stop offset="1" stop-color="#FFE9CE"/>
</radialGradient>
<radialGradient id="paint19_radial_365_716" cx="0" cy="0" r="1" gradientUnits="userSpaceOnUse" gradientTransform="translate(56.2716 25.9204) scale(26.4646)">
<stop stop-color="#FFA78D"/>
<stop offset="1" stop-color="#FFE9CE"/>
</radialGradient>
<radialGradient id="paint20_radial_365_716" cx="0" cy="0" r="1" gradientUnits="userSpaceOnUse" gradientTransform="translate(45.1929 54.4262) rotate(88.9343) scale(7.16363 7.16363)">
<stop stop-color="#FC7967"/>
<stop offset="0.1477" stop-color="#FC7D6C"/>
<stop offset="0.3109" stop-color="#FC8979"/>
<stop offset="0.4817" stop-color="#FD9C8F"/>
<stop offset="0.6577" stop-color="#FDB8AE"/>
<stop offset="0.8357" stop-color="#FEDAD5"/>
<stop offset="0.9946" stop-color="white"/>
</radialGradient>
<radialGradient id="paint21_radial_365_716" cx="0" cy="0" r="1" gradientUnits="userSpaceOnUse" gradientTransform="translate(69.3306 54.4262) rotate(88.9343) scale(7.1637)">
<stop stop-color="#FC7967"/>
<stop offset="0.1477" stop-color="#FC7D6C"/>
<stop offset="0.3109" stop-color="#FC8979"/>
<stop offset="0.4817" stop-color="#FD9C8F"/>
<stop offset="0.6577" stop-color="#FDB8AE"/>
<stop offset="0.8357" stop-color="#FEDAD5"/>
<stop offset="0.9946" stop-color="white"/>
</radialGradient>
<linearGradient id="paint22_linear_365_716" x1="51.5116" y1="35.2208" x2="47.2863" y2="46.582" gradientUnits="userSpaceOnUse">
<stop stop-color="#FFA78D"/>
<stop offset="0.2366" stop-color="#FFB197" stop-opacity="0.7634"/>
<stop offset="0.6353" stop-color="#FFCBB1" stop-opacity="0.3647"/>
<stop offset="1" stop-color="#FFE9CE" stop-opacity="0"/>
</linearGradient>
<linearGradient id="paint23_linear_365_716" x1="63.8978" y1="35.3214" x2="64.552" y2="44.3177" gradientUnits="userSpaceOnUse">
<stop stop-color="#FFA78D"/>
<stop offset="0.2366" stop-color="#FFB197" stop-opacity="0.7634"/>
<stop offset="0.6353" stop-color="#FFCBB1" stop-opacity="0.3647"/>
<stop offset="1" stop-color="#FFE9CE" stop-opacity="0"/>
</linearGradient>
<radialGradient id="paint24_radial_365_716" cx="0" cy="0" r="1" gradientUnits="userSpaceOnUse" gradientTransform="translate(56.9009 62.2146) scale(2.68803 2.68802)">
<stop stop-color="#FFA78D"/>
<stop offset="1" stop-color="#FFE9CE"/>
</radialGradient>
<linearGradient id="paint25_linear_365_716" x1="51.4564" y1="37.6215" x2="47.8333" y2="47.3637" gradientUnits="userSpaceOnUse">
<stop stop-color="#FFA78D"/>
<stop offset="0.2366" stop-color="#FFB197" stop-opacity="0.7634"/>
<stop offset="0.6353" stop-color="#FFCBB1" stop-opacity="0.3647"/>
<stop offset="1" stop-color="#FFE9CE" stop-opacity="0"/>
</linearGradient>
<linearGradient id="paint26_linear_365_716" x1="62.3181" y1="37.6217" x2="65.9412" y2="47.3638" gradientUnits="userSpaceOnUse">
<stop stop-color="#FFA78D"/>
<stop offset="0.2366" stop-color="#FFB197" stop-opacity="0.7634"/>
<stop offset="0.6353" stop-color="#FFCBB1" stop-opacity="0.3647"/>
<stop offset="1" stop-color="#FFE9CE" stop-opacity="0"/>
</linearGradient>
<linearGradient id="paint27_linear_365_716" x1="73.7812" y1="42.5435" x2="61.7245" y2="7.64553" gradientUnits="userSpaceOnUse">
<stop stop-color="#A6812D"/>
<stop offset="0.9839" stop-color="#D0A738"/>
</linearGradient>
<linearGradient id="paint28_linear_365_716" x1="73.7042" y1="42.5698" x2="61.6714" y2="7.74831" gradientUnits="userSpaceOnUse">
<stop stop-color="#A6812D"/>
<stop offset="0.9839" stop-color="#D0A738"/>
</linearGradient>
<linearGradient id="paint29_linear_365_716" x1="70.9882" y1="31.7247" x2="76.0394" y2="40.023" gradientUnits="userSpaceOnUse">
<stop stop-color="#1B4341"/>
<stop offset="0.9946" stop-color="#015531"/>
</linearGradient>
<linearGradient id="paint30_linear_365_716" x1="51.8549" y1="22.9656" x2="59.0896" y2="34.8513" gradientUnits="userSpaceOnUse">
<stop stop-color="#1B4341"/>
<stop offset="0.9946" stop-color="#015431"/>
</linearGradient>
<linearGradient id="paint31_linear_365_716" x1="42.3859" y1="23.3919" x2="71.8099" y2="20.8778" gradientUnits="userSpaceOnUse">
<stop stop-color="white" stop-opacity="0"/>
<stop offset="1" stop-color="white"/>
</linearGradient>
<linearGradient id="paint32_linear_365_716" x1="46.0971" y1="49.9497" x2="45.7169" y2="50.9403" gradientUnits="userSpaceOnUse">
<stop stop-color="white"/>
<stop offset="1" stop-color="white" stop-opacity="0"/>
</linearGradient>
<linearGradient id="paint33_linear_365_716" x1="68.4355" y1="49.9498" x2="68.8158" y2="50.9404" gradientUnits="userSpaceOnUse">
<stop stop-color="white"/>
<stop offset="1" stop-color="white" stop-opacity="0"/>
</linearGradient>
<radialGradient id="paint34_radial_365_716" cx="0" cy="0" r="1" gradientUnits="userSpaceOnUse" gradientTransform="translate(40.9955 85.5655) rotate(3.24467) scale(14.0406 14.0407)">
<stop stop-color="#FF7D57"/>
<stop offset="1" stop-color="#FFD198"/>
</radialGradient>
<radialGradient id="paint35_radial_365_716" cx="0" cy="0" r="1" gradientUnits="userSpaceOnUse" gradientTransform="translate(43.9845 81.729) rotate(3.24466) scale(19.591 19.591)">
<stop stop-color="#FFA78D"/>
<stop offset="1" stop-color="#FFE9CE"/>
</radialGradient>
<linearGradient id="paint36_linear_365_716" x1="36.3627" y1="85.9491" x2="31.1245" y2="97.1603" gradientUnits="userSpaceOnUse">
<stop stop-color="#FFA78D"/>
<stop offset="1" stop-color="#FFE9CE" stop-opacity="0"/>
</linearGradient>
<linearGradient id="paint37_linear_365_716" x1="34.4118" y1="85.0371" x2="29.1738" y2="96.2482" gradientUnits="userSpaceOnUse">
<stop stop-color="#FFA78D"/>
<stop offset="1" stop-color="#FFE9CE" stop-opacity="0"/>
</linearGradient>
<linearGradient id="paint38_linear_365_716" x1="32.0909" y1="83.9529" x2="26.8527" y2="95.164" gradientUnits="userSpaceOnUse">
<stop stop-color="#FFA78D"/>
<stop offset="1" stop-color="#FFE9CE" stop-opacity="0"/>
</linearGradient>
<linearGradient id="paint39_linear_365_716" x1="74.6043" y1="58.5493" x2="78.0908" y2="73.149" gradientUnits="userSpaceOnUse">
<stop stop-color="white"/>
<stop offset="0.393" stop-color="#FDFDFF"/>
<stop offset="0.6174" stop-color="#F4F8FF"/>
<stop offset="0.7994" stop-color="#E6F0FF"/>
<stop offset="0.9577" stop-color="#D3E4FF"/>
<stop offset="0.9946" stop-color="#CDE0FF"/>
</linearGradient>
<linearGradient id="paint40_linear_365_716" x1="44.8526" y1="83.9102" x2="44.8526" y2="60.1292" gradientUnits="userSpaceOnUse">
<stop stop-color="#1B4341"/>
<stop offset="0.2903" stop-color="#346C6A"/>
<stop offset="0.5" stop-color="#316B68"/>
<stop offset="0.7113" stop-color="#1B4341"/>
<stop offset="1" stop-color="#1B4341"/>
</linearGradient>
<radialGradient id="paint41_radial_365_716" cx="0" cy="0" r="1" gradientUnits="userSpaceOnUse" gradientTransform="translate(72.3076 85.5655) rotate(176.755) scale(14.0406 14.0406)">
<stop stop-color="#FF7D57"/>
<stop offset="1" stop-color="#FFD198"/>
</radialGradient>
<radialGradient id="paint42_radial_365_716" cx="0" cy="0" r="1" gradientUnits="userSpaceOnUse" gradientTransform="translate(69.319 81.729) rotate(176.755) scale(19.5911 19.5911)">
<stop stop-color="#FFA78D"/>
<stop offset="1" stop-color="#FFE9CE"/>
</radialGradient>
<linearGradient id="paint43_linear_365_716" x1="76.9405" y1="85.9491" x2="82.1785" y2="97.1602" gradientUnits="userSpaceOnUse">
<stop stop-color="#FFA78D"/>
<stop offset="1" stop-color="#FFE9CE" stop-opacity="0"/>
</linearGradient>
<linearGradient id="paint44_linear_365_716" x1="78.8914" y1="85.0372" x2="84.1293" y2="96.2482" gradientUnits="userSpaceOnUse">
<stop stop-color="#FFA78D"/>
<stop offset="1" stop-color="#FFE9CE" stop-opacity="0"/>
</linearGradient>
<linearGradient id="paint45_linear_365_716" x1="81.2126" y1="83.9528" x2="86.4507" y2="95.1641" gradientUnits="userSpaceOnUse">
<stop stop-color="#FFA78D"/>
<stop offset="1" stop-color="#FFE9CE" stop-opacity="0"/>
</linearGradient>
<linearGradient id="paint46_linear_365_716" x1="39.8486" y1="54.7838" x2="35.6827" y2="70.9571" gradientUnits="userSpaceOnUse">
<stop stop-color="white"/>
<stop offset="0.393" stop-color="#FDFDFF"/>
<stop offset="0.6174" stop-color="#F4F8FF"/>
<stop offset="0.7994" stop-color="#E6F0FF"/>
<stop offset="0.9577" stop-color="#D3E4FF"/>
<stop offset="0.9946" stop-color="#CDE0FF"/>
</linearGradient>
<linearGradient id="paint47_linear_365_716" x1="68.418" y1="83.9093" x2="68.418" y2="60.1283" gradientUnits="userSpaceOnUse">
<stop stop-color="#1B4341"/>
<stop offset="0.2903" stop-color="#36716E"/>
<stop offset="0.5" stop-color="#2C6764"/>
<stop offset="0.7113" stop-color="#1B4341"/>
<stop offset="1" stop-color="#1B4341"/>
</linearGradient>
<clipPath id="clip0_365_716">
<rect width="113.328" height="157" fill="white"/>
</clipPath>
</defs>
</svg>
