<svg width="171" height="165" viewBox="0 0 171 165" fill="none" xmlns="http://www.w3.org/2000/svg">
<path d="M85.4998 118.496C112.928 118.496 135.163 96.205 135.163 68.7082C135.163 41.2114 112.928 18.9209 85.4998 18.9209C58.0717 18.9209 35.8369 41.2114 35.8369 68.7082C35.8369 96.205 58.0717 118.496 85.4998 118.496Z" fill="#1B4341"/>
<path d="M152.031 102.495C150.401 105.067 151.36 105.986 149.53 108.529C147.588 110.983 146.545 109.813 144.336 111.869C142.03 113.826 143.102 115.269 140.603 117.148C138.019 118.913 136.94 117.216 134.19 118.532C131.371 119.727 132.408 121.689 129.403 122.746C126.338 123.666 125.363 121.466 122.235 121.897L156.922 89.5762C156.127 92.6211 156.559 94.4537 155.55 97.5085C154.408 100.499 153.542 99.8413 152.031 102.495Z" fill="#9BB54E"/>
<path d="M156.922 89.5762L122.235 121.897C122.891 118.799 120.773 117.663 121.914 114.665C123.186 111.741 125.06 112.919 126.454 110.186C127.966 107.536 126.357 106.332 128.299 103.877C130.353 101.52 131.709 102.693 133.82 100.531C136.032 98.4699 134.945 97.3453 137.526 95.5793C140.191 93.9353 141.032 94.9656 143.712 93.5218C146.465 92.2042 145.87 91.2922 148.928 90.3668C152.043 89.5837 153.833 90.1487 156.922 89.5762Z" fill="#BAD46C"/>
<path d="M122.235 121.897C125.363 121.466 126.338 123.666 129.403 122.746C132.408 121.689 131.371 119.727 134.19 118.532C136.939 117.216 138.019 118.913 140.602 117.148C143.101 115.269 142.03 113.826 144.336 111.869C146.545 109.813 147.588 110.983 149.529 108.529C151.36 105.986 150.401 105.067 152.03 102.495C153.542 99.8413 154.407 100.499 155.549 97.5085C156.559 94.4537 156.126 92.6211 156.922 89.5762C153.833 90.1487 152.043 89.5837 148.928 90.3668C145.871 91.2922 146.465 92.2042 143.712 93.5218C141.032 94.9655 140.191 93.9353 137.527 95.5793C134.945 97.3453 136.032 98.4702 133.821 100.531C131.709 102.693 130.353 101.52 128.299 103.877C126.357 106.332 127.966 107.536 126.454 110.186C125.06 112.919 123.186 111.74 121.915 114.665C120.773 117.663 122.891 118.799 122.235 121.897Z" stroke="#350D75" stroke-width="0.5" stroke-miterlimit="10" stroke-linecap="round" stroke-linejoin="round"/>
<path d="M156.922 89.5762L122.235 121.896" stroke="#350D75" stroke-width="0.5" stroke-miterlimit="10" stroke-linecap="round" stroke-linejoin="round"/>
<path d="M126.939 117.512L126.722 109.661" stroke="#350D75" stroke-width="0.5" stroke-miterlimit="10" stroke-linecap="round" stroke-linejoin="round"/>
<path d="M133.352 111.538L134.364 99.9727" stroke="#350D75" stroke-width="0.5" stroke-miterlimit="10" stroke-linecap="round" stroke-linejoin="round"/>
<path d="M139.577 105.736L141.84 94.2598" stroke="#350D75" stroke-width="0.5" stroke-miterlimit="10" stroke-linecap="round" stroke-linejoin="round"/>
<path d="M147.933 97.9517L150.071 90.126" stroke="#350D75" stroke-width="0.5" stroke-miterlimit="10" stroke-linecap="round" stroke-linejoin="round"/>
<path d="M145.925 99.8233L154.509 99.4873" stroke="#350D75" stroke-width="0.5" stroke-miterlimit="10" stroke-linecap="round" stroke-linejoin="round"/>
<path d="M138.382 106.852L149.756 108.203" stroke="#350D75" stroke-width="0.5" stroke-miterlimit="10" stroke-linecap="round" stroke-linejoin="round"/>
<path d="M131.125 113.611L142.533 114.558" stroke="#350D75" stroke-width="0.5" stroke-miterlimit="10" stroke-linecap="round" stroke-linejoin="round"/>
<path d="M125.542 118.813L132.438 119.822" stroke="#350D75" stroke-width="0.5" stroke-miterlimit="10" stroke-linecap="round" stroke-linejoin="round"/>
<path d="M140.575 82.3998C140.176 85.7814 141.585 86.2409 140.969 89.6917C140.199 93.1062 138.583 92.4339 137.351 95.5775C135.973 98.6684 137.749 99.6006 136.139 102.707C134.388 105.739 132.481 104.553 130.347 107.213C128.084 109.786 130.077 111.258 127.56 113.782C124.917 116.197 122.872 114.453 119.929 116.405L139.263 67.0117C139.932 70.465 141.253 72.1014 141.711 75.6689C142.006 79.2346 140.816 78.9925 140.575 82.3998Z" fill="#9BB54E"/>
<path d="M139.263 67.0117L119.929 116.405C119.094 112.967 116.411 112.85 116.115 109.277C115.982 105.712 118.439 105.991 118.524 102.561C118.768 99.1577 116.565 98.7253 117.336 95.3101C118.267 91.9385 120.199 92.462 121.283 89.2597C122.515 86.1095 120.876 85.5044 122.624 82.4729C124.514 79.5236 125.859 80.1527 127.862 77.3972C129.999 74.7335 128.96 74.1037 131.593 71.6876C134.353 69.3877 136.429 69.0877 139.263 67.0117Z" fill="#BAD46C"/>
<path d="M119.929 116.406C122.871 114.454 124.917 116.197 127.56 113.782C130.076 111.259 128.084 109.786 130.347 107.213C132.481 104.554 134.387 105.739 136.139 102.708C137.749 99.6013 135.972 98.6687 137.351 95.5779C138.583 92.4342 140.199 93.1066 140.969 89.6921C141.585 86.2415 140.176 85.7821 140.575 82.4002C140.816 78.9929 142.006 79.2349 141.711 75.6689C141.253 72.1014 139.932 70.465 139.263 67.0117C136.429 69.0877 134.353 69.3877 131.593 71.6876C128.96 74.1037 129.999 74.7339 127.862 77.3972C125.858 80.1527 124.514 79.5236 122.624 82.4729C120.877 85.5044 122.516 86.1095 121.283 89.2597C120.199 92.4623 118.267 91.9385 117.336 95.3101C116.565 98.7253 118.767 99.158 118.524 102.561C118.439 105.991 115.982 105.712 116.115 109.277C116.411 112.85 119.094 112.967 119.929 116.406Z" stroke="#350D75" stroke-width="0.5" stroke-miterlimit="10" stroke-linecap="round" stroke-linejoin="round"/>
<path d="M139.263 67.0117L119.929 116.406" stroke="#350D75" stroke-width="0.5" stroke-miterlimit="10" stroke-linecap="round" stroke-linejoin="round"/>
<path d="M122.549 109.706L118.539 101.902" stroke="#350D75" stroke-width="0.5" stroke-miterlimit="10" stroke-linecap="round" stroke-linejoin="round"/>
<path d="M126.124 100.576L121.559 88.4326" stroke="#350D75" stroke-width="0.5" stroke-miterlimit="10" stroke-linecap="round" stroke-linejoin="round"/>
<path d="M129.595 91.7081L126.332 79.0488" stroke="#350D75" stroke-width="0.5" stroke-miterlimit="10" stroke-linecap="round" stroke-linejoin="round"/>
<path d="M134.252 79.8118L132.627 70.8906" stroke="#350D75" stroke-width="0.5" stroke-miterlimit="10" stroke-linecap="round" stroke-linejoin="round"/>
<path d="M133.132 82.6718L141.617 78.167" stroke="#350D75" stroke-width="0.5" stroke-miterlimit="10" stroke-linecap="round" stroke-linejoin="round"/>
<path d="M128.928 93.4121L141.039 89.2529" stroke="#350D75" stroke-width="0.5" stroke-miterlimit="10" stroke-linecap="round" stroke-linejoin="round"/>
<path d="M124.884 103.745L136.833 99.1621" stroke="#350D75" stroke-width="0.5" stroke-miterlimit="10" stroke-linecap="round" stroke-linejoin="round"/>
<path d="M121.771 111.694L129.205 109.363" stroke="#350D75" stroke-width="0.5" stroke-miterlimit="10" stroke-linecap="round" stroke-linejoin="round"/>
<path d="M26.392 103.82C27.7648 105.997 26.9522 106.771 28.4947 108.924C30.1311 111.002 31.0142 110.015 32.877 111.757C34.8227 113.415 33.9143 114.632 36.0228 116.225C38.203 117.721 39.1185 116.288 41.4394 117.405C43.8204 118.421 42.9397 120.077 45.4774 120.976C48.0656 121.759 48.8946 119.901 51.5369 120.271L22.2822 92.8926C22.9488 95.4674 22.5801 97.0154 23.4276 99.5989C24.3872 102.128 25.1198 101.574 26.392 103.82Z" fill="#9BB54E"/>
<path d="M22.2822 92.8926L51.5369 120.271C50.988 117.652 52.7804 116.696 51.8208 114.161C50.7524 111.686 49.1658 112.679 47.9931 110.367C46.7198 108.125 48.082 107.11 46.4456 105.032C44.7137 103.036 43.5659 104.024 41.7851 102.194C39.9199 100.448 40.8409 99.4998 38.6623 98.0018C36.414 96.6078 35.7013 97.4769 33.4386 96.2515C31.1144 95.1328 31.6181 94.3631 29.036 93.5756C26.405 92.9084 24.8913 93.3825 22.2822 92.8926Z" fill="#BAD46C"/>
<path d="M51.5369 120.271C48.8946 119.901 48.0659 121.759 45.4774 120.976C42.9397 120.077 43.8204 118.421 41.4394 117.405C39.1185 116.288 38.203 117.721 36.0228 116.225C33.9143 114.632 34.8227 113.415 32.877 111.757C31.0142 110.015 30.1311 111.002 28.4947 108.924C26.9519 106.771 27.7645 105.997 26.392 103.82C25.1198 101.574 24.3872 102.128 23.4276 99.5989C22.5801 97.0154 22.9491 95.4674 22.2822 92.8926C24.8913 93.3825 26.405 92.9084 29.0357 93.5756C31.6178 94.3631 31.114 95.1328 33.4383 96.2515C35.7009 97.4766 36.4137 96.6074 38.662 98.0018C40.8405 99.4994 39.9195 100.448 41.7848 102.194C43.5656 104.025 44.7133 103.036 46.4452 105.032C48.0817 107.11 46.7198 108.125 47.9928 110.367C49.1658 112.679 50.752 111.686 51.8204 114.161C52.7804 116.696 50.9883 117.652 51.5369 120.271Z" stroke="#350D75" stroke-width="0.5" stroke-miterlimit="10" stroke-linecap="round" stroke-linejoin="round"/>
<path d="M22.2822 92.8926L51.5369 120.271" stroke="#350D75" stroke-width="0.5" stroke-miterlimit="10" stroke-linecap="round" stroke-linejoin="round"/>
<path d="M47.5703 116.557L47.768 109.922" stroke="#350D75" stroke-width="0.5" stroke-miterlimit="10" stroke-linecap="round" stroke-linejoin="round"/>
<path d="M42.1609 111.497L41.3271 101.721" stroke="#350D75" stroke-width="0.5" stroke-miterlimit="10" stroke-linecap="round" stroke-linejoin="round"/>
<path d="M36.9108 106.581L35.0195 96.8779" stroke="#350D75" stroke-width="0.5" stroke-miterlimit="10" stroke-linecap="round" stroke-linejoin="round"/>
<path d="M29.8641 99.9876L28.0713 93.3701" stroke="#350D75" stroke-width="0.5" stroke-miterlimit="10" stroke-linecap="round" stroke-linejoin="round"/>
<path d="M31.5575 101.573L24.3037 101.273" stroke="#350D75" stroke-width="0.5" stroke-miterlimit="10" stroke-linecap="round" stroke-linejoin="round"/>
<path d="M37.9197 107.526L28.3047 108.648" stroke="#350D75" stroke-width="0.5" stroke-miterlimit="10" stroke-linecap="round" stroke-linejoin="round"/>
<path d="M44.0395 113.253L34.3965 114.032" stroke="#350D75" stroke-width="0.5" stroke-miterlimit="10" stroke-linecap="round" stroke-linejoin="round"/>
<path d="M48.748 117.659L42.918 118.498" stroke="#350D75" stroke-width="0.5" stroke-miterlimit="10" stroke-linecap="round" stroke-linejoin="round"/>
<path d="M36.1127 86.858C36.4441 89.7164 35.2522 90.1024 35.7663 93.0195C36.4113 95.907 37.7776 95.3416 38.8132 98.0005C39.9729 100.615 38.4691 101.4 39.8244 104.028C41.2988 106.593 42.912 105.595 44.7106 107.847C46.6186 110.025 44.9319 111.266 47.054 113.403C49.2831 115.449 51.015 113.979 53.499 115.634L37.2492 73.8555C36.6777 76.7725 35.5587 78.1532 35.164 81.1669C34.9096 84.1799 35.9157 83.9776 36.1127 86.858Z" fill="#9BB54E"/>
<path d="M37.25 73.8555L53.4998 115.634C54.2115 112.73 56.4786 112.636 56.7361 109.617C56.8545 106.605 54.7768 106.836 54.7122 103.937C54.5125 101.061 56.3743 100.699 55.7296 97.8116C54.9485 94.9604 53.3148 95.3992 52.405 92.6907C51.3691 90.0263 52.7553 89.5179 51.2847 86.9526C49.6923 84.457 48.5545 84.986 46.867 82.6535C45.0654 80.3989 45.945 79.8682 43.7241 77.8213C41.3957 75.8722 39.6416 75.615 37.25 73.8555Z" fill="#BAD46C"/>
<path d="M53.4985 115.634C51.0145 113.979 49.2827 115.449 47.0535 113.403C44.9314 111.266 46.6181 110.025 44.7101 107.847C42.9115 105.595 41.298 106.594 39.824 104.028C38.4686 101.4 39.9724 100.615 38.8127 98.0005C37.7771 95.3416 36.4108 95.907 35.7658 93.0195C35.2518 90.1024 36.4433 89.7164 36.1122 86.858C35.9152 83.978 34.9091 84.1799 35.1642 81.1669C35.5585 78.1532 36.6779 76.7725 37.2494 73.8555C39.641 75.615 41.3951 75.8722 43.7231 77.821C45.9441 79.8678 45.0648 80.3986 46.8661 82.6532C48.5535 84.9856 49.6913 84.4566 51.2837 86.9523C52.7546 89.5175 51.3682 90.0263 52.4041 92.6903C53.3138 95.3986 54.9475 94.9597 55.7287 97.8112C56.3737 100.699 54.5115 101.06 54.7112 103.937C54.7759 106.836 56.8535 106.605 56.7352 109.617C56.4773 112.636 54.2102 112.73 53.4985 115.634Z" stroke="#350D75" stroke-width="0.5" stroke-miterlimit="10" stroke-linecap="round" stroke-linejoin="round"/>
<path d="M37.248 73.8555L53.4978 115.634" stroke="#350D75" stroke-width="0.5" stroke-miterlimit="10" stroke-linecap="round" stroke-linejoin="round"/>
<path d="M51.2959 109.969L54.6988 103.381" stroke="#350D75" stroke-width="0.5" stroke-miterlimit="10" stroke-linecap="round" stroke-linejoin="round"/>
<path d="M48.291 102.245L52.1713 91.9912" stroke="#350D75" stroke-width="0.5" stroke-miterlimit="10" stroke-linecap="round" stroke-linejoin="round"/>
<path d="M45.375 94.7448L48.1558 84.0518" stroke="#350D75" stroke-width="0.5" stroke-miterlimit="10" stroke-linecap="round" stroke-linejoin="round"/>
<path d="M41.4609 84.6821L42.8512 77.1465" stroke="#350D75" stroke-width="0.5" stroke-miterlimit="10" stroke-linecap="round" stroke-linejoin="round"/>
<path d="M42.4014 87.1018L35.2393 83.2793" stroke="#350D75" stroke-width="0.5" stroke-miterlimit="10" stroke-linecap="round" stroke-linejoin="round"/>
<path d="M45.9355 96.1867L35.708 92.6494" stroke="#350D75" stroke-width="0.5" stroke-miterlimit="10" stroke-linecap="round" stroke-linejoin="round"/>
<path d="M49.3342 104.926L39.2441 101.03" stroke="#350D75" stroke-width="0.5" stroke-miterlimit="10" stroke-linecap="round" stroke-linejoin="round"/>
<path d="M51.95 111.649L45.6719 109.665" stroke="#350D75" stroke-width="0.5" stroke-miterlimit="10" stroke-linecap="round" stroke-linejoin="round"/>
<path d="M73.714 71.1924C76.7578 74.5099 84.054 79.5959 89.9535 70.7957L81.0615 40.3096C81.0615 40.3096 66.4519 53.1328 73.714 71.1924Z" fill="#51377A" stroke="#350D75" stroke-width="0.5" stroke-miterlimit="10" stroke-linecap="round" stroke-linejoin="round"/>
<path d="M93.2031 55.9785C93.2031 55.9785 95.8536 64.0953 101.625 67.9096C101.625 67.9096 94.7849 85.3525 89.4839 92.5525C89.4839 92.5525 85.2516 83.4667 85.5936 75.6239C85.5936 75.6239 88.1159 72.3451 88.0092 70.888C87.9025 69.4309 86.2137 65.295 85.3799 63.988L93.2031 55.9785Z" fill="white"/>
<path d="M95.7182 61.3288C94.0161 58.4635 93.2031 55.9785 93.2031 55.9785L85.3799 63.988C86.2137 65.2953 87.9021 69.4309 88.0092 70.888C88.0249 71.1009 87.9794 71.3553 87.8991 71.6299C92.0424 69.4024 94.4921 64.5376 95.7182 61.3288Z" fill="#DFD0F2"/>
<path d="M93.2031 55.9785C93.2031 55.9785 95.8536 64.0953 101.625 67.9096C101.625 67.9096 94.7849 85.3525 89.4839 92.5525C89.4839 92.5525 85.2516 83.4667 85.5936 75.6239C85.5936 75.6239 88.1159 72.3451 88.0092 70.888C87.9025 69.4309 86.2137 65.295 85.3799 63.988L93.2031 55.9785Z" stroke="#350D75" stroke-width="0.5" stroke-miterlimit="10" stroke-linecap="round" stroke-linejoin="round"/>
<path d="M76.4147 42.3252C73.9605 44.6813 70.7837 48.8686 73.5118 55.7793C75.7779 61.5204 77.1387 64.1244 78.3494 65.4173C79.5601 66.7099 82.1774 69.2697 83.7585 69.1884C85.3395 69.1078 91.8098 65.6155 93.8957 58.0545C95.5021 57.6005 98.524 54.354 97.6163 51.474C97.0086 49.5454 95.3978 50.6608 95.3978 50.6608C95.4863 48.7517 95.0711 43.7577 89.1275 40.2235C83.1836 36.6897 77.7471 41.0467 76.4147 42.3252Z" fill="white"/>
<path d="M86.0728 43.3955L84.4972 38.8739C80.5488 38.8204 77.3877 41.3915 76.4147 42.3247C73.9605 44.6808 70.7837 48.8682 73.5118 55.7788C74.5624 58.4407 75.4167 60.4214 76.1538 61.9163C76.9465 51.2452 82.1798 44.6527 86.0728 43.3955Z" fill="#DFD0F2"/>
<path d="M76.4147 42.3252C73.9605 44.6813 70.7837 48.8686 73.5118 55.7793C75.7779 61.5204 77.1387 64.1244 78.3494 65.4173C79.5601 66.7099 82.1774 69.2697 83.7585 69.1884C85.3395 69.1078 91.8098 65.6155 93.8957 58.0545C95.5021 57.6005 98.524 54.354 97.6163 51.474C97.0086 49.5454 95.3978 50.6608 95.3978 50.6608C95.4863 48.7517 95.0711 43.7577 89.1275 40.2235C83.1836 36.6897 77.7471 41.0467 76.4147 42.3252Z" stroke="#350D75" stroke-width="0.5" stroke-miterlimit="10" stroke-linecap="round" stroke-linejoin="round"/>
<path d="M79.2735 61.7533C79.2834 62.2182 80.0334 62.7582 80.7068 62.4356C81.3805 62.1133 81.5577 61.3264 81.3173 61.2133C81.0761 61.1005 79.2649 61.372 79.2735 61.7533Z" fill="#FFC4CA"/>
<path d="M79.3324 58.7266C79.5218 59.6334 79.2578 61.1197 79.2752 61.5267C79.2927 61.9333 79.7202 62.4555 80.2175 62.485" stroke="#FF8E98" stroke-width="0.5" stroke-miterlimit="10" stroke-linecap="round" stroke-linejoin="round"/>
<path d="M81.6836 64.6788C82.9189 64.6727 84.4671 63.8231 85.1614 62.7002" stroke="#FF8E98" stroke-width="0.5" stroke-miterlimit="10" stroke-linecap="round" stroke-linejoin="round"/>
<path d="M80.7594 52.2357C80.5778 52.3612 80.5471 52.4689 80.5758 52.5433C80.6165 52.6465 80.8272 52.9057 81.1722 52.9578C81.519 53.0103 81.729 52.8237 82.044 52.6221C82.3597 52.4205 83.5471 51.5991 84.2013 51.4036C84.5946 51.286 85.5868 51.3471 85.5423 51.2277C85.4961 51.1081 84.4585 50.7021 83.887 50.8335C83.2119 50.9888 81.9106 51.4468 80.7594 52.2357Z" fill="#350D75"/>
<path d="M73.1076 54.535C73.163 54.6749 73.2139 54.8056 73.2676 54.9417C73.8186 54.7528 75.0641 54.7884 75.387 54.7843C75.7109 54.7809 75.9544 54.82 76.1596 54.5909C76.3634 54.3619 76.3624 54.0362 76.3333 53.9289C76.3111 53.8517 76.231 53.7804 76.0402 53.7753C74.8295 53.7461 73.6996 54.0698 73.1592 54.306C73.1226 54.3221 73.0867 54.3485 73.0508 54.3722C73.0713 54.4274 73.0853 54.4792 73.1076 54.535Z" fill="#350D75"/>
<path d="M84.8887 54.6365C85.0566 55.1837 84.7502 55.7651 84.2047 55.9328C83.6578 56.1029 83.0771 55.795 82.9099 55.2464C82.7406 54.6982 83.0473 54.1188 83.5939 53.9494C84.14 53.781 84.7204 54.0886 84.8887 54.6365Z" fill="#350D75"/>
<path d="M82.667 55.2219C82.8418 54.6137 83.1855 53.953 84.1113 53.6667C85.1109 53.3582 86.0719 54.0778 86.0719 54.0778" stroke="#350D75" stroke-width="0.5" stroke-miterlimit="10" stroke-linecap="round" stroke-linejoin="round"/>
<path d="M76.6218 57.3837C76.7901 57.9309 76.4836 58.5121 75.9382 58.6797C75.3916 58.8495 74.8109 58.5419 74.643 57.9933C74.4744 57.4458 74.7805 56.8654 75.3273 56.6963C75.8742 56.5283 76.4539 56.8355 76.6218 57.3837Z" fill="#350D75"/>
<path d="M74.4268 57.9109C74.6015 57.3024 74.8248 56.6801 75.7506 56.3941C76.7503 56.0859 77.7113 56.8056 77.7113 56.8056" stroke="#350D75" stroke-width="0.5" stroke-miterlimit="10" stroke-linecap="round" stroke-linejoin="round"/>
<path d="M94.1888 51.782C94.0827 51.9432 94.0178 52.07 94.0007 52.1386C92.1299 52.6358 89.541 50.8186 89.1306 49.4815C90.1155 53.222 91.7366 56.342 93.3474 54.7032C93.0909 55.1417 92.725 55.5055 92.2052 55.6529C90.4952 56.1398 87.2462 51.6826 86.0731 43.3958C84.6706 42.11 79.9923 42.1958 75.6318 50.8083C71.1038 59.75 72.4649 68.1017 74.1783 71.63C70.6318 68.5375 68.8363 61.6772 69.4348 54.6243C70.2077 45.5078 73.9663 38.5958 79.7461 36.0655C85.5256 33.5386 89.4859 36.0243 91.5622 38.3832C96.08 38.6369 97.7353 44.1226 99.2606 49.6529C100.789 55.1832 104.103 59.51 107.954 63.1958C111.798 66.8815 112.554 73.454 112.441 73.9512C112.328 74.4518 112.185 77.0369 105.389 72.4975C98.5903 67.9512 94.028 58.0495 94.028 58.0495C98.3475 56.0708 98.091 52.0666 97.3659 50.918C96.6409 49.7695 95.3994 50.6609 95.3994 50.6609C95.1122 50.7809 94.8386 51.0072 94.6094 51.254H94.6057C94.4388 51.4358 94.2914 51.6243 94.1888 51.782Z" fill="#705699"/>
<path d="M89.1309 49.4814C90.1158 53.222 91.7369 56.342 93.3477 54.7032" stroke="#350D75" stroke-width="0.5" stroke-miterlimit="10" stroke-linecap="round" stroke-linejoin="round"/>
<path d="M88.3299 42.8769C88.3299 42.8769 88.3576 43.2925 88.399 43.9161C88.412 44.0714 88.4151 44.2422 88.4383 44.4181C88.4633 44.5933 88.4896 44.7781 88.517 44.969C88.544 45.1597 88.5724 45.3565 88.6008 45.5567C88.6309 45.7566 88.6524 45.9596 88.6996 46.1622C88.782 46.5671 88.8645 46.9717 88.9417 47.3512C89.0095 47.7321 89.1196 48.0777 89.1928 48.3781C89.3498 48.976 89.4547 49.3744 89.4547 49.3744L89.4599 49.3933C89.5081 49.5767 89.3987 49.7642 89.2157 49.8126C89.0331 49.8609 88.8456 49.7512 88.7974 49.5681C88.7957 49.562 88.794 49.5544 88.7926 49.5483C88.7926 49.5483 88.7102 49.1354 88.5864 48.5159C88.5296 48.2056 88.4393 47.8487 88.3935 47.4565C88.3381 47.0667 88.2789 46.6508 88.2198 46.2349C88.1849 46.0285 88.174 45.8159 88.1558 45.6088C88.1387 45.4017 88.122 45.1977 88.1059 45.0006C88.0898 44.8038 88.0744 44.6135 88.0597 44.4328C88.0471 44.2528 88.0539 44.0845 88.0505 43.9278C88.046 43.3031 88.043 42.8865 88.043 42.8865C88.0426 42.8073 88.1062 42.7429 88.1849 42.7422C88.2622 42.7415 88.3248 42.8018 88.3299 42.8769Z" fill="#350D75"/>
<path d="M89.124 49.4609C89.1274 49.4678 89.1275 49.4747 89.1309 49.4815C89.5413 50.8187 92.1305 52.6358 94.0009 52.1387" stroke="#350D75" stroke-width="0.5" stroke-miterlimit="10" stroke-linecap="round" stroke-linejoin="round"/>
<path d="M90.345 45.7486C90.345 45.7486 90.4442 46.1878 90.6614 46.8314C90.7701 47.1523 90.9086 47.5222 91.0786 47.9076C91.2513 48.2916 91.4435 48.6979 91.6785 49.0754C91.7859 49.2708 91.9186 49.448 92.0403 49.6277C92.1611 49.8084 92.3078 49.9616 92.4333 50.1228C92.5704 50.273 92.7144 50.4046 92.8437 50.5363C92.9873 50.6477 93.1234 50.753 93.2493 50.85C93.3847 50.9268 93.5092 50.9971 93.6193 51.0591C93.7254 51.1304 93.8358 51.1466 93.9172 51.1819C94.0845 51.2415 94.1802 51.2758 94.1802 51.2758L94.2366 51.296C94.4145 51.3598 94.5068 51.5556 94.4432 51.7339C94.3796 51.9122 94.1843 52.0047 94.0068 51.9413C94.001 51.9392 93.9945 51.9365 93.989 51.9344C93.989 51.9344 93.8728 51.8854 93.6689 51.7994C93.5708 51.751 93.4377 51.716 93.3153 51.6255C93.1884 51.5429 93.0424 51.4534 92.8912 51.3475C92.7541 51.2264 92.6053 51.0955 92.448 50.9566C92.3119 50.8006 92.1607 50.6422 92.0205 50.468C91.8943 50.2846 91.7459 50.106 91.6292 49.9054C91.5113 49.7055 91.383 49.508 91.2835 49.2962C91.0619 48.8837 90.8902 48.451 90.7373 48.0447C90.5882 47.6371 90.4709 47.2503 90.3806 46.9164C90.2021 46.2499 90.1285 45.7915 90.1285 45.7915C90.1183 45.7311 90.1586 45.6739 90.2188 45.6636C90.2766 45.654 90.3317 45.6924 90.345 45.7486Z" fill="#350D75"/>
<path d="M92.4063 47.0449C92.4063 47.0449 92.4801 47.3226 92.6241 47.7344C92.7664 48.1448 92.9846 48.6831 93.2548 49.1853C93.3198 49.3125 93.3929 49.4336 93.4658 49.5519C93.5345 49.6732 93.6173 49.7799 93.6901 49.8885C93.763 49.9972 93.8485 50.0867 93.9207 50.18C93.9956 50.2701 94.0773 50.3404 94.1457 50.4135C94.2151 50.4855 94.2904 50.5307 94.3499 50.5821C94.409 50.6349 94.4675 50.6644 94.5144 50.6901C94.6067 50.7433 94.6597 50.7738 94.6597 50.7738L94.7066 50.8009C94.8704 50.8952 94.9272 51.1047 94.8331 51.2692C94.7391 51.4338 94.5301 51.4904 94.3663 51.3961C94.3591 51.392 94.3516 51.3872 94.3444 51.3827C94.3444 51.3827 94.2736 51.3344 94.1495 51.2504C94.0869 51.2082 94.0113 51.1578 93.9412 51.0861C93.87 51.0159 93.7784 50.9439 93.7018 50.8509C93.6258 50.7577 93.5356 50.6617 93.4576 50.5509C93.3837 50.4385 93.2948 50.3253 93.2243 50.1988C93.1532 50.0727 93.0725 49.9458 93.0096 49.8097C92.9419 49.6753 92.8741 49.5388 92.8167 49.3986C92.331 48.2864 92.1245 47.109 92.1245 47.109C92.1101 47.0301 92.1618 46.9547 92.2404 46.94C92.315 46.9259 92.3868 46.9732 92.4063 47.0449Z" fill="#350D75"/>
<path d="M74.1783 71.63C70.6318 68.5375 68.8363 61.6772 69.4348 54.6243C70.2077 45.5078 73.9663 38.5958 79.7461 36.0655C85.5256 33.5386 89.4859 36.0243 91.5622 38.3832C96.08 38.6369 97.7353 44.1226 99.2606 49.6529C100.789 55.1832 104.103 59.51 107.954 63.1958C111.798 66.8815 112.554 73.454 112.441 73.9512C112.328 74.4518 112.185 77.0369 105.389 72.4975C98.5903 67.9512 94.028 58.0495 94.028 58.0495C98.3475 56.0708 98.091 52.0666 97.3659 50.918C96.6409 49.7695 95.3994 50.6609 95.3994 50.6609C95.1122 50.7809 94.8386 51.0072 94.6094 51.254H94.6056C94.4384 51.4358 94.291 51.6243 94.1884 51.782C94.0824 51.9432 94.0174 52.07 94.0003 52.1386C93.9627 52.2998 93.9353 53.6986 93.3505 54.6998C93.3505 54.6998 93.3471 54.6998 93.3471 54.7035C93.0906 55.142 92.7247 55.5058 92.2048 55.6532C90.4948 56.1401 87.2458 51.683 86.0728 43.3961C84.6702 42.1104 79.992 42.1961 75.6315 50.8087C71.1034 59.75 72.4649 68.102 74.1783 71.63Z" stroke="#350D75" stroke-width="0.5" stroke-miterlimit="10" stroke-linecap="round" stroke-linejoin="round"/>
<path d="M109.44 31.543C116.052 34.743 129.276 44.4344 129.276 57.6001C129.276 57.966 129.28 58.3157 129.288 58.6493C129.47 66.6132 131.686 65.4513 129.288 58.6493C127.269 52.9205 121.976 43.1909 109.44 31.543Z" fill="white" fill-opacity="0.32"/>
<path d="M85.7453 43.49C85.7453 43.49 85.7385 43.4656 85.7255 43.4197C85.7156 43.3823 85.6923 43.3175 85.6612 43.2328C85.6266 43.1505 85.587 43.0473 85.5281 42.9349C85.4727 42.8204 85.4016 42.6956 85.3147 42.5639C85.2313 42.4309 85.1249 42.2958 85.0097 42.1562C84.8883 42.0222 84.7603 41.8789 84.6051 41.7541C84.4628 41.6138 84.2843 41.5089 84.1136 41.3855C83.932 41.2809 83.7443 41.1753 83.5473 41.0882C83.3431 41.0193 83.1495 40.9151 82.9382 40.8733C82.7289 40.8287 82.5288 40.7509 82.3222 40.7351C82.1177 40.7097 81.9204 40.6768 81.7316 40.66C81.5411 40.6552 81.3612 40.6508 81.195 40.6466C81.0284 40.6367 80.8756 40.6453 80.7401 40.6583C80.6044 40.6682 80.486 40.6772 80.3889 40.6844C80.1936 40.6988 80.0821 40.7066 80.0821 40.7066L80.0719 40.7073C80.01 40.7118 79.9563 40.6652 79.9515 40.6031C79.947 40.5434 79.9901 40.4913 80.0483 40.4831C80.0483 40.4831 80.1618 40.4677 80.3598 40.4402C80.459 40.4265 80.5801 40.4101 80.7183 40.3909C80.8568 40.3689 81.0134 40.3497 81.1864 40.349C81.3595 40.3425 81.5469 40.3357 81.7453 40.3281C81.944 40.3329 82.154 40.3538 82.3718 40.3672C82.591 40.371 82.8109 40.4382 83.0391 40.4728C83.2689 40.5044 83.4878 40.6014 83.7159 40.6648C83.9375 40.7461 84.154 40.8496 84.364 40.9542C84.564 41.0786 84.7716 41.1866 84.9443 41.3337C85.129 41.4654 85.2857 41.6183 85.4348 41.764C85.5774 41.9149 85.7091 42.0633 85.8158 42.2111C85.9255 42.3568 86.0179 42.4974 86.0918 42.6273C86.169 42.7552 86.2248 42.8742 86.272 42.9719C86.3161 43.071 86.3503 43.1509 86.3725 43.2146C86.3917 43.2702 86.4019 43.3 86.4019 43.3C86.4642 43.479 86.3698 43.6744 86.1916 43.7368C86.0131 43.7992 85.8178 43.7046 85.7556 43.5256C85.7535 43.5191 85.7515 43.5129 85.7494 43.5068L85.7453 43.49Z" fill="#350D75"/>
<path d="M85.9004 43.0747C85.9018 43.0692 85.934 43.001 85.9846 42.8604C86.0376 42.7208 86.1043 42.5144 86.174 42.2635C86.2373 42.0115 86.3109 41.7142 86.3512 41.3906C86.4008 41.0676 86.4176 40.7199 86.4128 40.3719C86.3963 40.2002 86.4015 40.0232 86.3686 39.8559C86.3409 39.6879 86.3228 39.5186 86.2736 39.3636C86.2329 39.2059 86.1953 39.0519 86.133 38.9158C86.0759 38.778 86.0335 38.6405 85.9627 38.5301C85.8994 38.4149 85.8413 38.3096 85.7896 38.216C85.7257 38.1303 85.6703 38.0556 85.6245 37.9942C85.5321 37.8704 85.4798 37.7995 85.4798 37.7995L85.4726 37.7895C85.4435 37.7508 85.4514 37.6956 85.4904 37.6668C85.527 37.6394 85.5779 37.6452 85.608 37.6788C85.608 37.6788 85.6696 37.7477 85.7773 37.868C85.8314 37.9287 85.8967 38.0028 85.9719 38.0875C86.0355 38.1814 86.107 38.2874 86.185 38.4032C86.2705 38.5157 86.329 38.6559 86.4032 38.7989C86.4825 38.9405 86.5379 39.1006 86.5968 39.2666C86.6641 39.4304 86.7 39.6084 86.7459 39.788C86.7965 39.967 86.8091 40.1542 86.842 40.34C86.881 40.7127 86.895 41.0895 86.8731 41.4403C86.8604 41.7924 86.8095 42.1167 86.7654 42.3948C86.7144 42.6722 86.6617 42.9015 86.6166 43.0623C86.5738 43.2238 86.5383 43.3232 86.5407 43.3181C86.474 43.4954 86.2767 43.5842 86.0998 43.5173C85.923 43.4504 85.8334 43.2516 85.9004 43.0747Z" fill="#350D75"/>
<path d="M57.9862 75.3945L60.4794 81.0791V81.0825C60.291 81.2608 60.0827 81.4597 59.8771 81.6585C59.727 81.2094 58.8104 78.8402 58.6596 78.3877C58.5091 77.9385 57.9106 77.0814 57.9756 75.9671C57.9859 75.7888 57.9893 75.5968 57.9825 75.3945H57.9862Z" fill="#FC8CBE"/>
<path d="M46.1201 57.9121C46.1201 57.9121 50.6516 59.1464 52.4198 62.6984L52.1838 62.6675C50.5083 61.2207 48.3158 60.4047 46.7118 59.9658L46.1201 57.9121Z" fill="#DFD0F2"/>
<path d="M67.6824 58.0391C59.4641 59.0951 52.7609 62.5682 52.5455 62.6814L52.4189 62.6985C52.4189 62.6985 58.3766 57.6897 66.8411 55.9785L67.6824 58.0357V58.0391Z" fill="#DFD0F2"/>
<path d="M68.7772 57.9121L78.4969 78.7955C78.4969 78.7955 77.4777 79.8515 77.4161 81.3395L67.7683 60.607L52.5459 62.6813C52.7614 62.5681 59.4642 59.095 67.6828 58.039C68.0453 57.9913 68.4075 57.9498 68.7772 57.9121Z" fill="white"/>
<path d="M46.7111 59.9658C48.3151 60.4046 50.5076 61.2206 52.1831 62.6675L41.7969 61.3132L44.5531 59.5098C44.5531 59.5098 45.4525 59.6198 46.7111 59.9658Z" fill="white"/>
<path d="M52.4186 62.6989L56.417 71.8223C56.0678 71.7877 55.7976 71.9937 55.88 72.3877C56.0302 73.0943 56.1605 75.0448 56.075 75.8612C55.9895 76.6734 56.0952 76.9545 56.3106 77.8117C56.5227 78.6688 56.8647 80.4897 56.93 81.4528C56.9881 82.3134 57.1109 82.9888 57.2617 83.7225L52.5045 82.1385L40.832 61.1865L41.7927 61.3134H41.7965L52.1827 62.6677L52.4186 62.6989Z" fill="#FC8CBE"/>
<path d="M61.1232 84.5519C61.1232 84.5519 62.6793 81.9394 63.0794 81.5656C63.4761 81.1954 64.7894 80.7394 65.771 80.1462C66.7559 79.5562 67.1526 77.9519 66.8961 77.6091C66.6396 77.2662 66.0275 77.7394 65.3571 78.2365C64.6868 78.7371 63.127 79.2034 62.443 79.4605C61.759 79.7176 61.5473 79.9954 61.0103 80.5539C60.8872 80.6807 60.6991 80.8659 60.4802 81.0784L57.987 75.3939H57.9833C57.9628 74.3444 57.737 73.0724 57.2723 72.3867C57.0257 72.0301 56.6974 71.8487 56.4173 71.8213L52.4189 62.6979L52.5455 62.6807L67.7679 60.6064L77.4157 81.339L77.768 82.0967L69.0641 83.6053L68.1646 83.7596L68.1578 83.763L65.0866 84.2944C65.4423 83.9516 66.0271 83.7219 67.4806 82.7242C68.9341 81.723 69.2488 80.1802 68.9786 79.9676C68.7084 79.7516 68.2501 80.0944 67.6106 80.5539C66.9676 81.0099 65.4868 81.5962 65.0011 81.795C64.5189 81.9939 64.0606 82.2373 63.404 82.7962C62.9833 83.1531 61.8653 83.9965 61.1232 84.5519Z" fill="#FC8CBE"/>
<path d="M63.3592 92.5063C64.2177 95.4892 67.2957 97.2652 69.3066 99.4321C69.584 101.853 68.0857 106.351 65.6712 107.853C63.2772 104.253 60.1137 96.7955 58.6602 93.4801C58.3797 92.8423 58.1745 92.6538 58.0343 91.4812C57.8907 90.3086 57.4837 84.8161 57.3127 83.9829C57.2956 83.8938 57.2785 83.8081 57.2617 83.7223C57.1112 82.9886 56.9881 82.3132 56.93 81.4526C56.8647 80.4892 56.5227 78.6686 56.3106 77.8115C56.0952 76.9543 55.9895 76.6732 56.075 75.861C56.1605 75.0446 56.0302 73.0941 55.88 72.3875C55.798 71.9935 56.0681 71.7875 56.417 71.8221C56.6971 71.8495 57.0254 72.0309 57.272 72.3875C57.7368 73.0732 57.9628 74.3452 57.983 75.3947C57.9898 75.597 57.9868 75.789 57.9762 75.9673C57.9112 77.0815 58.5097 77.9387 58.6602 78.3878C58.811 78.8404 59.7272 81.2095 59.8777 81.6587C60.0832 81.4598 60.2915 81.2613 60.4799 81.0827V81.0793C60.6988 80.8667 60.8866 80.6815 61.01 80.5547C61.547 79.9958 61.7587 79.7185 62.4427 79.4613C63.1267 79.2042 64.6865 78.7379 65.3569 78.2373C66.0272 77.7402 66.6394 77.267 66.8959 77.6099C67.1524 77.9527 66.7556 79.5573 65.7707 80.147C64.7891 80.7402 63.4759 81.1962 63.0791 81.5665C62.679 81.9402 61.1229 84.5527 61.1229 84.5527C61.865 83.9973 62.983 83.1539 63.404 82.7973C64.0607 82.2385 64.519 81.995 65.0012 81.7962C65.4868 81.5973 66.9677 81.011 67.6106 80.555C68.2502 80.0956 68.7085 79.7527 68.9786 79.9687C69.2488 80.1813 68.9342 81.7242 67.4807 82.7253C66.0272 83.723 65.4424 83.9527 65.0867 84.2956C64.7447 84.6247 62.8842 86.9219 62.7303 87.1105C63.6089 86.4659 65.0012 85.4339 65.456 85.0807C66.1192 84.5699 68.0381 83.8087 68.1575 83.7642L68.1643 83.7607L69.0638 83.6065C69.0638 83.6065 67.5693 85.9105 66.9708 86.3185C66.5843 86.5825 65.2098 88.0053 64.3001 88.9687C64.0053 90.3532 64.1014 91.3578 63.3592 92.5063Z" fill="white"/>
<path d="M70.9897 101.383C71.9747 107.486 69.5191 111.776 68.9206 111.755C67.8091 111.474 65.6066 109.053 65.5659 108.868C65.5211 108.679 65.6716 107.853 65.6716 107.853C68.0861 106.351 69.5844 101.853 69.3071 99.4326C69.3071 99.4326 70.0427 100.094 70.9897 101.383Z" fill="#FECB42"/>
<path d="M70.9476 99.0687C72.7842 96.1681 76.1871 90.7098 77.7675 87.1235C79.3509 83.5373 82.1382 79.2275 82.1382 79.2275L85.38 96.823C84.0941 98.7807 77.5551 106.783 77.0626 107.596C76.5705 108.408 76.2524 110.253 75.8656 110.661C75.4829 111.068 74.2411 110.918 73.7729 111.11C73.3006 111.302 70.2674 112.567 70.0725 112.57C69.8775 112.57 68.9199 111.754 68.9199 111.754C69.5184 111.775 71.974 107.486 70.989 101.383C70.0417 100.094 69.3064 99.4324 69.3064 99.4324C69.3064 99.4324 69.8604 98.9662 70.1443 98.9387C70.2226 98.9319 70.503 98.9627 70.9476 99.0687Z" fill="#FECB42"/>
<path d="M60.4795 81.0793C60.6984 80.8668 60.8861 80.6816 61.0096 80.5548C61.5465 79.9959 61.7582 79.7186 62.4422 79.4614C63.1262 79.2043 64.6861 78.738 65.3564 78.2374C66.0267 77.7403 66.6389 77.2671 66.8954 77.61C67.1519 77.9528 66.7552 79.5574 65.7702 80.1471C64.7887 80.7403 63.4754 81.1963 63.0787 81.5666C62.6786 81.9403 61.1225 84.5528 61.1225 84.5528" stroke="#350D75" stroke-width="0.5" stroke-miterlimit="10" stroke-linecap="round" stroke-linejoin="round"/>
<path d="M58.6602 82.8045C58.6602 82.8045 59.2621 82.2419 59.8777 81.659C60.0832 81.4601 60.2915 81.2616 60.4799 81.083" stroke="#350D75" stroke-width="0.5" stroke-miterlimit="10" stroke-linecap="round" stroke-linejoin="round"/>
<path d="M62.7262 87.1172C62.723 87.1208 62.7197 87.124 62.7197 87.124" stroke="#350D75" stroke-width="0.5" stroke-miterlimit="10" stroke-linecap="round" stroke-linejoin="round"/>
<path d="M60.4141 85.0806C60.4141 85.0806 60.7116 84.8612 61.122 84.5526C61.8641 83.9972 62.9821 83.1537 63.4031 82.7972C64.0598 82.2383 64.5181 81.9949 65.0003 81.796C65.4859 81.5972 66.9668 81.0109 67.6097 80.5549C68.2493 80.0954 68.7076 79.7526 68.9777 79.9686C69.2479 80.1812 68.9333 81.724 67.4798 82.7252C66.0263 83.7229 65.4415 83.9526 65.0858 84.2954C64.7438 84.6246 62.8833 86.9217 62.7294 87.1103" stroke="#350D75" stroke-width="0.5" stroke-miterlimit="10" stroke-linecap="round" stroke-linejoin="round"/>
<path d="M61.9814 87.6657C61.9814 87.6657 62.2892 87.4394 62.727 87.1168C62.727 87.1134 62.7308 87.11 62.7308 87.11C63.6094 86.4654 65.0016 85.4334 65.4565 85.0802C66.1196 84.5694 68.0386 83.8082 68.158 83.7637" stroke="#350D75" stroke-width="0.5" stroke-miterlimit="10" stroke-linecap="round" stroke-linejoin="round"/>
<path d="M41.7927 61.3134L40.832 61.1865L52.5041 82.1385L57.2617 83.7225" stroke="#350D75" stroke-width="0.5" stroke-miterlimit="10" stroke-linecap="round" stroke-linejoin="round"/>
<path d="M65.0867 84.2954L68.1579 83.7643L68.1647 83.7609L69.0642 83.6066L77.7684 82.0977L77.4158 81.34L67.768 60.6074L52.5459 62.6817L52.4191 62.6988L52.1831 62.668L41.7969 61.3137" stroke="#350D75" stroke-width="0.5" stroke-miterlimit="10" stroke-linecap="round" stroke-linejoin="round"/>
<path d="M57.9863 75.3945L60.4795 81.0791V81.0825" stroke="#350D75" stroke-width="0.5" stroke-miterlimit="10" stroke-linecap="round" stroke-linejoin="round"/>
<path d="M56.4173 71.8219L52.4189 62.6985C52.4189 62.6985 58.3766 57.6897 66.8411 55.9785L67.6824 58.0357" stroke="#350D75" stroke-width="0.5" stroke-miterlimit="10" stroke-linecap="round" stroke-linejoin="round"/>
<path d="M69.0635 83.6064C69.0635 83.6064 67.569 85.9104 66.9705 86.3184C66.584 86.5824 65.2095 88.0053 64.2998 88.9687C63.807 89.4864 63.4482 89.8739 63.4482 89.8739" stroke="#350D75" stroke-width="0.5" stroke-miterlimit="10" stroke-linecap="round" stroke-linejoin="round"/>
<path d="M64.2995 88.9688C64.0053 90.3539 64.1011 91.3585 63.359 92.507C63.1367 92.8533 62.8323 93.2164 62.4219 93.6042" stroke="#350D75" stroke-width="0.5" stroke-miterlimit="10" stroke-linecap="round" stroke-linejoin="round"/>
<path d="M63.3592 92.5063C64.2177 95.4892 67.2957 97.2652 69.3066 99.4321C69.584 101.853 68.0857 106.351 65.6712 107.853C63.2772 104.253 60.1137 96.7955 58.6602 93.4801C58.3797 92.8423 58.1745 92.6538 58.0343 91.4812C57.8907 90.3086 57.4837 84.8161 57.3127 83.9829C57.2956 83.8938 57.2785 83.8081 57.2617 83.7223C57.1112 82.9886 56.9881 82.3132 56.93 81.4526C56.8647 80.4892 56.5227 78.6686 56.3106 77.8115C56.0952 76.9543 55.9895 76.6732 56.075 75.861C56.1605 75.0446 56.0302 73.0941 55.88 72.3875C55.798 71.9935 56.0681 71.7875 56.417 71.8221C56.6971 71.8495 57.0254 72.0309 57.272 72.3875C57.7368 73.0732 57.9628 74.3452 57.983 75.3947C57.9898 75.597 57.9868 75.789 57.9762 75.9673C57.9112 77.0815 58.5097 77.9387 58.6602 78.3878C58.811 78.8404 59.7272 81.2095 59.8777 81.6587" stroke="#350D75" stroke-width="0.5" stroke-miterlimit="10" stroke-linecap="round" stroke-linejoin="round"/>
<path d="M74.676 109.938C73.9236 105.998 72.2649 103.118 70.9893 101.384C70.0419 100.094 69.3066 99.4331 69.3066 99.4331C69.3066 99.4331 69.8607 98.9668 70.1445 98.9394C70.2229 98.9325 70.5036 98.9634 70.9482 99.0697C72.1452 99.3508 74.543 100.157 77.4702 102.111" stroke="#350D75" stroke-width="0.5" stroke-miterlimit="10" stroke-linecap="round" stroke-linejoin="round"/>
<path d="M65.6716 107.853C65.6716 107.853 65.5211 108.679 65.5659 108.867C65.6066 109.053 67.8091 111.473 68.9206 111.754C69.5191 111.775 71.9747 107.486 70.9897 101.383" stroke="#350D75" stroke-width="0.5" stroke-miterlimit="10" stroke-linecap="round" stroke-linejoin="round"/>
<path d="M68.9199 111.754C68.9199 111.754 69.8775 112.57 70.0725 112.57C70.2674 112.567 73.3006 111.302 73.7729 111.11C74.2411 110.918 75.4829 111.069 75.8656 110.661C76.2524 110.253 76.5705 108.408 77.0626 107.596C77.5551 106.783 84.0945 98.7807 85.38 96.823L82.1382 79.2275C82.1382 79.2275 79.3509 83.5373 77.7675 87.1235C76.1874 90.7098 72.7845 96.1681 70.9476 99.0687" stroke="#350D75" stroke-width="0.5" stroke-miterlimit="10" stroke-linecap="round" stroke-linejoin="round"/>
<path d="M41.793 61.3132H41.7967L44.5529 59.5098C44.5529 59.5098 45.4524 59.6195 46.7109 59.9658C48.3149 60.4046 50.5075 61.2206 52.1829 62.6675C52.1966 62.6778 52.2069 62.6877 52.2205 62.6983" stroke="#350D75" stroke-width="0.5" stroke-miterlimit="10" stroke-linecap="round" stroke-linejoin="round"/>
<path d="M52.5391 62.6847C52.5391 62.6847 52.5428 62.6847 52.5462 62.6813C52.7617 62.5681 59.4646 59.095 67.6832 58.039C68.046 57.991 68.4082 57.9498 68.7776 57.9121L78.4972 78.7955C78.4972 78.7955 77.478 79.8515 77.4165 81.3395" stroke="#350D75" stroke-width="0.5" stroke-miterlimit="10" stroke-linecap="round" stroke-linejoin="round"/>
<path d="M46.7114 59.9658L46.1201 57.9121C46.1201 57.9121 50.6516 59.1464 52.4198 62.6984" stroke="#350D75" stroke-width="0.5" stroke-miterlimit="10" stroke-linecap="round" stroke-linejoin="round"/>
<path d="M59.3093 108.866C67.0115 109.853 72.3696 111.625 77.3286 113.168C82.2876 114.711 91.2368 117.111 91.2368 117.111L97.0641 119.894V133.007H66.4544C66.4544 133.007 58.3901 120.336 59.3093 108.866Z" fill="#2E418F" stroke="#350D75" stroke-width="0.5" stroke-miterlimit="10" stroke-linecap="round" stroke-linejoin="round"/>
<path d="M86.3936 80.7097C86.3936 80.7097 90.5509 81.9097 96.8245 79.8525L89.4859 96.824C89.4859 96.824 86.5478 87.5181 86.3936 80.7097Z" fill="#959CB0" stroke="#350D75" stroke-width="0.5" stroke-miterlimit="10" stroke-linecap="round" stroke-linejoin="round"/>
<path d="M87.3736 72.877C87.3736 72.877 86.023 81.6243 89.4857 92.5528L96.7532 104.939L97.7844 119.851C97.7844 119.851 93.205 120.496 89.4857 116.853C90.3407 112.139 89.8705 106.139 89.4857 105.196C89.101 104.253 85.0825 101.167 83.9282 98.4671C82.774 95.7671 82.2182 86.51 82.0045 83.5528C81.7907 80.5957 81.7907 79.7386 82.6457 77.9814C83.5007 76.2243 87.3736 72.877 87.3736 72.877Z" fill="#FECB42"/>
<path d="M97.7843 119.851L96.9403 107.641L88.6338 104.144C89.0739 104.599 89.391 104.963 89.4857 105.196C89.8705 106.139 90.3407 112.139 89.4857 116.853C93.205 120.496 97.7843 119.851 97.7843 119.851Z" fill="#FEAB47"/>
<path d="M87.3736 72.877C87.3736 72.877 86.023 81.6243 89.4857 92.5528L96.7532 104.939L97.7844 119.851C97.7844 119.851 93.205 120.496 89.4857 116.853C90.3407 112.139 89.8705 106.139 89.4857 105.196C89.101 104.253 85.0825 101.167 83.9282 98.4671C82.774 95.7671 82.2182 86.51 82.0045 83.5528C81.7907 80.5957 81.7907 79.7386 82.6457 77.9814C83.5007 76.2243 87.3736 72.877 87.3736 72.877Z" stroke="#350D75" stroke-width="0.5" stroke-miterlimit="10" stroke-linecap="round" stroke-linejoin="round"/>
<path d="M99.7936 66.4746C99.7936 66.4746 94.7997 80.9106 89.4844 92.5534C89.4844 92.5534 91.3514 100.31 95.3411 104.996C97.6209 109.796 96.0822 119.053 96.0251 119.567C95.968 120.082 103.549 121.968 110.788 121.282C118.027 120.596 121.504 120.711 123.613 121.739C125.722 122.768 130.168 125.511 130.168 125.511C130.168 125.511 127.66 117.396 121.789 109.168C121.105 97.6818 121.311 89.5818 119.851 80.539C119.524 78.5137 115.768 75.2641 112.555 73.4531C106.706 70.1559 99.7936 66.4746 99.7936 66.4746Z" fill="#FECB42"/>
<path d="M99.7932 66.4746C99.7932 66.4746 97.8 72.2363 94.9922 79.4144L99.4878 83.8102L101.319 67.291C100.366 66.7798 99.7932 66.4746 99.7932 66.4746Z" fill="#FEAB47"/>
<path d="M102.455 121.123C103.432 121.239 104.478 121.33 105.565 121.382C110.137 120.311 118.834 118.673 127.605 119.167C126.254 116.292 124.339 112.741 121.79 109.167C121.337 101.563 121.274 95.4441 120.859 89.5521L108.294 86.9053L102.455 121.123Z" fill="#FEAB47"/>
<path d="M99.7936 66.4746C99.7936 66.4746 94.7997 80.9106 89.4844 92.5534C89.4844 92.5534 91.3514 100.31 95.3411 104.996C97.6209 109.796 96.0822 119.053 96.0251 119.567C95.968 120.082 103.549 121.968 110.788 121.282C118.027 120.596 121.504 120.711 123.613 121.739C125.722 122.768 130.168 125.511 130.168 125.511C130.168 125.511 127.66 117.396 121.789 109.168C121.105 97.6818 121.311 89.5818 119.851 80.539C119.524 78.5137 115.768 75.2641 112.555 73.4531C106.706 70.1559 99.7936 66.4746 99.7936 66.4746Z" stroke="#350D75" stroke-width="0.5" stroke-miterlimit="10" stroke-linecap="round" stroke-linejoin="round"/>
<path d="M95.7197 77.5435L101.626 81.0814L102.266 67.7995L98.3411 64.9863L95.7197 77.5435Z" fill="#FECB42" stroke="#350D75" stroke-width="0.5" stroke-miterlimit="10" stroke-linecap="round" stroke-linejoin="round"/>
<path d="M87.9988 71.1924L87.1472 79.1374L84.2266 81.3382L86.2386 73.9013L87.9988 71.1924Z" fill="#FECB42" stroke="#350D75" stroke-width="0.5" stroke-miterlimit="10" stroke-linecap="round" stroke-linejoin="round"/>
<path d="M85.3242 112.571H85.3276C85.0677 113.188 85.0301 113.833 84.9104 114.426C84.7291 115.324 84.3119 117.025 84.1135 117.968C83.9117 118.911 84.2264 119.912 84.4247 120.598C84.6265 121.283 84.6539 122.312 84.6812 122.826C84.6847 122.905 84.6881 122.984 84.6915 123.059C84.674 123.176 84.093 123.605 83.8639 123.519C83.6275 123.433 83.7784 122.96 83.6929 122.384C83.6074 121.805 83.33 120.409 83.0496 119.576C82.7725 118.74 82.8307 117.824 83.1727 116.94C83.515 116.055 85.3242 112.571 85.3242 112.571Z" fill="#DFD0F2"/>
<path d="M113.129 101.651C113.129 101.651 112.934 101.167 112.742 100.825C112.547 100.482 112.995 99.5835 112.954 99.2406C112.913 98.8977 111.285 95.8532 109.233 91.1389C107.181 86.4246 108.85 81.5835 110.475 76.5675C112.441 76.3515 117.342 76.9686 119.387 79.3823C121.436 81.7994 122.701 89.452 123.556 92.5549C124.411 95.6543 128.457 107.74 128.659 109.369C128.857 110.997 126.149 112.482 125.649 113.023C125.15 113.569 124.695 114.71 124.093 114.967C123.491 115.225 121.532 114.625 120.991 114.625C120.451 114.625 117.842 114.974 117.257 114.967C116.675 114.961 115.995 114.282 115.995 114.282C115.995 114.282 116.504 109.321 113.987 105.217C112.376 104.048 111.265 103.437 111.265 103.437C111.265 103.437 112.25 101.425 112.633 101.469C112.688 101.476 112.862 101.538 113.129 101.651Z" fill="#FECB42"/>
<path d="M128.66 109.369C128.627 109.11 128.498 108.587 128.301 107.879C120.516 102.452 113.869 101.811 113.869 101.811C120.795 105.71 124.088 110.517 125.493 113.215C125.545 113.146 125.598 113.081 125.65 113.024C126.149 112.482 128.858 110.997 128.66 109.369Z" fill="#FEAB47"/>
<path d="M114.022 105.277C116.498 109.37 115.995 114.282 115.995 114.282C115.995 114.282 116.675 114.961 117.257 114.968C117.842 114.975 120.451 114.625 120.991 114.625C121.352 114.625 122.343 114.891 123.142 114.993C120.383 110.438 116.179 106.908 114.022 105.277Z" fill="#FEAB47"/>
<path d="M113.988 105.216C116.505 109.32 115.995 114.281 115.995 114.281C115.995 114.281 113.526 114.309 113.04 114.281C112.555 114.254 112.127 113.709 112.127 113.709C112.127 113.709 112.161 113.523 112.137 113.109C112.106 112.509 111.956 111.429 111.416 109.738C110.503 106.882 108.707 104.266 108.707 104.266C108.707 104.266 108.892 103.968 109.135 103.889C109.377 103.81 111.265 103.437 111.265 103.437C111.265 103.437 112.377 104.047 113.988 105.216Z" fill="#FECB42"/>
<path d="M86.1754 122.849H86.172C86.1512 123.244 85.3372 123.768 84.9952 123.796C84.7045 123.82 84.7045 123.477 84.6908 123.059C84.6871 122.983 84.684 122.905 84.6806 122.825C84.6532 122.311 84.6258 121.283 84.4241 120.597C84.2257 119.911 83.9111 118.91 84.1128 117.967C84.3112 117.024 84.7284 115.324 84.9097 114.425C85.0294 113.833 85.067 113.188 85.3269 112.571C85.4569 112.252 85.6484 111.943 85.9391 111.652C86.7941 110.795 90.5117 107.723 91.3222 106.91C92.1327 106.097 92.7757 105.926 94.2292 105.71C95.6827 105.494 108.706 104.267 108.706 104.267C108.706 104.267 110.502 106.883 111.415 109.739C111.955 111.429 112.106 112.509 112.136 113.109C108.586 113.064 102.581 111.052 95.0261 111.309C94.6567 112.396 93.9453 113.767 92.7176 114.539C91.4932 115.31 89.3762 115.889 89.0821 116.527C88.788 117.165 88.1382 118.245 87.9224 118.865C87.7107 119.489 87.4949 120.367 87.4162 121.289C87.3376 122.211 86.8314 122.808 86.4278 122.897C86.3085 122.922 86.2302 122.901 86.1754 122.849Z" fill="white"/>
<path d="M112.138 113.109C112.107 112.509 111.957 111.429 111.417 109.739C110.504 106.883 108.708 104.267 108.708 104.267C108.708 104.267 107.728 104.359 106.278 104.497C104.301 107.91 101.083 110.243 99.2275 111.385C104.811 111.758 109.275 113.073 112.138 113.109Z" fill="#DFD0F2"/>
<path d="M122.637 108.625C119.618 104.898 114.717 102.337 113.13 101.651C112.863 101.538 112.688 101.476 112.634 101.469C112.251 101.425 111.266 103.437 111.266 103.437C111.266 103.437 112.377 104.048 113.988 105.217C116.29 106.883 119.614 109.695 122.131 113.483" stroke="#350D75" stroke-width="0.5" stroke-miterlimit="10" stroke-linecap="round" stroke-linejoin="round"/>
<path d="M113.669 101.784C115.058 101.956 120.677 102.826 125.136 106.033" stroke="#350D75" stroke-width="0.5" stroke-miterlimit="10" stroke-linecap="round" stroke-linejoin="round"/>
<path d="M113.348 101.747C113.348 101.747 113.461 101.757 113.666 101.784" stroke="#350D75" stroke-width="0.5" stroke-miterlimit="10" stroke-linecap="round" stroke-linejoin="round"/>
<path d="M113.666 101.785C113.666 101.785 113.666 101.785 113.669 101.785C113.796 101.734 116.696 100.626 119.624 101.209" stroke="#350D75" stroke-width="0.5" stroke-miterlimit="10" stroke-linecap="round" stroke-linejoin="round"/>
<path d="M111.265 103.438C111.265 103.438 109.377 103.811 109.135 103.89C108.892 103.969 108.707 104.267 108.707 104.267C108.707 104.267 110.503 106.883 111.416 109.739C111.956 111.43 112.107 112.509 112.137 113.109C112.161 113.524 112.127 113.709 112.127 113.709C112.127 113.709 112.555 114.255 113.04 114.282C113.526 114.31 115.995 114.282 115.995 114.282C115.995 114.282 116.505 109.321 113.988 105.217" stroke="#350D75" stroke-width="0.5" stroke-miterlimit="10" stroke-linecap="round" stroke-linejoin="round"/>
<path d="M102.101 71.1934C102.101 71.1934 106.798 73.5248 110.474 76.5676C108.85 81.5836 107.181 86.4248 109.233 91.1391C111.285 95.8534 112.913 98.8979 112.954 99.2408C112.995 99.5836 112.547 100.482 112.742 100.825C112.933 101.168 113.128 101.651 113.128 101.651" stroke="#350D75" stroke-width="0.5" stroke-miterlimit="10" stroke-linecap="round" stroke-linejoin="round"/>
<path d="M115.994 114.282C115.994 114.282 116.675 114.96 117.256 114.967C117.841 114.974 120.45 114.624 120.991 114.624C121.531 114.624 123.491 115.224 124.093 114.967C124.695 114.71 125.149 113.568 125.649 113.023C126.148 112.482 128.857 110.997 128.658 109.368C128.457 107.74 124.411 95.6542 123.556 92.5547C122.701 89.4519 121.435 81.7993 119.387 79.3822C119.092 79.0342 118.128 77.6237 117.733 77.3477" stroke="#350D75" stroke-width="0.5" stroke-miterlimit="10" stroke-linecap="round" stroke-linejoin="round"/>
<path d="M108.706 104.267C108.706 104.267 95.6827 105.494 94.2292 105.71C92.7757 105.926 92.1327 106.097 91.3222 106.91C90.5117 107.723 86.7941 110.795 85.9391 111.652C85.6484 111.943 85.4569 112.252 85.3269 112.571C85.067 113.188 85.0294 113.833 84.9097 114.425C84.7284 115.324 84.3112 117.024 84.1128 117.967C83.9111 118.91 84.2257 119.911 84.4241 120.597C84.6258 121.283 84.6532 122.311 84.6806 122.825C84.684 122.904 84.6874 122.983 84.6908 123.059C84.7045 123.477 84.7045 123.82 84.9952 123.796C85.3372 123.768 86.1512 123.244 86.172 122.849" stroke="#350D75" stroke-width="0.5" stroke-miterlimit="10" stroke-linecap="round" stroke-linejoin="round"/>
<path d="M87.4171 114.295C87.4171 114.295 86.4766 117.11 86.2509 117.71C86.0217 118.31 86.0799 118.766 86.1346 119.425C86.1927 120.083 86.1038 121.653 86.0833 122.102C86.0696 122.421 86.046 122.73 86.1756 122.847V122.85C86.2303 122.901 86.309 122.922 86.4287 122.898C86.8323 122.809 87.3381 122.212 87.4171 121.29C87.4954 120.368 87.7112 119.49 87.9233 118.866C88.1391 118.246 88.7885 117.166 89.083 116.528C89.3767 115.891 91.4941 115.311 92.7184 114.54C93.9462 113.768 94.6576 112.397 95.0269 111.31C102.582 111.053 108.587 113.065 112.137 113.11" stroke="#350D75" stroke-width="0.5" stroke-miterlimit="10" stroke-linecap="round" stroke-linejoin="round"/>
<path d="M85.3239 112.571C85.3239 112.571 83.5147 116.055 83.1727 116.939C82.8307 117.824 82.7725 118.739 83.0496 119.576C83.33 120.409 83.6074 121.804 83.6929 122.384C83.7784 122.96 83.6275 123.433 83.8639 123.519C84.093 123.604 84.6741 123.176 84.6915 123.059C84.6915 123.056 84.6915 123.056 84.6915 123.052" stroke="#350D75" stroke-width="0.5" stroke-miterlimit="10" stroke-linecap="round" stroke-linejoin="round"/>
<path d="M98.5067 134.632C98.428 136.168 98.835 137.347 99.4027 138.208C99.3207 138.136 98.6059 137.516 97.4978 137.598C96.3247 137.684 92.7272 137.821 90.7744 137.207C93.8487 136.339 96.3764 135.496 98.5067 134.632Z" fill="#FEAB47"/>
<path d="M54.2695 138.475C55.0972 137.543 55.4015 136.237 55.4973 134.742C55.5657 133.665 55.381 132.513 55.0664 131.464C55.9522 133.682 56.0684 134.083 58.5479 134.196C61.0274 134.313 64.8681 134.059 66.5268 133.905C67.8401 133.785 68.9447 132.986 69.5846 132.413C69.8445 132.506 70.084 132.653 70.3028 132.852C71.1236 133.596 71.6298 135.05 71.6298 136.853C71.6298 137.971 71.2741 138.804 70.703 139.37C70.1421 139.922 69.3692 140.213 68.5073 140.248C68.4253 140.162 67.6626 139.384 66.5921 139.161C65.4567 138.921 58.3841 137.834 57.0777 137.683C55.7743 137.532 54.9436 137.985 54.2733 138.475H54.2695V138.475Z" fill="#FEAB47"/>
<path d="M100.783 139.596C100.783 139.596 100.642 140.089 99.4043 140.089C98.1629 140.089 93.0534 140.089 91.7914 140.089C90.5328 140.089 88.8263 139.571 87.8652 138.649C88.1046 138.33 88.1593 137.912 88.1593 137.912C89.0725 137.676 89.9446 137.439 90.7757 137.206C92.7285 137.82 96.326 137.683 97.499 137.597C98.6071 137.515 99.3219 138.135 99.404 138.207C99.4074 138.211 99.4112 138.214 99.4112 138.214C99.825 138.835 100.321 139.291 100.783 139.596Z" fill="#FECB42"/>
<path d="M69.5846 132.413C68.9451 132.986 67.8401 133.785 66.5268 133.905C64.8681 134.059 61.0274 134.313 58.5479 134.197C56.0684 134.084 55.9521 133.682 55.0664 131.464C54.6012 129.921 53.8591 128.594 53.2363 128.053C55.1002 127.583 56.9029 127.521 57.7199 127.573C62.443 130.12 67.1831 131.379 70.1722 131.817V131.821C70.1729 131.821 69.9574 132.078 69.5846 132.413Z" fill="#FECB42"/>
<path d="M54.2148 127.839C56.4344 129.506 60.9375 132.492 66.3316 133.922C66.3969 133.916 66.466 133.91 66.5255 133.904C67.8388 133.784 68.9434 132.985 69.5833 132.413C69.9561 132.077 70.1715 131.82 70.1715 131.82V131.816C67.1825 131.377 62.442 130.119 57.7193 127.571C57.0466 127.53 55.707 127.564 54.2148 127.839Z" fill="#FEAB47"/>
<path d="M68.5078 140.248C68.4463 140.255 68.3847 140.255 68.3231 140.255C66.5003 140.255 57.0953 140.255 53.2478 140.255C52.5432 140.255 51.8695 140.128 51.2471 139.895C52.6698 139.702 53.6308 139.202 54.2703 138.475H54.2738C54.9441 137.985 55.7752 137.532 57.0782 137.683C58.3846 137.834 65.4572 138.921 66.5926 139.161C67.6634 139.383 68.4257 140.162 68.5078 140.248Z" fill="#FECB42"/>
<path d="M106.37 130.359C111.267 133.085 112.242 138.444 108.651 140.09C107.851 140.09 107.396 140.09 107.396 140.09C109.02 137.786 107.225 133.531 103.825 131.951C104.578 131.474 105.262 130.98 105.901 130.466C106.058 130.435 106.213 130.397 106.37 130.359Z" fill="white"/>
<path d="M103.824 131.95C107.224 133.53 109.019 137.786 107.395 140.089C107.395 140.089 102.836 140.089 102.008 140.089C101.748 140.089 101.287 139.932 100.78 139.596C100.318 139.291 99.8229 138.835 99.409 138.214C99.409 138.214 99.4053 138.211 99.4019 138.207C98.8341 137.346 98.4272 136.167 98.5058 134.631C100.627 133.77 102.35 132.889 103.824 131.95Z" fill="white"/>
<path d="M106.369 130.359C106.212 130.397 106.058 130.435 105.901 130.466C105.261 130.98 104.577 131.474 103.825 131.951C102.351 132.89 100.627 133.771 98.5068 134.631C98.4281 136.167 98.8351 137.347 99.4029 138.208C99.4063 138.211 99.41 138.215 99.41 138.215C99.4894 138.334 99.5742 138.442 99.6594 138.55C102.303 137.629 106.457 135.929 109.753 133.434C109.007 132.283 107.875 131.197 106.369 130.359Z" fill="#DFD0F2"/>
<path d="M57.72 127.572C56.9026 127.521 55.1002 127.582 53.2363 128.052C50.9347 128.631 48.5441 129.828 47.802 132.197C46.7589 135.536 48.3081 138.56 50.8663 139.736C45.3225 138.536 44.4675 133.339 46.6631 130.085C48.4141 127.486 52.9046 126.341 55.5106 126.279C56.2425 126.742 56.9812 127.174 57.72 127.572Z" fill="white"/>
<path d="M47.7363 128.922C48.3389 129.15 48.9963 129.395 49.6762 129.643C50.7025 128.87 51.9823 128.368 53.2374 128.052C55.1013 127.582 56.904 127.52 57.721 127.572C56.9823 127.174 56.2436 126.742 55.5117 126.279C53.3345 126.331 49.8478 127.142 47.7363 128.922Z" fill="#DFD0F2"/>
<path d="M55.0668 131.464C55.3814 132.513 55.5661 133.665 55.4977 134.742C55.4019 136.236 55.0975 137.543 54.2699 138.475C53.6304 139.202 52.6693 139.703 51.2466 139.895C51.1167 139.847 50.9901 139.796 50.867 139.737C48.3088 138.561 46.7596 135.537 47.8027 132.198C48.5448 129.829 50.9354 128.632 53.2371 128.053C53.8592 128.594 54.6013 129.921 55.0668 131.464Z" fill="white"/>
<path d="M77.6421 136.14C78.3568 137.488 79.0511 138.369 79.6291 138.948C76.0039 139.384 73.2816 139.339 70.7029 139.37C71.274 138.804 71.6297 137.971 71.6297 136.853C71.6297 135.05 71.1239 133.596 70.3027 132.852L70.3096 132.842C71.0521 132.67 71.9071 132.355 72.7446 131.995C74.7111 131.158 76.5784 130.085 76.5784 130.085C76.4177 131.221 76.534 134.056 77.6421 136.14Z" fill="white"/>
<path d="M82.0019 133.682C83.6264 137.827 88.1579 137.913 88.1579 137.913C88.1579 137.913 88.1032 138.331 87.8638 138.65C87.7646 138.787 87.6282 138.907 87.4466 138.969C86.8481 139.167 83.8829 139.884 83.1408 139.997C82.4021 140.11 81.4308 140.169 80.8631 139.884C80.5929 139.747 80.1586 139.473 79.6285 138.948C79.0508 138.369 78.3562 137.487 77.6414 136.14C76.5334 134.056 76.4171 131.22 76.5778 130.085C76.6154 129.821 76.6702 129.647 76.7283 129.599C77.0429 129.341 80.0081 127.339 80.4048 127.082C80.8049 126.825 81.5471 127.082 81.5471 127.082C81.5471 127.082 80.2615 129.242 82.0019 133.682Z" fill="#6476C4"/>
<path d="M62.902 112.311C63.1482 112.411 63.3976 112.507 63.6476 112.596C66.4998 113.625 69.8104 114.969 72.7448 118.682C75.6757 122.398 78.0423 125.055 80.4056 127.082C80.0088 127.339 77.0437 129.341 76.7291 129.598C76.6709 129.646 76.6162 129.821 76.5786 130.085C76.5786 130.085 74.7113 131.158 72.7448 131.995C72.2116 132.039 71.322 131.988 70.1729 131.816C67.1838 131.378 62.4434 130.119 57.7207 127.572C56.982 127.174 56.2433 126.742 55.5114 126.279C55.2515 126.114 54.9881 125.943 54.7282 125.768C47.3307 120.797 47.4607 118.352 47.4197 117.54C47.3752 116.727 48.2028 111.512 50.4258 109.969C52.6488 108.426 57.0641 108.711 58.6612 108.797C60.2583 108.882 60.4533 109.376 61.0826 110.141C61.626 110.796 62.0706 111.684 62.902 112.311Z" fill="#485CB3"/>
<path d="M127.652 123.996C127.652 123.996 128.798 126.753 127.652 131.083C126.503 135.413 122.187 140.09 116.845 140.09C113.278 140.09 110.261 140.09 108.65 140.09C112.241 138.444 111.267 133.085 106.369 130.359C106.212 130.397 106.058 130.435 105.901 130.466C105.261 130.98 104.577 131.474 103.825 131.951C102.351 132.89 100.627 133.771 98.5066 134.631C96.3759 135.496 93.8486 136.339 90.7743 137.207C89.9429 137.44 89.0712 137.676 88.158 137.913C88.158 137.913 83.6265 137.827 82.002 133.682C80.2612 129.242 81.5472 127.082 81.5472 127.082C84.9945 125.083 93.76 117.756 97.9905 114.797C102.221 111.839 104.831 109.528 108.295 109.569C111.178 109.603 117.95 113.505 123.818 121.843C125.128 122.566 127.652 123.996 127.652 123.996Z" fill="#485CB3"/>
<path d="M108.65 140.09C110.261 140.09 113.277 140.09 116.844 140.09C122.186 140.09 126.503 135.413 127.652 131.083C128.798 126.753 127.652 123.996 127.652 123.996C127.652 123.996 126.886 123.562 125.979 123.052C126.159 124.064 125.416 124.262 125.416 124.262C125.995 125.413 124.987 126.818 123.256 127.082C121.524 127.345 118.361 126.004 116.351 125.34C114.342 124.676 113.987 125.431 113.987 125.431C113.253 126.122 112.397 126.04 112.397 126.04C112.083 126.14 111.499 126.04 111.185 125.74C110.872 125.44 110.26 125.304 110.106 125.581C109.953 125.859 109.852 126.018 109.458 126.645C109.064 127.273 106.611 126.754 105.9 126.654C105.19 126.554 105.072 127.325 104.802 127.868C104.531 128.411 102.863 131.168 99.1442 132.841C95.4253 134.514 85.9386 137.446 85.9365 137.447C85.9396 137.447 86.8661 137.638 87.8055 137.885C88.0272 137.909 88.1575 137.912 88.1575 137.912C89.0706 137.676 89.9427 137.439 90.7738 137.206C93.848 136.338 96.3757 135.495 98.5061 134.631C100.626 133.77 102.35 132.889 103.824 131.95C104.577 131.473 105.261 130.98 105.9 130.465C106.057 130.435 106.211 130.397 106.369 130.359C111.267 133.085 112.241 138.444 108.65 140.09Z" fill="#2E418F"/>
<path d="M81.5471 127.082C81.5471 127.082 80.8049 126.825 80.4048 127.082C80.0081 127.339 77.0429 129.341 76.7283 129.599C76.6702 129.647 76.6154 129.821 76.5778 130.085C76.4171 131.221 76.5334 134.056 77.6414 136.14C78.3562 137.488 79.0505 138.369 79.6285 138.948C80.1589 139.473 80.5929 139.747 80.8631 139.884C81.4308 140.169 82.4021 140.11 83.1408 139.997C83.8829 139.884 86.8481 139.167 87.4466 138.969C87.6278 138.907 87.7646 138.787 87.8638 138.65C88.1032 138.331 88.1579 137.913 88.1579 137.913C88.1579 137.913 83.6264 137.827 82.0019 133.682C80.2615 129.242 81.5471 127.082 81.5471 127.082Z" stroke="#350D75" stroke-width="0.5" stroke-miterlimit="10" stroke-linecap="round" stroke-linejoin="round"/>
<path d="M124.38 122.05C124.38 122.05 124.574 122.374 124.863 122.859C125.008 123.102 125.177 123.385 125.358 123.689C125.449 123.84 125.542 123.997 125.637 124.156C125.731 124.317 125.833 124.475 125.922 124.642C126.62 125.989 127.318 127.336 127.318 127.336C127.352 127.399 127.327 127.478 127.263 127.511C127.203 127.542 127.129 127.521 127.094 127.464L127.089 127.457C127.089 127.457 126.307 126.177 125.526 124.898C125.427 124.74 125.313 124.588 125.209 124.434C125.102 124.283 124.998 124.132 124.897 123.987C124.695 123.698 124.506 123.427 124.345 123.195C124.022 122.731 123.806 122.422 123.806 122.422C123.698 122.267 123.735 122.053 123.89 121.944C124.045 121.835 124.258 121.873 124.367 122.028C124.371 122.036 124.376 122.043 124.38 122.05Z" fill="#350D75"/>
<path d="M81.5469 127.082C84.9942 125.083 93.7597 117.756 97.9902 114.797C102.221 111.839 104.83 109.528 108.295 109.569C111.178 109.603 117.949 113.505 123.818 121.843C123.91 121.973 124.002 122.105 124.093 122.237" stroke="#350D75" stroke-width="0.5" stroke-miterlimit="10" stroke-linecap="round" stroke-linejoin="round"/>
<path d="M106.989 129.066C106.989 129.066 107.019 129.038 107.075 128.984C107.1 128.96 107.131 128.93 107.168 128.895C107.207 128.855 107.251 128.808 107.302 128.757C107.402 128.652 107.524 128.526 107.665 128.381C107.813 128.239 107.941 128.066 108.099 127.886C108.256 127.707 108.424 127.51 108.588 127.283C108.755 127.061 108.936 126.83 109.101 126.573C109.273 126.322 109.453 126.064 109.615 125.787C109.699 125.651 109.783 125.513 109.868 125.375L110.104 124.947C110.266 124.664 110.41 124.37 110.558 124.085C110.706 123.799 110.834 123.509 110.965 123.231C111.085 122.949 111.209 122.679 111.314 122.417C111.422 122.157 111.522 121.909 111.607 121.678C111.779 121.217 111.917 120.83 112.005 120.556C112.094 120.282 112.137 120.127 112.137 120.127C112.157 120.054 112.231 120.011 112.303 120.031C112.371 120.05 112.413 120.118 112.401 120.186C112.401 120.186 112.372 120.354 112.306 120.639C112.241 120.924 112.146 121.332 111.999 121.811C111.928 122.052 111.845 122.311 111.752 122.583C111.667 122.858 111.551 123.138 111.443 123.433C111.322 123.723 111.206 124.026 111.069 124.327C110.933 124.627 110.798 124.935 110.638 125.231L110.408 125.679C110.325 125.825 110.243 125.97 110.16 126.114C110.001 126.405 109.824 126.679 109.652 126.945C109.487 127.215 109.3 127.458 109.129 127.693C108.963 127.931 108.785 128.145 108.618 128.342C108.453 128.539 108.301 128.727 108.158 128.864C108.017 129.008 107.894 129.134 107.793 129.237C107.742 129.289 107.697 129.335 107.658 129.375C107.613 129.418 107.575 129.454 107.544 129.484C107.487 129.537 107.457 129.565 107.457 129.565C107.319 129.695 107.103 129.687 106.974 129.549C106.845 129.411 106.852 129.195 106.989 129.066Z" fill="#350D75"/>
<path d="M88.1572 137.913C89.0704 137.676 89.9425 137.439 90.7735 137.206C93.8478 136.339 96.3755 135.495 98.5058 134.631C100.626 133.771 102.35 132.889 103.824 131.95C104.576 131.473 105.26 130.98 105.9 130.466C106.36 130.095 106.799 129.711 107.222 129.315" stroke="#350D75" stroke-width="0.5" stroke-miterlimit="10" stroke-linecap="round" stroke-linejoin="round"/>
<path d="M105.828 130.131C105.828 130.131 105.888 130.115 106.001 130.085C106.057 130.07 106.127 130.052 106.209 130.031C106.229 130.025 106.25 130.02 106.272 130.014L106.289 130.009L106.293 130.008C106.299 130.007 106.251 130.019 106.272 130.014L106.274 130.013L106.282 130.01L106.316 129.999C106.363 129.985 106.411 129.969 106.464 129.953C106.669 129.887 106.926 129.813 107.208 129.715C107.476 129.603 107.78 129.495 108.111 129.353C108.437 129.196 108.802 129.051 109.161 128.841C109.342 128.74 109.533 128.645 109.719 128.532C109.904 128.417 110.094 128.3 110.286 128.181C110.484 128.069 110.665 127.926 110.858 127.795C111.049 127.66 111.246 127.53 111.427 127.375C111.613 127.226 111.8 127.076 111.988 126.925L112.524 126.436C112.707 126.277 112.871 126.099 113.043 125.929C113.213 125.758 113.385 125.59 113.537 125.405C113.692 125.224 113.847 125.045 114 124.868C114.141 124.681 114.28 124.496 114.417 124.315C114.561 124.137 114.672 123.943 114.795 123.761C114.912 123.577 115.046 123.406 115.143 123.221C115.345 122.856 115.554 122.517 115.695 122.18C115.772 122.014 115.846 121.854 115.916 121.703C115.982 121.549 116.034 121.4 116.088 121.261C116.196 120.982 116.292 120.739 116.341 120.529C116.463 120.116 116.532 119.879 116.532 119.879L116.535 119.87C116.55 119.817 116.606 119.786 116.658 119.802C116.707 119.816 116.737 119.865 116.729 119.914C116.729 119.914 116.689 120.163 116.62 120.598C116.592 120.819 116.522 121.077 116.442 121.375C116.402 121.524 116.364 121.685 116.314 121.851C116.254 122.014 116.191 122.185 116.125 122.363C116.004 122.726 115.817 123.093 115.634 123.491C115.547 123.693 115.423 123.88 115.315 124.083C115.2 124.282 115.088 124.489 114.948 124.682C114.813 124.88 114.676 125.08 114.538 125.283C114.386 125.476 114.233 125.672 114.078 125.869C113.928 126.07 113.756 126.255 113.585 126.443C113.411 126.628 113.252 126.829 113.061 126.997L112.504 127.521C112.309 127.683 112.115 127.844 111.922 128.004C111.732 128.169 111.527 128.311 111.328 128.456C111.127 128.597 110.938 128.75 110.732 128.872C110.528 128.998 110.329 129.123 110.134 129.244C109.935 129.361 109.731 129.459 109.539 129.563C109.156 129.778 108.767 129.928 108.42 130.088C108.066 130.239 107.72 130.342 107.424 130.448C107.13 130.536 106.876 130.596 106.665 130.655C106.613 130.668 106.564 130.682 106.517 130.694L106.482 130.703L106.425 130.716C106.403 130.72 106.381 130.724 106.36 130.728C106.278 130.744 106.207 130.757 106.15 130.768C106.036 130.79 105.975 130.802 105.975 130.802C105.789 130.837 105.61 130.715 105.574 130.529C105.541 130.351 105.65 130.179 105.822 130.134L105.828 130.131Z" fill="#350D75"/>
<path d="M106.366 130.359H106.37C111.267 133.085 112.242 138.444 108.651 140.09" stroke="#350D75" stroke-width="0.5" stroke-miterlimit="10" stroke-linecap="round" stroke-linejoin="round"/>
<path d="M103.825 131.951C107.225 133.531 109.02 137.786 107.396 140.09C107.396 140.09 107.851 140.09 108.651 140.09C110.262 140.09 113.278 140.09 116.845 140.09C122.187 140.09 126.503 135.413 127.653 131.083C128.798 126.752 127.653 123.996 127.653 123.996C127.653 123.996 125.128 122.566 123.819 121.843" stroke="#350D75" stroke-width="0.5" stroke-miterlimit="10" stroke-linecap="round" stroke-linejoin="round"/>
<path d="M99.4029 138.208C98.8351 137.347 98.4281 136.168 98.5068 134.632" stroke="#350D75" stroke-width="0.5" stroke-miterlimit="10" stroke-linecap="round" stroke-linejoin="round"/>
<path d="M107.396 140.09C107.396 140.09 102.837 140.09 102.009 140.09C101.749 140.09 101.288 139.932 100.782 139.597C100.32 139.291 99.824 138.835 99.4102 138.215" stroke="#350D75" stroke-width="0.5" stroke-miterlimit="10" stroke-linecap="round" stroke-linejoin="round"/>
<path d="M100.783 139.597C100.783 139.597 100.642 140.09 99.4043 140.09C98.1629 140.09 93.0534 140.09 91.7914 140.09C90.5328 140.09 88.8263 139.572 87.8652 138.65" stroke="#350D75" stroke-width="0.5" stroke-miterlimit="10" stroke-linecap="round" stroke-linejoin="round"/>
<path d="M99.4099 138.214C99.4099 138.214 99.4062 138.211 99.4027 138.207C99.3207 138.135 98.6059 137.515 97.4978 137.597C96.3247 137.683 92.7272 137.82 90.7744 137.206" stroke="#350D75" stroke-width="0.5" stroke-miterlimit="10" stroke-linecap="round" stroke-linejoin="round"/>
<path d="M76.5784 130.085C76.5784 130.085 74.7111 131.158 72.7446 131.995C71.9071 132.355 71.0521 132.67 70.3096 132.842" stroke="#350D75" stroke-width="0.5" stroke-miterlimit="10" stroke-linecap="round" stroke-linejoin="round"/>
<path d="M72.7438 131.995C72.2106 132.039 71.3211 131.988 70.1719 131.816C67.1829 131.378 62.4424 130.119 57.7197 127.572C56.981 127.174 56.2423 126.742 55.5104 126.279C55.2505 126.114 54.9871 125.943 54.7272 125.768C47.3298 120.797 47.4597 118.352 47.4187 117.54C47.3742 116.727 48.2019 111.512 50.4249 109.969C52.6479 108.426 57.0631 108.711 58.6602 108.797C60.2574 108.882 60.4523 109.376 61.0816 110.141C61.6254 110.796 62.07 111.684 62.901 112.311" stroke="#350D75" stroke-width="0.5" stroke-miterlimit="10" stroke-linecap="round" stroke-linejoin="round"/>
<path d="M58.2061 109.938C58.2061 109.938 60.3607 111.293 62.9017 112.311C63.148 112.41 63.3973 112.506 63.6473 112.596C66.4996 113.624 69.8101 114.968 72.7445 118.681C75.6754 122.398 78.0421 125.055 80.4053 127.081" stroke="#350D75" stroke-width="0.5" stroke-miterlimit="10" stroke-linecap="round" stroke-linejoin="round"/>
<path d="M57.7197 127.572C56.9023 127.52 55.1 127.582 53.2361 128.052C50.9344 128.631 48.5438 129.828 47.8017 132.197C46.7586 135.536 48.3079 138.56 50.866 139.736C50.9891 139.794 51.1157 139.846 51.2456 139.894C51.8677 140.127 52.5316 140.09 53.2357 140.09C57.0832 140.09 66.2345 140.089 68.0573 140.089C68.1189 140.089 68.4513 140.096 68.5129 140.09C69.3747 140.055 70.1411 139.921 70.7017 139.369C71.2728 138.803 71.6285 137.97 71.6285 136.852C71.6285 135.049 71.1227 133.595 70.3015 132.851C70.0827 132.652 69.8433 132.505 69.5833 132.412" stroke="#350D75" stroke-width="0.5" stroke-miterlimit="10" stroke-linecap="round" stroke-linejoin="round"/>
<path d="M70.7021 139.37C73.2808 139.339 76.0031 139.383 79.6283 138.948" stroke="#350D75" stroke-width="0.5" stroke-miterlimit="10" stroke-linecap="round" stroke-linejoin="round"/>
<path d="M51.2471 139.895C52.6698 139.703 53.6308 139.202 54.2704 138.476C55.098 137.543 55.4024 136.237 55.4981 134.742C55.5665 133.665 55.3819 132.513 55.0672 131.464C54.6021 129.921 53.86 128.594 53.2372 128.053" stroke="#350D75" stroke-width="0.5" stroke-miterlimit="10" stroke-linecap="round" stroke-linejoin="round"/>
<path d="M55.0664 131.464C55.9522 133.682 56.0685 134.083 58.548 134.196C61.0275 134.313 64.8681 134.059 66.5268 133.905C67.8401 133.785 68.9448 132.986 69.5846 132.413C69.9574 132.078 70.1729 131.82 70.1729 131.82" stroke="#350D75" stroke-width="0.5" stroke-miterlimit="10" stroke-linecap="round" stroke-linejoin="round"/>
<path d="M54.2725 138.475C54.9428 137.985 55.7738 137.532 57.0769 137.683C58.3833 137.834 65.4559 138.921 66.5913 139.161C67.6618 139.383 68.2459 140.008 68.328 140.093" stroke="#350D75" stroke-width="0.5" stroke-miterlimit="10" stroke-linecap="round" stroke-linejoin="round"/>
<path d="M55.5106 126.279C52.9046 126.341 48.4141 127.486 46.6631 130.085C44.4675 133.339 45.3225 138.536 50.8663 139.736" stroke="#350D75" stroke-width="0.5" stroke-miterlimit="10" stroke-linecap="round" stroke-linejoin="round"/>
<path d="M85.9365 137.447C85.9365 137.447 95.425 134.515 99.1442 132.841C102.863 131.168 104.531 128.411 104.802 127.868C105.072 127.326 105.19 126.554 105.9 126.654C106.611 126.754 109.064 127.273 109.458 126.645C109.852 126.018 109.952 125.858 110.106 125.581C110.26 125.304 110.872 125.44 111.185 125.74C111.499 126.04 112.083 126.14 112.397 126.04" stroke="#350D75" stroke-width="0.25" stroke-miterlimit="10" stroke-linecap="round" stroke-linejoin="round"/>
<path d="M113.986 125.431C113.986 125.431 114.342 124.676 116.351 125.34C118.36 126.004 121.524 127.345 123.255 127.082C124.987 126.818 125.995 125.413 125.416 124.262C125.416 124.262 126.159 124.064 125.979 123.052" stroke="#350D75" stroke-width="0.25" stroke-miterlimit="10" stroke-linecap="round" stroke-linejoin="round"/>
<path d="M58.1932 138.551C58.1289 139.012 57.7038 139.334 57.2441 139.269C56.7842 139.205 56.4637 138.779 56.5277 138.318L57.2472 133.159C57.3119 132.698 57.7366 132.377 58.1966 132.441C58.6563 132.506 58.9767 132.931 58.9128 133.392L58.1932 138.551Z" fill="white" stroke="#350D75" stroke-width="0.5" stroke-miterlimit="10" stroke-linecap="round" stroke-linejoin="round"/>
<path d="M62.503 138.916C62.4753 139.381 62.0772 139.735 61.6134 139.708C61.15 139.68 60.7964 139.281 60.8238 138.816L61.1329 133.616C61.1606 133.152 61.5587 132.797 62.0228 132.825C62.4859 132.853 62.8395 133.252 62.8121 133.716L62.503 138.916Z" fill="white" stroke="#350D75" stroke-width="0.5" stroke-miterlimit="10" stroke-linecap="round" stroke-linejoin="round"/>
<path d="M66.3702 138.888C66.3613 139.353 65.9776 139.723 65.5132 139.714C65.0491 139.705 64.6801 139.32 64.6886 138.855L64.7902 133.646C64.7991 133.181 65.1828 132.811 65.6476 132.82C66.1113 132.829 66.4807 133.214 66.4718 133.68L66.3702 138.888Z" fill="white" stroke="#350D75" stroke-width="0.5" stroke-miterlimit="10" stroke-linecap="round" stroke-linejoin="round"/>
<path d="M0 140.088H171" stroke="#350D75" stroke-width="0.5" stroke-miterlimit="10" stroke-linejoin="round"/>
<path d="M26.9801 152.636V153.524H23.3441V156.344H26.2961V157.232H23.3441V161H22.2521V152.636H26.9801ZM29.991 155.492C30.183 155.116 30.455 154.824 30.807 154.616C31.167 154.408 31.603 154.304 32.115 154.304V155.432H31.827C30.603 155.432 29.991 156.096 29.991 157.424V161H28.899V154.424H29.991V155.492ZM39.9756 157.46C39.9756 157.668 39.9636 157.888 39.9396 158.12H34.6836C34.7236 158.768 34.9436 159.276 35.3436 159.644C35.7516 160.004 36.2436 160.184 36.8196 160.184C37.2916 160.184 37.6836 160.076 37.9956 159.86C38.3156 159.636 38.5396 159.34 38.6676 158.972H39.8436C39.6676 159.604 39.3156 160.12 38.7876 160.52C38.2596 160.912 37.6036 161.108 36.8196 161.108C36.1956 161.108 35.6356 160.968 35.1396 160.688C34.6516 160.408 34.2676 160.012 33.9876 159.5C33.7076 158.98 33.5676 158.38 33.5676 157.7C33.5676 157.02 33.7036 156.424 33.9756 155.912C34.2476 155.4 34.6276 155.008 35.1156 154.736C35.6116 154.456 36.1796 154.316 36.8196 154.316C37.4436 154.316 37.9956 154.452 38.4756 154.724C38.9556 154.996 39.3236 155.372 39.5796 155.852C39.8436 156.324 39.9756 156.86 39.9756 157.46ZM38.8476 157.232C38.8476 156.816 38.7556 156.46 38.5716 156.164C38.3876 155.86 38.1356 155.632 37.8156 155.48C37.5036 155.32 37.1556 155.24 36.7716 155.24C36.2196 155.24 35.7476 155.416 35.3556 155.768C34.9716 156.12 34.7516 156.608 34.6956 157.232H38.8476ZM48.017 157.46C48.017 157.668 48.005 157.888 47.981 158.12H42.725C42.765 158.768 42.985 159.276 43.385 159.644C43.793 160.004 44.285 160.184 44.861 160.184C45.333 160.184 45.725 160.076 46.037 159.86C46.357 159.636 46.581 159.34 46.709 158.972H47.885C47.709 159.604 47.357 160.12 46.829 160.52C46.301 160.912 45.645 161.108 44.861 161.108C44.237 161.108 43.677 160.968 43.181 160.688C42.693 160.408 42.309 160.012 42.029 159.5C41.749 158.98 41.609 158.38 41.609 157.7C41.609 157.02 41.745 156.424 42.017 155.912C42.289 155.4 42.669 155.008 43.157 154.736C43.653 154.456 44.221 154.316 44.861 154.316C45.485 154.316 46.037 154.452 46.517 154.724C46.997 154.996 47.365 155.372 47.621 155.852C47.885 156.324 48.017 156.86 48.017 157.46ZM46.889 157.232C46.889 156.816 46.797 156.46 46.613 156.164C46.429 155.86 46.177 155.632 45.857 155.48C45.545 155.32 45.197 155.24 44.813 155.24C44.261 155.24 43.789 155.416 43.397 155.768C43.013 156.12 42.793 156.608 42.737 157.232H46.889ZM54.9496 160.112H57.8776V161H53.8576V152.636H54.9496V160.112ZM62.5053 161.108C61.8893 161.108 61.3293 160.968 60.8253 160.688C60.3293 160.408 59.9373 160.012 59.6493 159.5C59.3693 158.98 59.2293 158.38 59.2293 157.7C59.2293 157.028 59.3733 156.436 59.6613 155.924C59.9573 155.404 60.3573 155.008 60.8613 154.736C61.3653 154.456 61.9293 154.316 62.5533 154.316C63.1773 154.316 63.7413 154.456 64.2453 154.736C64.7493 155.008 65.1453 155.4 65.4333 155.912C65.7293 156.424 65.8773 157.02 65.8773 157.7C65.8773 158.38 65.7253 158.98 65.4213 159.5C65.1253 160.012 64.7213 160.408 64.2093 160.688C63.6973 160.968 63.1293 161.108 62.5053 161.108ZM62.5053 160.148C62.8973 160.148 63.2653 160.056 63.6093 159.872C63.9533 159.688 64.2293 159.412 64.4373 159.044C64.6533 158.676 64.7613 158.228 64.7613 157.7C64.7613 157.172 64.6573 156.724 64.4493 156.356C64.2413 155.988 63.9693 155.716 63.6333 155.54C63.2973 155.356 62.9333 155.264 62.5413 155.264C62.1413 155.264 61.7733 155.356 61.4373 155.54C61.1093 155.716 60.8453 155.988 60.6453 156.356C60.4453 156.724 60.3453 157.172 60.3453 157.7C60.3453 158.236 60.4413 158.688 60.6333 159.056C60.8333 159.424 61.0973 159.7 61.4253 159.884C61.7533 160.06 62.1133 160.148 62.5053 160.148ZM70.6251 154.316C71.1931 154.316 71.6891 154.44 72.1131 154.688C72.5451 154.936 72.8651 155.248 73.0731 155.624V154.424H74.1771V161.144C74.1771 161.744 74.0491 162.276 73.7931 162.74C73.5371 163.212 73.1691 163.58 72.6891 163.844C72.2171 164.108 71.6651 164.24 71.0331 164.24C70.1691 164.24 69.4491 164.036 68.8731 163.628C68.2971 163.22 67.9571 162.664 67.8531 161.96H68.9331C69.0531 162.36 69.3011 162.68 69.6771 162.92C70.0531 163.168 70.5051 163.292 71.0331 163.292C71.6331 163.292 72.1211 163.104 72.4971 162.728C72.8811 162.352 73.0731 161.824 73.0731 161.144V159.764C72.8571 160.148 72.5371 160.468 72.1131 160.724C71.6891 160.98 71.1931 161.108 70.6251 161.108C70.0411 161.108 69.5091 160.964 69.0291 160.676C68.5571 160.388 68.1851 159.984 67.9131 159.464C67.6411 158.944 67.5051 158.352 67.5051 157.688C67.5051 157.016 67.6411 156.428 67.9131 155.924C68.1851 155.412 68.5571 155.016 69.0291 154.736C69.5091 154.456 70.0411 154.316 70.6251 154.316ZM73.0731 157.7C73.0731 157.204 72.9731 156.772 72.7731 156.404C72.5731 156.036 72.3011 155.756 71.9571 155.564C71.6211 155.364 71.2491 155.264 70.8411 155.264C70.4331 155.264 70.0611 155.36 69.7251 155.552C69.3891 155.744 69.1211 156.024 68.9211 156.392C68.7211 156.76 68.6211 157.192 68.6211 157.688C68.6211 158.192 68.7211 158.632 68.9211 159.008C69.1211 159.376 69.3891 159.66 69.7251 159.86C70.0611 160.052 70.4331 160.148 70.8411 160.148C71.2491 160.148 71.6211 160.052 71.9571 159.86C72.3011 159.66 72.5731 159.376 72.7731 159.008C72.9731 158.632 73.0731 158.196 73.0731 157.7ZM80.9857 153.356C80.7777 153.356 80.6017 153.284 80.4577 153.14C80.3137 152.996 80.2417 152.82 80.2417 152.612C80.2417 152.404 80.3137 152.228 80.4577 152.084C80.6017 151.94 80.7777 151.868 80.9857 151.868C81.1857 151.868 81.3537 151.94 81.4897 152.084C81.6337 152.228 81.7057 152.404 81.7057 152.612C81.7057 152.82 81.6337 152.996 81.4897 153.14C81.3537 153.284 81.1857 153.356 80.9857 153.356ZM81.5137 154.424V161H80.4217V154.424H81.5137ZM87.1788 154.304C87.9788 154.304 88.6268 154.548 89.1228 155.036C89.6188 155.516 89.8668 156.212 89.8668 157.124V161H88.7868V157.28C88.7868 156.624 88.6228 156.124 88.2948 155.78C87.9668 155.428 87.5188 155.252 86.9508 155.252C86.3748 155.252 85.9148 155.432 85.5708 155.792C85.2348 156.152 85.0668 156.676 85.0668 157.364V161H83.9748V154.424H85.0668V155.36C85.2828 155.024 85.5748 154.764 85.9428 154.58C86.3188 154.396 86.7308 154.304 87.1788 154.304ZM100.994 159.14H97.3458L96.6738 161H95.5218L98.5458 152.684H99.8058L102.818 161H101.666L100.994 159.14ZM100.682 158.252L99.1698 154.028L97.6578 158.252H100.682ZM105.828 152.12V161H104.736V152.12H105.828ZM109.381 152.12V161H108.289V152.12H109.381ZM116.709 152.636V157.928C116.709 158.672 116.889 159.224 117.249 159.584C117.617 159.944 118.125 160.124 118.773 160.124C119.413 160.124 119.913 159.944 120.273 159.584C120.641 159.224 120.825 158.672 120.825 157.928V152.636H121.917V157.916C121.917 158.612 121.777 159.2 121.497 159.68C121.217 160.152 120.837 160.504 120.357 160.736C119.885 160.968 119.353 161.084 118.761 161.084C118.169 161.084 117.633 160.968 117.153 160.736C116.681 160.504 116.305 160.152 116.025 159.68C115.753 159.2 115.617 158.612 115.617 157.916V152.636H116.709ZM126.667 161.108C126.163 161.108 125.711 161.024 125.311 160.856C124.911 160.68 124.595 160.44 124.363 160.136C124.131 159.824 124.003 159.468 123.979 159.068H125.107C125.139 159.396 125.291 159.664 125.563 159.872C125.843 160.08 126.207 160.184 126.655 160.184C127.071 160.184 127.399 160.092 127.639 159.908C127.879 159.724 127.999 159.492 127.999 159.212C127.999 158.924 127.871 158.712 127.615 158.576C127.359 158.432 126.963 158.292 126.427 158.156C125.939 158.028 125.539 157.9 125.227 157.772C124.923 157.636 124.659 157.44 124.435 157.184C124.219 156.92 124.111 156.576 124.111 156.152C124.111 155.816 124.211 155.508 124.411 155.228C124.611 154.948 124.895 154.728 125.263 154.568C125.631 154.4 126.051 154.316 126.523 154.316C127.251 154.316 127.839 154.5 128.287 154.868C128.735 155.236 128.975 155.74 129.007 156.38H127.915C127.891 156.036 127.751 155.76 127.495 155.552C127.247 155.344 126.911 155.24 126.487 155.24C126.095 155.24 125.783 155.324 125.551 155.492C125.319 155.66 125.203 155.88 125.203 156.152C125.203 156.368 125.271 156.548 125.407 156.692C125.551 156.828 125.727 156.94 125.935 157.028C126.151 157.108 126.447 157.2 126.823 157.304C127.295 157.432 127.679 157.56 127.975 157.688C128.271 157.808 128.523 157.992 128.731 158.24C128.947 158.488 129.059 158.812 129.067 159.212C129.067 159.572 128.967 159.896 128.767 160.184C128.567 160.472 128.283 160.7 127.915 160.868C127.555 161.028 127.139 161.108 126.667 161.108ZM137.208 157.46C137.208 157.668 137.196 157.888 137.172 158.12H131.916C131.956 158.768 132.176 159.276 132.576 159.644C132.984 160.004 133.476 160.184 134.052 160.184C134.524 160.184 134.916 160.076 135.228 159.86C135.548 159.636 135.772 159.34 135.9 158.972H137.076C136.9 159.604 136.548 160.12 136.02 160.52C135.492 160.912 134.836 161.108 134.052 161.108C133.428 161.108 132.868 160.968 132.372 160.688C131.884 160.408 131.5 160.012 131.22 159.5C130.94 158.98 130.8 158.38 130.8 157.7C130.8 157.02 130.936 156.424 131.208 155.912C131.48 155.4 131.86 155.008 132.348 154.736C132.844 154.456 133.412 154.316 134.052 154.316C134.676 154.316 135.228 154.452 135.708 154.724C136.188 154.996 136.556 155.372 136.812 155.852C137.076 156.324 137.208 156.86 137.208 157.46ZM136.08 157.232C136.08 156.816 135.988 156.46 135.804 156.164C135.62 155.86 135.368 155.632 135.048 155.48C134.736 155.32 134.388 155.24 134.004 155.24C133.452 155.24 132.98 155.416 132.588 155.768C132.204 156.12 131.984 156.608 131.928 157.232H136.08ZM140.342 155.492C140.534 155.116 140.806 154.824 141.158 154.616C141.518 154.408 141.954 154.304 142.466 154.304V155.432H142.178C140.954 155.432 140.342 156.096 140.342 157.424V161H139.25V154.424H140.342V155.492ZM146.654 161.108C146.15 161.108 145.698 161.024 145.298 160.856C144.898 160.68 144.582 160.44 144.35 160.136C144.118 159.824 143.99 159.468 143.966 159.068H145.094C145.126 159.396 145.278 159.664 145.55 159.872C145.83 160.08 146.194 160.184 146.642 160.184C147.058 160.184 147.386 160.092 147.626 159.908C147.866 159.724 147.986 159.492 147.986 159.212C147.986 158.924 147.858 158.712 147.602 158.576C147.346 158.432 146.95 158.292 146.414 158.156C145.926 158.028 145.526 157.9 145.214 157.772C144.91 157.636 144.646 157.44 144.422 157.184C144.206 156.92 144.098 156.576 144.098 156.152C144.098 155.816 144.198 155.508 144.398 155.228C144.598 154.948 144.882 154.728 145.25 154.568C145.618 154.4 146.038 154.316 146.51 154.316C147.238 154.316 147.826 154.5 148.274 154.868C148.722 155.236 148.962 155.74 148.994 156.38H147.902C147.878 156.036 147.738 155.76 147.482 155.552C147.234 155.344 146.898 155.24 146.474 155.24C146.082 155.24 145.77 155.324 145.538 155.492C145.306 155.66 145.19 155.88 145.19 156.152C145.19 156.368 145.258 156.548 145.394 156.692C145.538 156.828 145.714 156.94 145.922 157.028C146.138 157.108 146.434 157.2 146.81 157.304C147.282 157.432 147.666 157.56 147.962 157.688C148.258 157.808 148.51 157.992 148.718 158.24C148.934 158.488 149.046 158.812 149.054 159.212C149.054 159.572 148.954 159.896 148.754 160.184C148.554 160.472 148.27 160.7 147.902 160.868C147.542 161.028 147.126 161.108 146.654 161.108Z" fill="#707070"/>
</svg>
