<svg width="16" height="14" viewBox="0 0 16 14" fill="none" xmlns="http://www.w3.org/2000/svg">
<path d="M4.975 13.75C4.5 13.75 4.09375 13.5781 3.75625 13.2344C3.41875 12.8906 3.25 12.4812 3.25 12.0063V5.05L1.88125 1.75H0.25V0.25H2.89375L4.13125 3.25H15.2125C15.5 3.25 15.7188 3.36875 15.8688 3.60625C16.0188 3.84375 16.025 4.0875 15.8875 4.3375L13.75 8.51875C14.3875 8.61875 14.9219 8.9125 15.3531 9.4C15.7844 9.8875 16 10.4625 16 11.125C16 11.85 15.7469 12.4688 15.2406 12.9813C14.7344 13.4938 14.1187 13.75 13.3937 13.75C12.6562 13.75 12.0344 13.4938 11.5281 12.9813C11.0219 12.4688 10.7688 11.85 10.7688 11.125C10.7688 10.875 10.8 10.6438 10.8625 10.4312C10.925 10.2188 11.0125 10.0125 11.125 9.8125L8.66875 9.5875L6.41875 12.9625C6.25625 13.2125 6.04688 13.4062 5.79063 13.5438C5.53438 13.6813 5.2625 13.75 4.975 13.75ZM12.1375 8.40625L13.9938 4.75H4.75L5.6875 7C5.7875 7.25 5.94688 7.45938 6.16563 7.62813C6.38438 7.79688 6.6375 7.89375 6.925 7.91875L12.1375 8.40625ZM4.99375 12.2313C5.01875 12.2313 5.075 12.2 5.1625 12.1375L6.98125 9.4375C6.36875 9.375 5.8875 9.22813 5.5375 8.99688C5.1875 8.76562 4.925 8.525 4.75 8.275V12.025C4.75 12.0875 4.775 12.1375 4.825 12.175C4.875 12.2125 4.93125 12.2313 4.99375 12.2313ZM13.375 12.25C13.7 12.25 13.9688 12.1406 14.1813 11.9219C14.3938 11.7031 14.5 11.4375 14.5 11.125C14.5 10.8 14.3938 10.5312 14.1813 10.3188C13.9688 10.1062 13.7 10 13.375 10C13.0625 10 12.7969 10.1062 12.5781 10.3188C12.3594 10.5312 12.25 10.8 12.25 11.125C12.25 11.4375 12.3594 11.7031 12.5781 11.9219C12.7969 12.1406 13.0625 12.25 13.375 12.25Z" fill="#1B4341"/>
</svg>
