<svg width="28" height="9" viewBox="0 0 28 9" fill="none" xmlns="http://www.w3.org/2000/svg">
<path fill-rule="evenodd" clip-rule="evenodd" d="M26.9896 2.75963C26.7502 2.06691 26.101 1.56641 25.3394 1.56641H25.3249C24.828 1.56641 24.3819 1.77676 24.0664 2.11406C23.7472 1.77676 23.3011 1.56641 22.8079 1.56641H22.7934C22.3581 1.56641 21.9592 1.72961 21.6545 1.998V1.86381C21.6436 1.72599 21.5348 1.62081 21.397 1.62081H20.2292C20.0877 1.62081 19.9717 1.74049 19.9717 1.88557V8.35583C19.9717 8.5009 20.0877 8.62059 20.2292 8.62059H21.397C21.5276 8.62059 21.6328 8.52266 21.6509 8.3921V4.59481V3.74613C21.6509 3.73162 21.6509 3.71349 21.6545 3.69898C21.6727 3.49225 21.8214 3.32179 22.0571 3.30003H22.2711C22.369 3.30728 22.4524 3.34355 22.5177 3.39795C22.6193 3.48137 22.6773 3.60831 22.6773 3.74613V4.59481V8.19625L22.6809 8.36671C22.6809 8.51178 22.797 8.63147 22.9384 8.63147H24.1063C24.2441 8.63147 24.3565 8.51904 24.3638 8.38122V4.59118V3.7425C24.3638 3.59018 24.4327 3.45236 24.556 3.36894C24.614 3.32905 24.6866 3.30366 24.77 3.2964H24.984C25.2378 3.31817 25.3902 3.51401 25.3902 3.7425V4.59118V4.83055H25.3938V8.35583C25.3938 8.5009 25.5098 8.62059 25.6513 8.62059H26.8191C26.9606 8.62059 27.0766 8.5009 27.0766 8.35583V3.3907C27.0766 3.05341 27.0404 2.90833 26.9896 2.75963Z" fill="#24B9EC"/>
<path fill-rule="evenodd" clip-rule="evenodd" d="M19.0725 1.63559H18.4052V0.533036V0.529409C18.4052 0.395217 18.3 0.290039 18.1694 0.290039C18.1549 0.290039 18.1404 0.293666 18.1259 0.293666C17.3824 0.500395 17.5348 1.54855 16.1783 1.63559H16.0478C16.0296 1.63559 16.0079 1.63922 15.9897 1.64285C15.8737 1.66823 15.7866 1.77341 15.7866 1.90035V3.08995C15.7866 3.23502 15.9027 3.35471 16.0441 3.35471H16.7477V6.80382C16.7477 6.80745 16.7477 6.80745 16.7477 6.81108V8.40688C16.7477 8.55196 16.8638 8.66801 17.0016 8.66801H18.1586C18.3 8.66801 18.4124 8.55196 18.4124 8.40688V7.28619V3.35471H19.0689C19.2103 3.35471 19.3264 3.23502 19.3264 3.08995V1.90035C19.3337 1.75528 19.2176 1.63559 19.0725 1.63559Z" fill="#24B9EC"/>
<path fill-rule="evenodd" clip-rule="evenodd" d="M14.8652 1.63574H13.6974C13.5559 1.63574 13.4398 1.75543 13.4398 1.9005V2.53882H13.4362V3.31859C13.4398 3.33673 13.4435 3.35486 13.4435 3.37299V4.17815V4.18178V4.36312C13.4398 4.51544 13.3202 4.63876 13.1715 4.63876H12.6818C12.5295 4.63876 12.4062 4.51544 12.4062 4.35949V2.53882H12.4026V1.9005C12.4026 1.75543 12.2865 1.63574 12.1451 1.63574H10.9772C10.8358 1.63574 10.7197 1.75543 10.7197 1.9005V4.60249C10.7197 5.62888 11.4378 6.35787 12.4461 6.35787H13.186C13.186 6.35787 13.2041 6.35787 13.2259 6.3615C13.3637 6.37601 13.4689 6.49569 13.4689 6.63714C13.4689 6.77859 13.3637 6.89464 13.2295 6.91278C13.2222 6.91278 13.2186 6.91641 13.2114 6.91641L12.8777 6.92366H11.4995C11.358 6.92366 11.242 7.04334 11.242 7.18842V8.37802C11.242 8.52309 11.358 8.64278 11.4995 8.64278H13.4108C14.4191 8.64278 15.1372 7.91016 15.1372 6.88739V1.9005C15.1263 1.75543 15.0103 1.63574 14.8652 1.63574Z" fill="#23346B"/>
<path fill-rule="evenodd" clip-rule="evenodd" d="M3.54985 3.81909V4.55534C3.54985 4.71129 3.42654 4.83461 3.27421 4.83461H3.16541C3.16178 4.83461 3.16178 4.83461 3.15815 4.83461H2.53434V3.36211H3.27784C3.43017 3.36211 3.55348 3.48543 3.55348 3.64138V3.81909H3.54985ZM3.65503 1.63574H2.26595C2.2587 1.63574 2.25507 1.63574 2.25145 1.63574C2.24782 1.63574 2.24782 1.63574 2.24419 1.63574H1.09812C0.95667 1.63574 0.844238 1.7518 0.844238 1.89325V3.06109C0.844238 3.06471 0.844238 3.06471 0.844238 3.06834C0.844238 3.07559 0.844238 3.07922 0.844238 3.08647V8.37076C0.844238 8.51584 0.949416 8.6319 1.07998 8.63552H2.26958C2.41103 8.63552 2.52709 8.51946 2.52709 8.37076L2.53071 6.56098H3.64778C4.5835 6.56098 5.23633 5.90089 5.23633 4.93978V3.26056C5.24358 2.29945 4.59075 1.63574 3.65503 1.63574Z" fill="#23346B"/>
<path fill-rule="evenodd" clip-rule="evenodd" d="M8.40371 6.61859V6.80356C8.40371 6.81806 8.40009 6.83257 8.40009 6.84708C8.39646 6.86159 8.39283 6.87247 8.38921 6.88697C8.35294 6.99215 8.25139 7.06469 8.12807 7.06469H7.64208C7.48975 7.06469 7.36644 6.94863 7.36644 6.80356V6.57869C7.36644 6.57507 7.36644 6.57144 7.36644 6.57144V5.97301V5.78804C7.36644 5.64297 7.48975 5.52691 7.64208 5.52691H8.12807C8.2804 5.52691 8.40371 5.64297 8.40371 5.78804V6.61859ZM8.21874 1.64258H6.59755C6.45248 1.64258 6.33642 1.75501 6.33642 1.8892V2.35344C6.33642 2.35706 6.33642 2.36069 6.33642 2.36432C6.33642 2.36794 6.33642 2.37157 6.33642 2.3752V3.00989C6.33642 3.15497 6.45973 3.27102 6.61206 3.27102H7.1851C7.18873 3.27102 7.18873 3.27102 7.19235 3.27102H8.15709C8.2804 3.28916 8.3747 3.37983 8.38921 3.52128V3.6736C8.3747 3.8078 8.2804 3.90572 8.16434 3.9166H7.39908C6.37994 3.9166 5.6582 4.6057 5.6582 5.57406V6.95951C5.6582 7.92062 6.28202 8.60609 7.29028 8.60609H8.73013C8.74101 8.60609 8.74826 8.60609 8.75914 8.60609C8.76277 8.60609 8.7664 8.60609 8.77002 8.60609H9.41197C9.79279 8.60609 10.1011 8.31232 10.1011 7.94963V3.4306C10.0974 2.3353 9.54254 1.64258 8.21874 1.64258Z" fill="#23346B"/>
</svg>
