<svg width="12" height="14" viewBox="0 0 12 14" fill="none" xmlns="http://www.w3.org/2000/svg">
<path d="M2.57143 0C1.15179 0 0 1.15179 0 2.57143V11.1429C0 12.5625 1.15179 13.7143 2.57143 13.7143H10.2857H11.1429C11.617 13.7143 12 13.3313 12 12.8571C12 12.383 11.617 12 11.1429 12V10.2857C11.617 10.2857 12 9.90268 12 9.42857V0.857143C12 0.383036 11.617 0 11.1429 0H10.2857H2.57143ZM2.57143 10.2857H9.42857V12H2.57143C2.09732 12 1.71429 11.617 1.71429 11.1429C1.71429 10.6687 2.09732 10.2857 2.57143 10.2857ZM3.42857 3.85714C3.42857 3.62143 3.62143 3.42857 3.85714 3.42857H9C9.23571 3.42857 9.42857 3.62143 9.42857 3.85714C9.42857 4.09286 9.23571 4.28571 9 4.28571H3.85714C3.62143 4.28571 3.42857 4.09286 3.42857 3.85714ZM3.85714 5.14286H9C9.23571 5.14286 9.42857 5.33571 9.42857 5.57143C9.42857 5.80714 9.23571 6 9 6H3.85714C3.62143 6 3.42857 5.80714 3.42857 5.57143C3.42857 5.33571 3.62143 5.14286 3.85714 5.14286Z" fill="white"/>
</svg>
