<svg width="10" height="12" viewBox="0 0 10 12" fill="none" xmlns="http://www.w3.org/2000/svg">
<g clip-path="url(#clip0_1_734)">
<path d="M2.5001 0.600006C1.38213 0.600006 0.475098 1.50704 0.475098 2.62501V9.37501C0.475098 10.493 1.38213 11.4 2.5001 11.4H8.5751H9.2501C9.62346 11.4 9.9251 11.0984 9.9251 10.725C9.9251 10.3516 9.62346 10.05 9.2501 10.05V8.70001C9.62346 8.70001 9.9251 8.39837 9.9251 8.02501V1.27501C9.9251 0.901647 9.62346 0.600006 9.2501 0.600006H8.5751H2.5001ZM2.5001 8.70001H7.9001V10.05H2.5001C2.12674 10.05 1.8251 9.74837 1.8251 9.37501C1.8251 9.00165 2.12674 8.70001 2.5001 8.70001ZM3.1751 3.63751C3.1751 3.45188 3.32697 3.30001 3.5126 3.30001H7.5626C7.74822 3.30001 7.9001 3.45188 7.9001 3.63751C7.9001 3.82313 7.74822 3.97501 7.5626 3.97501H3.5126C3.32697 3.97501 3.1751 3.82313 3.1751 3.63751ZM3.5126 4.65001H7.5626C7.74822 4.65001 7.9001 4.80188 7.9001 4.98751C7.9001 5.17313 7.74822 5.32501 7.5626 5.32501H3.5126C3.32697 5.32501 3.1751 5.17313 3.1751 4.98751C3.1751 4.80188 3.32697 4.65001 3.5126 4.65001Z" fill="white"/>
</g>
<defs>
<clipPath id="clip0_1_734">
<rect width="9.45" height="10.8" fill="white" transform="translate(0.475098 0.600006)"/>
</clipPath>
</defs>
</svg>
