<svg width="8" height="11" viewBox="0 0 8 11" fill="none" xmlns="http://www.w3.org/2000/svg">
<path d="M7.65625 3.38352L7.28835 4.8402H0.541903L0.909801 3.38352H7.65625ZM4.04688 11L0.725852 7.08736L0.735795 5.71023H2.37145C2.71615 5.71023 2.99953 5.64062 3.22159 5.50142C3.44697 5.3589 3.61435 5.1733 3.72372 4.9446C3.83641 4.71591 3.89441 4.46733 3.89773 4.19886C3.89441 3.79119 3.77675 3.45312 3.54474 3.18466C3.31605 2.91288 2.92495 2.77699 2.37145 2.77699H0.541903L0.974432 0.818182H2.37145C3.22988 0.818182 3.9491 0.942471 4.52912 1.19105C5.10914 1.43963 5.54664 1.79924 5.84162 2.26989C6.1366 2.74053 6.28575 3.30895 6.28906 3.97514C6.28575 4.56179 6.19626 5.06723 6.0206 5.49148C5.84825 5.91572 5.57978 6.27202 5.2152 6.56037C4.85393 6.84872 4.38494 7.0857 3.80824 7.27131L3.71378 7.31108L6.64702 10.9055V11H4.04688ZM7.67117 0.818182L7.28835 2.30469L1.66051 2.31463L2.04332 0.818182H7.67117Z" fill="white"/>
</svg>
